<svg preserveAspectRatio="none" width="100%" height="100%" overflow="visible" style="display: block;" viewBox="0 0 203.613 405.831" fill="none" xmlns="http://www.w3.org/2000/svg">
<path id="Vector" d="M135.97 405.831C122.564 405.831 111.671 402.556 103.292 396.005C94.9127 389.303 88.2094 379.172 83.1819 365.614V402.175H0V0H83.1819V95.9736C88.2094 83.3295 95.1412 73.5036 103.977 66.496C112.966 59.3361 125.763 55.7561 142.369 55.7561C164.764 55.7561 180.532 63.9062 189.673 80.2065C198.966 96.5068 203.613 117.834 203.613 144.189V312.828C203.613 330.347 201.175 346.191 196.3 360.358C191.577 374.373 184.189 385.494 174.134 393.72C164.231 401.794 151.51 405.831 135.97 405.831ZM102.149 342.077C110.833 342.077 116.089 337.812 117.917 329.281C119.745 320.75 120.659 310.239 120.659 297.747V163.841C120.659 151.197 119.745 140.685 117.917 132.307C116.089 123.776 110.909 119.51 102.378 119.51C93.5416 119.51 88.1332 123.852 86.1527 132.535C84.1722 141.066 83.1819 151.501 83.1819 163.841V297.747C83.1819 310.086 84.1722 320.598 86.1527 329.281C88.1332 337.812 93.4654 342.077 102.149 342.077Z" fill="var(--fill-0, #1A0F4D)"/>
</svg>
