<svg preserveAspectRatio="none" width="100%" height="100%" overflow="visible" style="display: block;" viewBox="0 0 322.901 346.419" fill="none" xmlns="http://www.w3.org/2000/svg">
<path id="Vector" d="M0 346.419V3.65614H79.9826V43.4166C83.639 29.4014 89.8852 18.6615 98.7214 11.1969C107.558 3.73231 120.507 0 137.57 0C151.281 0 162.936 3.19911 172.534 9.59735C182.284 15.8433 189.14 24.1457 193.101 34.5048C199.347 23.2317 206.66 14.7007 215.039 8.91184C223.57 2.97062 235.682 0 251.374 0C270.417 0 285.043 4.11315 295.25 12.3395C305.61 20.4134 312.77 31.6865 316.731 46.1588C320.845 60.4786 322.901 77.0836 322.901 95.9736V346.419H241.319V94.6026C241.319 72.5134 235.682 61.4688 224.408 61.4688C218.467 61.4688 213.896 63.5254 210.697 67.6386C207.498 71.5994 205.289 76.5504 204.07 82.4916C202.851 88.4328 202.242 94.3741 202.242 100.315V346.419H120.659V94.6026C120.659 87.4426 119.745 80.2827 117.917 73.1228C116.241 65.9628 111.823 62.3829 104.663 62.3829C98.569 62.3829 93.8462 64.5918 90.4946 69.0096C87.1429 73.4274 84.8577 78.9116 83.6389 85.4622C82.4202 91.8605 81.8108 98.1825 81.8108 104.428V346.419H0Z" fill="var(--fill-0, #1A0F4D)"/>
</svg>
