<svg preserveAspectRatio="none" width="100%" height="100%" overflow="visible" style="display: block;" viewBox="0 0 204.984 350.075" fill="none" xmlns="http://www.w3.org/2000/svg">
<path id="Vector" d="M102.378 350.075C34.126 350.075 0 314.656 0 243.819V106.257C0 73.9606 9.06473 48.2153 27.1941 29.0206C45.3235 9.67354 70.3847 0 102.378 0C134.523 0 159.66 9.67354 177.79 29.0206C195.919 48.2153 204.984 73.9606 204.984 106.257V243.819C204.984 314.656 170.782 350.075 102.378 350.075ZM102.378 287.007C109.233 287.007 114.109 284.569 117.003 279.695C120.05 274.667 121.574 268.345 121.574 260.728V93.2315C121.574 73.2751 115.175 63.2969 102.378 63.2969C89.5806 63.2969 83.1819 73.2751 83.1819 93.2315V260.728C83.1819 268.345 84.6292 274.667 87.5238 279.695C90.5707 284.569 95.5221 287.007 102.378 287.007Z" fill="var(--fill-0, #1A0F4D)"/>
</svg>
