<svg preserveAspectRatio="none" width="100%" height="100%" overflow="visible" style="display: block;" viewBox="0 0 201.556 346.419" fill="none" xmlns="http://www.w3.org/2000/svg">
<path id="Vector" d="M66.9569 346.419C48.6751 346.419 34.6591 342.611 24.9089 334.994C15.311 327.377 8.76001 316.789 5.25601 303.231C1.75201 289.52 0 273.525 0 255.244V0H82.2678V245.647C82.2678 259.357 83.3343 268.955 85.4671 274.439C87.6 279.771 92.6275 282.437 100.55 282.437C109.081 282.437 114.413 278.628 116.546 271.011C118.831 263.394 119.974 253.568 119.974 241.534V0H201.556V342.763H119.745V306.202C114.566 319.303 108.319 329.281 101.007 336.136C93.8463 342.991 82.4963 346.419 66.9569 346.419Z" fill="var(--fill-0, #1A0F4D)"/>
</svg>
