<svg preserveAspectRatio="none" width="100%" height="100%" overflow="visible" style="display: block;" viewBox="0 0 204.527 402.175" fill="none" xmlns="http://www.w3.org/2000/svg">
<path id="Vector" d="M0 402.175V0H84.096V93.46C88.5141 80.6635 95.2935 71.2185 104.434 65.125C113.575 58.8791 124.24 55.7561 136.427 55.7561C160.194 55.7561 177.485 63.2207 188.302 78.15C199.119 93.0792 204.527 113.112 204.527 138.248V402.175H121.802V143.503C121.802 136.039 120.202 129.945 117.003 125.223C113.956 120.5 109.081 118.139 102.378 118.139C96.7408 118.139 92.2466 120.576 88.8949 125.451C85.6956 130.326 84.096 136.115 84.096 142.818V402.175H0Z" fill="var(--fill-0, #1A0F4D)"/>
</svg>
