<svg width="32" height="32" viewBox="0 0 32 32" fill="none" xmlns="http://www.w3.org/2000/svg" aria-hidden="true">
  <defs>
    <linearGradient id="sys-a" x1="4" y1="8" x2="28" y2="22" gradientUnits="userSpaceOnUse">
      <stop stop-color="#4ADED7"/>
      <stop offset="1" stop-color="#523EE7"/>
    </linearGradient>
    <linearGradient id="sys-b" x1="4" y1="12" x2="28" y2="26" gradientUnits="userSpaceOnUse">
      <stop stop-color="#FA99DB"/>
      <stop offset="1" stop-color="#523EE7"/>
    </linearGradient>
    <linearGradient id="sys-c" x1="4" y1="4" x2="28" y2="16" gradientUnits="userSpaceOnUse">
      <stop stop-color="#FDF500"/>
      <stop offset="0.6" stop-color="#4ADED7"/>
    </linearGradient>
  </defs>
  <!-- Stacked crystalline planes -->
  <path d="M4.5 22.5L16 28.2L27.5 22.5L16 16.8L4.5 22.5Z" fill="url(#sys-b)" fill-opacity="0.75"/>
  <path d="M4.5 22.5L16 28.2L16 16.8L4.5 22.5Z" fill="#311C95" fill-opacity="0.35"/>
  <path d="M4.5 16.2L16 21.9L27.5 16.2L16 10.5L4.5 16.2Z" fill="url(#sys-a)" fill-opacity="0.85"/>
  <path d="M4.5 16.2L16 21.9L16 10.5L4.5 16.2Z" fill="#523EE7" fill-opacity="0.4"/>
  <path d="M4.5 9.8L16 15.5L27.5 9.8L16 4L4.5 9.8Z" fill="url(#sys-c)" fill-opacity="0.9"/>
  <path d="M4.5 9.8L16 15.5L16 4L4.5 9.8Z" fill="#4ADED7" fill-opacity="0.45"/>
  <path d="M4.5 9.8L16 15.5L27.5 9.8L16 4L4.5 9.8Z" stroke="#ffffff" stroke-opacity="0.35" stroke-width="0.6" stroke-linejoin="round"/>
</svg>
