<svg width="178" height="47" viewBox="0 0 178 47" fill="none" xmlns="http://www.w3.org/2000/svg">
<g clip-path="url(#clip0_logo_inverse)">
<path d="M29.0162 10.3527C32.3064 10.3527 35.1071 11.0088 37.4181 12.321C39.7291 13.6332 41.5015 15.4741 42.7354 17.8439C43.9692 20.2137 44.5862 22.9849 44.5862 26.1577V45.1942H29.6625V28.2729C29.6625 26.3927 29.1435 24.9434 28.1055 23.925C27.0675 22.9066 25.6084 22.3974 23.7283 22.3974C22.3965 22.3974 21.2508 22.6618 20.2911 23.1906C19.3314 23.7194 18.597 24.4832 18.0878 25.482C17.5786 26.4809 17.324 27.6853 17.324 29.0954L12.9174 26.8628C13.4658 23.1808 14.5234 20.1158 16.0901 17.6677C17.6569 15.2195 19.5567 13.3883 21.7893 12.1741C24.022 10.9598 26.431 10.3527 29.0162 10.3527Z" fill="#F0F1F3"/>
<path d="M62.0168 46.1931C58.844 46.1931 56.1217 45.537 53.8499 44.2248C51.578 42.9126 49.8448 41.0716 48.6501 38.7018C47.4554 36.3321 46.8581 33.5804 46.8581 30.4468V11.4103H61.7818V28.3316C61.7818 30.1726 62.2616 31.6023 63.2212 32.6207C64.1809 33.6391 65.5421 34.1484 67.3047 34.1484C68.6756 34.1484 69.8018 33.9035 70.6831 33.4139C71.5644 32.9243 72.2303 32.1801 72.6808 31.1812C73.1312 30.1824 73.3564 28.9583 73.3564 27.5091L77.763 29.7418C77.2538 33.3845 76.2256 36.43 74.6784 38.8781C73.1312 41.3262 71.2706 43.1574 69.0967 44.3717C66.9228 45.5859 64.5628 46.1931 62.0168 46.1931ZM75.7066 45.1942L73.3564 30.7993V11.4103H88.2801V33.0908L90.6303 45.1942H75.7066Z" fill="#F0F1F3"/>
<path d="M90.552 11.4103H105.476L107.826 25.8052V45.1942H92.9022V23.5137L90.552 11.4103ZM118.93 10.3527C122.103 10.3527 124.806 11.0088 127.039 12.321C129.271 13.6332 130.975 15.4741 132.15 17.8439C133.325 20.2137 133.913 22.9849 133.913 26.1577V45.1942H118.989V28.2729C118.989 26.3927 118.529 24.9434 117.609 23.925C116.688 22.9066 115.366 22.3974 113.643 22.3974C112.428 22.3974 111.381 22.6618 110.499 23.1906C109.618 23.7194 108.952 24.4832 108.502 25.482C108.051 26.4809 107.826 27.6853 107.826 29.0954L103.419 26.8628C103.968 23.1808 104.996 20.1158 106.504 17.6677C108.012 15.2195 109.843 13.3883 111.997 12.1741C114.152 10.9598 116.463 10.3527 118.93 10.3527ZM144.959 10.3527C148.132 10.3527 150.844 11.0088 153.096 12.321C155.349 13.6332 157.062 15.4741 158.237 17.8439C159.412 20.2137 160 22.9849 160 26.1577V45.1942H145.076V28.2729C145.076 26.3927 144.616 24.9434 143.696 23.925C142.775 22.9066 141.453 22.3974 139.73 22.3974C138.515 22.3974 137.468 22.6618 136.586 23.1906C135.705 23.7194 135.039 24.4832 134.589 25.482C134.138 26.4809 133.913 27.6853 133.913 29.0954L129.506 26.8628C130.055 23.1808 131.073 20.1158 132.562 17.6677C134.05 15.2195 135.871 13.3883 138.026 12.1741C140.18 10.9598 142.491 10.3527 144.959 10.3527Z" fill="#F0F1F3"/>
<path d="M0 0H14.9237L17.2739 12.0447V45.2411H2.35019V12.1035L0 0Z" fill="#F0F1F3"/>
<circle cx="170" cy="12" r="8" fill="#FAB3E3"/>
</g>
<defs>
<clipPath id="clip0_logo_inverse">
<rect width="178" height="47" fill="white"/>
</clipPath>
</defs>
</svg>
