<svg width="93" height="17" viewBox="0 0 93 17" fill="none" xmlns="http://www.w3.org/2000/svg">
<g clip-path="url(#clip0_741_16)">
<mask id="mask0_741_16" style="mask-type:luminance" maskUnits="userSpaceOnUse" x="0" y="0" width="93" height="17">
<path d="M93 0H0V16.0569H93V0Z" fill="white"/>
</mask>
<g mask="url(#mask0_741_16)">
<path fill-rule="evenodd" clip-rule="evenodd" d="M6.60424 11.2814L2.37476 13.3153L5.06204 14.7216L9.4652 12.4371L6.60424 11.2814ZM9.54268 12.3294V7.15958L6.66799 5.98047V11.1681L9.54268 12.3294Z" fill="#523EE7"/>
<path fill-rule="evenodd" clip-rule="evenodd" d="M4.51538 4.62136L4.50457 4.61708V4.61888L1.67808 3.45537L6.11058 1.15576L8.79786 2.56194L4.51538 4.62136ZM1.62988 3.57497V8.61645L4.50457 9.84713V4.75835L1.62988 3.57497Z" fill="#523EE7"/>
<path d="M26.3535 2.48261C25.9822 2.48261 25.6713 2.36654 25.4204 2.13443C25.1798 1.89224 25.0593 1.59452 25.0593 1.2413C25.0593 0.888087 25.1798 0.595419 25.4204 0.363308C25.6713 0.121102 25.9822 0 26.3535 0C26.7247 0 27.0307 0.121102 27.2716 0.363308C27.5223 0.595419 27.6478 0.888087 27.6478 1.2413C27.6478 1.59452 27.5223 1.89224 27.2716 2.13443C27.0307 2.36654 26.7247 2.48261 26.3535 2.48261ZM27.392 3.48171V11.8681H25.285V3.48171H27.392Z" fill="#523EE7"/>
<path d="M14.5439 7.64461C14.5439 6.7969 14.7095 6.04506 15.0406 5.38905C15.3817 4.73309 15.8382 4.2285 16.4101 3.87529C16.9919 3.52206 17.639 3.34546 18.3513 3.34546C18.9734 3.34546 19.5152 3.47162 19.9768 3.72392C20.4481 3.9762 20.8245 4.29412 21.1054 4.67758V3.4817H23.2272V11.8681H21.1054V10.6419C20.8346 11.0355 20.4582 11.3635 19.9768 11.6258C19.5052 11.8781 18.9584 12.0043 18.3364 12.0043C17.634 12.0043 16.9919 11.8226 16.4101 11.4593C15.8382 11.0961 15.3817 10.5864 15.0406 9.93042C14.7095 9.26438 14.5439 8.5024 14.5439 7.64461ZM21.1054 7.67491C21.1054 7.16017 21.0051 6.72119 20.8044 6.35786C20.6038 5.98451 20.3328 5.7019 19.9916 5.51015C19.6507 5.30832 19.2844 5.20742 18.8932 5.20742C18.5019 5.20742 18.1407 5.30331 17.8096 5.49505C17.4786 5.6868 17.2076 5.96935 16.9969 6.34277C16.7963 6.70604 16.696 7.14 16.696 7.64461C16.696 8.14921 16.7963 8.59326 16.9969 8.97675C17.2076 9.35017 17.4786 9.63779 17.8096 9.83967C18.1507 10.0414 18.512 10.1423 18.8932 10.1423C19.2844 10.1423 19.6507 10.0464 19.9916 9.85477C20.3328 9.65289 20.6038 9.37028 20.8044 9.00701C21.0051 8.6336 21.1054 8.18955 21.1054 7.67491Z" fill="#523EE7"/>
<path d="M84.2544 7.82498C84.2544 6.97727 84.42 6.22538 84.7507 5.56947C85.0919 4.91347 85.5538 4.40886 86.1353 4.05565C86.7173 3.70244 87.3647 3.52584 88.0768 3.52584C88.6186 3.52584 89.1353 3.64693 89.627 3.88914C90.1186 4.12125 90.5099 4.4341 90.8004 4.82769V0.846436H92.9379V12.0484H90.8004V10.8071C90.5397 11.2209 90.1735 11.5539 89.7022 11.8062C89.2304 12.0586 88.6839 12.1847 88.0616 12.1847C87.3594 12.1847 86.7173 12.0031 86.1353 11.6397C85.5538 11.2764 85.0919 10.7668 84.7507 10.1107C84.42 9.44475 84.2544 8.68277 84.2544 7.82498ZM90.8156 7.85523C90.8156 7.34059 90.7153 6.90156 90.5147 6.53823C90.314 6.16488 90.0434 5.88227 89.7022 5.69052C89.361 5.48869 88.9948 5.3878 88.6035 5.3878C88.2121 5.3878 87.8511 5.48368 87.5198 5.67542C87.1891 5.86717 86.918 6.14972 86.7074 6.52313C86.5068 6.88641 86.4065 7.32037 86.4065 7.82498C86.4065 8.32958 86.5068 8.77363 86.7074 9.15712C86.918 9.53048 87.1891 9.8181 87.5198 10.02C87.861 10.2218 88.222 10.3228 88.6035 10.3228C88.9948 10.3228 89.361 10.2269 89.7022 10.0351C90.0434 9.83325 90.314 9.5507 90.5147 9.18738C90.7153 8.81396 90.8156 8.36992 90.8156 7.85523Z" fill="#523EE7"/>
<path d="M83.2579 7.67341C83.2579 7.97618 83.2381 8.24865 83.1979 8.49087H77.1032C77.1534 9.09636 77.3639 9.57066 77.7354 9.91382C78.1064 10.2569 78.563 10.4285 79.1048 10.4285C79.8875 10.4285 80.4439 10.0904 80.7752 9.41429H83.0474C82.8065 10.2216 82.3452 10.8876 81.6628 11.4125C80.981 11.9272 80.143 12.1845 79.1497 12.1845C78.3472 12.1845 77.6246 12.0079 76.9831 11.6546C76.3509 11.2914 75.854 10.7817 75.493 10.1257C75.1419 9.46977 74.9663 8.71287 74.9663 7.85507C74.9663 6.98714 75.1419 6.22522 75.493 5.56926C75.8441 4.91328 76.3357 4.40868 76.9679 4.05546C77.5996 3.70225 78.3274 3.52563 79.1497 3.52563C79.9423 3.52563 80.6498 3.6972 81.2715 4.04033C81.9037 4.38346 82.3901 4.87292 82.7313 5.5087C83.0824 6.13442 83.2579 6.85595 83.2579 7.67341ZM81.0761 7.06792C81.0662 6.52293 80.8702 6.08896 80.4894 5.76602C80.108 5.433 79.6414 5.26648 79.0897 5.26648C78.5677 5.26648 78.1267 5.42798 77.7652 5.75092C77.4141 6.06378 77.1983 6.50276 77.1184 7.06792H81.0761Z" fill="#523EE7"/>
<path d="M71.5307 4.96397C71.8018 4.51993 72.1529 4.17178 72.5845 3.91948C73.0255 3.66717 73.527 3.54102 74.0892 3.54102V5.76625H73.5323C72.8703 5.76625 72.3687 5.92268 72.0275 6.23554C71.6963 6.5484 71.5307 7.09333 71.5307 7.87046V12.0485H69.4241V3.66213H71.5307V4.96397Z" fill="#523EE7"/>
<path d="M58.6829 7.82477C58.6829 6.97706 58.8485 6.22522 59.1792 5.56926C59.5204 4.91328 59.977 4.40868 60.5486 4.05546C61.1306 3.70225 61.778 3.52563 62.4901 3.52563C63.1124 3.52563 63.6537 3.65179 64.1155 3.90409C64.5868 4.15639 64.963 4.47429 65.2441 4.85777V3.66187H67.3658V12.0483H65.2441V10.8221C64.9729 11.2156 64.5967 11.5436 64.1155 11.806C63.6437 12.0584 63.0972 12.1845 62.475 12.1845C61.7728 12.1845 61.1306 12.0029 60.5486 11.6395C59.977 11.2762 59.5204 10.7666 59.1792 10.1106C58.8485 9.44454 58.6829 8.68261 58.6829 7.82477ZM65.2441 7.85507C65.2441 7.34038 65.1438 6.9014 64.9431 6.53808C64.7425 6.16467 64.4719 5.88211 64.1307 5.69037C63.7895 5.48854 63.4232 5.38759 63.0319 5.38759C62.6406 5.38759 62.2796 5.48347 61.9483 5.67521C61.6171 5.86696 61.3464 6.14957 61.1359 6.52293C60.9352 6.88625 60.8344 7.32022 60.8344 7.82477C60.8344 8.32937 60.9352 8.77342 61.1359 9.15691C61.3464 9.53033 61.6171 9.81795 61.9483 10.0198C62.2895 10.2216 62.6505 10.3225 63.0319 10.3225C63.4232 10.3225 63.7895 10.2267 64.1307 10.0349C64.4719 9.83305 64.7425 9.55055 64.9431 9.18717C65.1438 8.81381 65.2441 8.36976 65.2441 7.85507Z" fill="#523EE7"/>
<path d="M57.1459 3.66187V12.0482H55.0241V10.9886C54.7529 11.3519 54.3966 11.6395 53.9556 11.8514C53.5241 12.0532 53.0523 12.1541 52.5408 12.1541C51.8886 12.1541 51.3117 12.018 50.8101 11.7455C50.3084 11.4628 49.9122 11.0542 49.6213 10.5193C49.3403 9.97432 49.2 9.3285 49.2 8.58167V3.66187H51.3067V8.2789C51.3067 8.94495 51.4722 9.45964 51.8034 9.82291C52.1345 10.1762 52.5857 10.3528 53.1578 10.3528C53.7393 10.3528 54.196 10.1762 54.5272 9.82291C54.8585 9.45964 55.0241 8.94495 55.0241 8.2789V3.66187H57.1459Z" fill="#523EE7"/>
<path d="M38.5342 7.84015C38.5342 7.00253 38.7047 6.26077 39.0459 5.61489C39.397 4.95893 39.8685 4.4493 40.4605 4.08599C41.0522 3.72266 41.7045 3.54102 42.4167 3.54102C43.0088 3.54102 43.5305 3.65708 43.9819 3.88919C44.4433 4.11122 44.8147 4.39884 45.0955 4.75205V3.66212H47.2173V16.0449H45.0955V10.898C44.8147 11.2614 44.4385 11.5641 43.9669 11.8062C43.4953 12.0485 42.9637 12.1696 42.3716 12.1696C41.6693 12.1696 41.0223 11.988 40.4303 11.6246C39.8486 11.2512 39.387 10.7365 39.0459 10.0806C38.7047 9.4246 38.5342 8.67778 38.5342 7.84015ZM45.0955 7.85531C45.0955 7.34062 44.9902 6.89657 44.7796 6.52316C44.5688 6.14975 44.2929 5.8672 43.9518 5.67545C43.6207 5.4837 43.2645 5.38783 42.8833 5.38783C42.5122 5.38783 42.156 5.4837 41.8148 5.67545C41.4838 5.8672 41.213 6.14975 41.0021 6.52316C40.7915 6.88649 40.6862 7.32547 40.6862 7.84015C40.6862 8.35484 40.7915 8.80396 41.0021 9.18745C41.213 9.56086 41.4838 9.84342 41.8148 10.0352C42.156 10.2269 42.5122 10.3228 42.8833 10.3228C43.2645 10.3228 43.6207 10.2269 43.9518 10.0352C44.2929 9.84342 44.5688 9.56086 44.7796 9.18745C44.9902 8.81404 45.0955 8.36999 45.0955 7.85531Z" fill="#523EE7"/>
<path d="M34.0658 12.1845C33.3836 12.1845 32.7716 12.0634 32.2297 11.8212C31.6881 11.5689 31.2565 11.2308 30.9355 10.807C30.6246 10.3831 30.4541 9.91382 30.4238 9.39913H32.5458C32.5859 9.72207 32.7414 9.98947 33.0122 10.2014C33.2933 10.4134 33.6393 10.5193 34.0507 10.5193C34.452 10.5193 34.7631 10.4386 34.9838 10.2771C35.2146 10.1157 35.33 9.9087 35.33 9.65645C35.33 9.38403 35.1895 9.18215 34.9085 9.05096C34.6377 8.90968 34.2011 8.75827 33.5992 8.59683C32.9773 8.44541 32.4655 8.28904 32.0642 8.12754C31.6729 7.9661 31.3318 7.71881 31.0409 7.38579C30.76 7.05276 30.6195 6.60365 30.6195 6.03854C30.6195 5.57433 30.7499 5.15044 31.0109 4.76694C31.2817 4.38346 31.6629 4.0807 32.1546 3.85868C32.6562 3.63666 33.243 3.52563 33.9153 3.52563C34.9085 3.52563 35.7011 3.77794 36.2931 4.28252C36.8849 4.77705 37.2109 5.44815 37.2712 6.29586H35.2546C35.2245 5.96284 35.0841 5.70045 34.8332 5.5087C34.5926 5.30687 34.2663 5.20594 33.8552 5.20594C33.4738 5.20594 33.178 5.27657 32.9671 5.41785C32.7665 5.55917 32.6663 5.75594 32.6663 6.00824C32.6663 6.29084 32.8066 6.50783 33.0876 6.65919C33.3684 6.80046 33.8048 6.94681 34.3968 7.09817C34.9988 7.24953 35.4955 7.40596 35.8868 7.56745C36.278 7.7289 36.6141 7.9812 36.895 8.32436C37.186 8.65738 37.3364 9.10143 37.3465 9.65645C37.3465 10.1408 37.2109 10.5749 36.9401 10.9583C36.6793 11.3418 36.2979 11.6445 35.7964 11.8666C35.3048 12.0785 34.7279 12.1845 34.0658 12.1845Z" fill="#523EE7"/>
</g>
</g>
<defs>
<clipPath id="clip0_741_16">
<rect width="93" height="16.1966" fill="white"/>
</clipPath>
</defs>
</svg>
