<svg width="45" height="24" viewBox="0 0 45 24" fill="none" xmlns="http://www.w3.org/2000/svg">
<path fill-rule="evenodd" clip-rule="evenodd" d="M22.1117 6.05405C22.0688 5.54372 21.0783 4.16531 20.7845 3.776C20.3002 3.13416 19.5981 2.48894 18.919 2.03158C18.2022 1.54871 17.4144 1.11918 16.5506 0.785109C16.148 0.629429 15.6005 0.433749 15.1597 0.345835C15.0429 0.322685 13.7178 0.0423872 13.6907 0.0253173H20.3191H23.654C24.5493 0.0253173 26.1367 -0.0568085 26.8976 0.0747687C29.7676 0.571479 32.9242 3.81937 34.118 6.05405H22.1117ZM18.9433 1.22278H20.736C20.5698 0.976843 19.8228 0.507971 19.4914 0.3909C19.0044 0.218517 18.1138 0.314196 17.4843 0.314196C17.5658 0.384453 18.1091 0.498081 18.3272 0.635592C18.623 0.821896 18.7368 1.08571 18.9433 1.22278ZM26.2387 1.3055H27.9898C27.8179 1.05106 27.2733 0.76959 26.9482 0.64402C26.5456 0.488633 25.8165 0.562261 25.28 0.562261C25.5388 0.740359 26.134 0.916552 26.2387 1.3055ZM21.6949 3.32876H23.2373C23.2172 3.08898 22.6091 2.46318 22.4063 2.37622C22.1669 2.27336 21.031 2.33761 20.6528 2.33761C20.8518 2.50912 20.9729 2.54824 21.2057 2.78099C21.3292 2.90443 21.5642 3.32876 21.6949 3.32876ZM28.8236 3.20468H30.4493C30.387 2.97296 29.7123 2.62907 29.4549 2.53808C29.0612 2.39874 28.3509 2.46145 27.8231 2.46145C28.0004 2.58357 28.1573 2.64094 28.365 2.79178C28.4612 2.86145 28.7326 3.20468 28.8236 3.20468ZM23.1539 5.5583H25.2383L25.2686 5.52943L24.2263 4.45608L24.196 4.4848H22.3618C22.6337 4.85228 22.9824 4.82986 23.1539 5.5583ZM31.1162 5.51718H32.9088C32.7952 5.34897 32.0523 4.52617 31.8666 4.52617H30.2407C30.2936 4.67064 30.981 4.94215 31.1162 5.51718Z" fill="#523EE7"/>
<mask id="mask0_736_1240" style="mask-type:luminance" maskUnits="userSpaceOnUse" x="0" y="0" width="45" height="24">
<path fill-rule="evenodd" clip-rule="evenodd" d="M0 24H44.1143V0H0V24Z" fill="white"/>
</mask>
<g mask="url(#mask0_736_1240)">
<path fill-rule="evenodd" clip-rule="evenodd" d="M23.9043 8.21618H24.9909V7.35132H23.9043V8.21618Z" fill="#523EE7"/>
<path fill-rule="evenodd" clip-rule="evenodd" d="M29.1199 11.3776H30.1492V11.0089C30.4266 11.203 30.4205 11.4595 31.05 11.4595H31.2215C31.9082 11.4595 32.3795 10.7761 32.3795 10.1075V9.9438C32.3795 9.22283 31.88 8.55085 31.1357 8.55085H31.0929C30.6554 8.55085 30.5311 8.71672 30.2779 8.87859V7.56763H29.1199V11.3776ZM30.621 9.41118H30.8784C31.0352 9.41118 31.2215 9.69458 31.2215 9.86168V10.1074C31.2215 10.3908 31.0254 10.6811 30.7497 10.6811C30.0458 10.6811 30.1548 9.41118 30.621 9.41118Z" fill="#523EE7"/>
<path fill-rule="evenodd" clip-rule="evenodd" d="M13.4734 9.38418C13.4734 10.5645 14.1904 11.4594 15.324 11.4594H15.7026C16.6033 11.4594 17.3657 10.7289 17.385 9.85007H16.1653C16.1329 10.2421 15.9576 10.5276 15.5344 10.5276H15.4923C14.4033 10.5276 14.5574 8.32533 15.4082 8.32533H15.6184C15.9857 8.32533 16.0951 8.65664 16.1653 8.9606H17.3429V8.74884C17.3429 7.98373 16.3682 7.35132 15.4923 7.35132H15.324C14.2603 7.35132 13.4734 8.2707 13.4734 9.38418Z" fill="#523EE7"/>
<path fill-rule="evenodd" clip-rule="evenodd" d="M22.4718 9.04352V8.5139H21.5139V11.2432H22.5517V10.5099C22.5517 10.0486 22.6784 9.4101 23.1516 9.48461L23.4697 9.53224V8.43237H23.31C22.6563 8.43237 22.7186 8.75363 22.4718 9.04352Z" fill="#523EE7"/>
<path fill-rule="evenodd" clip-rule="evenodd" d="M32.5967 10.0524C32.5967 10.8932 33.3086 11.4594 34.143 11.4594H34.2266C34.8985 11.4594 35.6821 11.1222 35.7311 10.5214H34.7698C34.5925 10.5214 34.5964 10.7773 34.3102 10.7773C33.8155 10.7773 33.5415 10.1804 33.8087 10.1804H35.8564C35.8564 9.13992 35.2136 8.43237 34.1847 8.43237H34.143C33.2008 8.43237 32.5967 9.07881 32.5967 10.0524ZM33.7251 9.62612C33.7251 9.31727 33.9117 9.1144 34.1847 9.1144H34.2684C34.5154 9.1144 34.7225 9.3672 34.7282 9.62612H33.7251Z" fill="#523EE7"/>
<path fill-rule="evenodd" clip-rule="evenodd" d="M40.81 8.88048V8.5139H39.7681V11.2432H40.8934V9.65449C40.8934 9.45313 41.0625 9.2879 41.2685 9.2879H41.3517C41.6161 9.2879 41.7269 9.5207 41.7269 9.77671V11.2432H42.8104V9.45081C42.8104 8.79932 42.4031 8.43237 41.7269 8.43237C41.1462 8.43237 41.1156 8.68035 40.81 8.88048Z" fill="#523EE7"/>
<path fill-rule="evenodd" clip-rule="evenodd" d="M23.9043 11.4595H24.9909V8.64868H23.9043V11.4595Z" fill="#523EE7"/>
<path fill-rule="evenodd" clip-rule="evenodd" d="M36.2409 9.37035H37.3274C37.3572 9.25666 37.4448 9.11438 37.5782 9.11438H37.8707C37.9682 9.11438 38.0796 9.22829 38.0796 9.32777V9.37035C38.0796 9.79857 36.0737 9.44199 36.0737 10.4788C36.0737 11.0407 36.4346 11.4594 36.9513 11.4594H37.1184C37.732 11.4594 37.8062 11.2156 38.1652 11.1179L38.2049 11.3741H39.3334C39.2797 11.1689 39.2084 11.2629 39.2064 10.9496C39.205 10.7651 39.2081 10.5784 39.2081 10.3936C39.2081 10.0255 39.2221 9.61892 39.1762 9.3174C39.0568 8.53298 38.694 8.43237 37.8289 8.43237H37.7036C36.9255 8.43237 36.3007 8.63684 36.2409 9.37035ZM37.2438 10.5214C37.2438 10.2777 37.8411 10.158 38.0796 10.1377V10.3509C38.0796 10.574 37.8928 10.8198 37.6618 10.8198H37.5363C37.3955 10.8198 37.2438 10.7445 37.2438 10.6066V10.5214Z" fill="#523EE7"/>
<path fill-rule="evenodd" clip-rule="evenodd" d="M17.9888 9.24242V9.37033H19.0894C19.1045 9.18902 19.1956 9.11443 19.3858 9.11443H19.5551C19.7263 9.11443 19.8515 9.2074 19.8515 9.37033C19.8515 9.80088 17.8196 9.43553 17.8196 10.4362V10.6919C17.8196 11.218 18.3035 11.4594 18.8355 11.4594H18.8779C19.4334 11.4594 19.5731 11.2919 19.8902 11.0764L19.9361 11.3741H21.0793C20.9649 10.9431 20.9522 11.047 20.9522 10.4362C20.9522 10.0929 20.9757 9.65936 20.9525 9.32736C20.904 8.63086 20.4107 8.43237 19.6821 8.43237H19.4704C18.8015 8.43237 17.9888 8.61959 17.9888 9.24242ZM18.9625 10.5215C18.9625 10.2812 19.6251 10.1483 19.8516 10.0952C19.8516 10.4569 19.7266 10.82 19.3859 10.82C19.2105 10.82 18.9625 10.7825 18.9625 10.6067V10.5215Z" fill="#523EE7"/>
<path fill-rule="evenodd" clip-rule="evenodd" d="M25.6428 7.69047V11.3776H26.6723V11.0089C26.9868 11.2101 26.9948 11.4595 27.573 11.4595H27.7874C28.4936 11.4595 28.9025 10.7192 28.9025 9.9848V9.9438C28.9025 9.23039 28.4082 8.55085 27.6587 8.55085H27.6158C27.1637 8.55085 27.0538 8.71679 26.8009 8.87859V7.56763H25.7715C25.6728 7.56763 25.6428 7.59619 25.6428 7.69047ZM27.2298 10.6811C26.643 10.6811 26.5991 9.41118 27.1868 9.41118H27.4014C27.5582 9.41118 27.7444 9.69458 27.7444 9.86168V10.1485C27.7444 10.446 27.5333 10.6811 27.2298 10.6811Z" fill="#523EE7"/>
<path fill-rule="evenodd" clip-rule="evenodd" d="M23.4697 12.7568H24.5563V12.1082H23.4697V12.7568Z" fill="#523EE7"/>
<path fill-rule="evenodd" clip-rule="evenodd" d="M20.3988 13.9777C20.3988 13.4947 20.6322 13.0429 21.1217 13.0429H21.2492C21.7865 13.0429 21.7443 13.6802 21.9295 13.6802H23.0349V13.5527C23.0349 13.1854 22.6935 12.6903 22.4714 12.5013C22.1975 12.2684 21.7849 12.1082 21.2917 12.1082H20.739C19.9297 12.1082 19.1233 13.0798 19.1233 13.9351V14.3176C19.1233 16.8193 23.0349 16.7764 23.0349 14.6149H21.8445C21.8208 14.8986 21.5929 15.2523 21.2917 15.2523H20.9942C20.6711 15.2523 20.3988 14.7868 20.3988 14.4449V13.9777Z" fill="#523EE7"/>
<path fill-rule="evenodd" clip-rule="evenodd" d="M42.379 13.9994C42.379 13.8683 42.4972 13.8287 42.6211 13.8287H42.7422C42.9338 13.8287 42.9882 13.9189 43.0247 14.0845H43.9933C43.8383 13.7432 43.9382 13.597 43.5369 13.373C43.2906 13.2356 42.9783 13.1892 42.6211 13.1892C41.9755 13.1892 41.37 13.4409 41.37 14.1271V14.2125C41.37 15.1614 43.0247 14.9347 43.0247 15.321V15.3636C43.0247 15.5017 42.8493 15.6194 42.7018 15.6194H42.6614C42.4616 15.6194 42.314 15.4774 42.2983 15.2783H41.2893C41.3025 15.9004 41.8887 16.2162 42.5 16.2162H42.7018C43.3989 16.2162 44.1144 15.9373 44.1144 15.2356C44.1144 14.1799 42.379 14.4233 42.379 13.9994Z" fill="#523EE7"/>
<path fill-rule="evenodd" clip-rule="evenodd" d="M23.4697 16.2161H24.5563V13.4053H23.4697V16.2161Z" fill="#523EE7"/>
<path fill-rule="evenodd" clip-rule="evenodd" d="M26.3336 14.4113C26.3336 14.21 26.5027 14.0446 26.7086 14.0446H26.7921C27.0563 14.0446 27.1671 14.2775 27.1671 14.5335V16H28.2506V14.2484C28.2506 13.5875 27.8751 13.1892 27.2088 13.1892C26.5671 13.1892 26.5422 13.4597 26.2086 13.6781V13.2708H25.2083V16H26.3336V14.4113Z" fill="#523EE7"/>
<path fill-rule="evenodd" clip-rule="evenodd" d="M33.451 14.5335C33.451 14.2776 33.5605 14.0446 33.8219 14.0446H33.8632C34.157 14.0446 34.2339 14.2813 34.2339 14.5742V16H35.3056V14.6557C35.3056 14.3274 35.3773 14.0446 35.7178 14.0446C36.0674 14.0446 36.0886 14.3213 36.0886 14.6557V16H37.1603V14.0855C37.1603 13.4959 36.7065 13.1892 36.0886 13.1892C35.532 13.1892 35.4394 13.4805 35.1407 13.6781C34.9893 13.3953 34.7539 13.1892 34.3165 13.1892H34.2339C33.7772 13.1892 33.6155 13.4738 33.3685 13.6375V13.2708H32.3794V16H33.451V14.5335Z" fill="#523EE7"/>
<path fill-rule="evenodd" clip-rule="evenodd" d="M30.2939 15.534C30.0218 15.534 29.792 15.2178 29.786 14.9372H31.945V14.6814C31.945 13.8238 31.1906 13.1892 30.2939 13.1892C29.4485 13.1892 28.6853 13.7696 28.6853 14.5962V14.7668C28.6853 15.6522 29.339 16.2162 30.2093 16.2162H30.421C31.1275 16.2162 31.7249 15.8635 31.8602 15.2783H30.8867C30.707 15.2783 30.711 15.534 30.421 15.534H30.2939ZM29.7858 14.383C29.8085 14.1073 30.0099 13.8714 30.2937 13.8714H30.3362C30.6075 13.8714 30.8223 14.1186 30.8441 14.383H29.7858Z" fill="#523EE7"/>
<path fill-rule="evenodd" clip-rule="evenodd" d="M38.7233 14.1699C38.9405 14.1699 38.7553 13.8713 39.1412 13.8713H39.3084C39.5034 13.8713 39.6009 13.9708 39.6009 14.1699C39.6009 14.5064 37.595 14.2521 37.595 15.1931V15.4488C37.595 15.9249 38.0383 16.2162 38.5144 16.2162H38.7233C39.1688 16.2162 39.6121 15.8139 39.6751 15.9658C39.7814 16.2227 39.8167 16.1314 40.1859 16.131C40.4088 16.1308 40.6317 16.131 40.8546 16.131C40.1049 14.989 41.746 13.1892 39.2666 13.1892C38.4807 13.1892 37.7621 13.3692 37.7621 14.1699H38.7233ZM38.7233 15.2783C38.7233 15.0497 39.3854 14.9128 39.6009 14.8947C39.6009 15.2404 39.5126 15.5767 39.183 15.5767H39.0157C38.875 15.5767 38.7233 15.5014 38.7233 15.3636V15.2783Z" fill="#523EE7"/>
<path fill-rule="evenodd" clip-rule="evenodd" d="M14.3428 23.9606H20.8231H24.0423C24.9481 23.9606 26.4222 24.0505 27.259 23.9582C27.8428 23.8937 29.0435 23.277 29.547 23.0278C30.3506 22.63 30.7929 22.2111 31.4585 21.7209C32.108 21.2427 32.5333 20.6987 33.0197 20.0648C33.5874 19.325 33.7155 18.784 34.1181 17.9458H22.0773C21.4777 19.0779 19.9334 20.8888 18.9726 21.6943C18.0339 22.4814 15.9821 23.9188 14.3428 23.9188V23.9606ZM22.5787 19.3662C22.6412 19.1328 23.193 18.8181 23.2058 18.2384H25.0455C24.945 18.6695 24.7709 19.3662 24.2931 19.3662H22.5787ZM31.1077 18.3218H33.24C33.24 18.7224 32.8159 19.2023 32.571 19.3661H30.4805C30.615 19.1656 31.1077 18.8976 31.1077 18.4889V18.3218ZM20.4885 21.6633C20.6583 21.4098 21.4966 21.0645 21.5337 20.6191H23.4569C23.4485 20.9904 22.7965 21.5591 22.4799 21.6481C22.2828 21.7036 20.8147 21.6633 20.4885 21.6633ZM30.4389 21.8305H28.2231C28.4046 21.5828 29.0267 21.2171 29.0591 20.828H31.3588C31.2551 21.272 30.7758 21.6051 30.4389 21.8305ZM24.8365 23.6684C24.9427 23.5762 25.3494 23.4514 25.5395 23.3264C25.6888 23.2282 26.0589 22.9165 26.2162 22.9165H28.2648C28.2294 23.3409 27.4365 23.6705 26.9268 23.6684C26.2305 23.6658 25.5332 23.6684 24.8365 23.6684ZM17.5619 23.5431C17.6732 23.4657 17.9865 23.3882 18.1428 23.3298C18.3245 23.2622 18.564 23.0001 18.6489 23.0001H20.7393C20.6707 23.824 18.4795 23.5431 17.5619 23.5431Z" fill="#523EE7"/>
<path fill-rule="evenodd" clip-rule="evenodd" d="M10.9411 12.2331C10.9411 10.9586 11.2476 9.74884 11.5679 8.77965C11.9532 7.61351 12.3323 7.0287 13.0019 6.13781C13.5531 5.4047 14.2479 4.59528 14.8884 3.95103C15.2371 3.60067 15.5556 3.28091 15.9039 2.93039C16.1438 2.68908 16.8135 2.18759 16.9503 1.98228C16.1764 1.57047 12.7855 0.648682 11.6041 0.648682H10.0293C8.90665 0.648682 6.8085 1.50046 6.00923 1.89881C4.82066 2.49116 3.86977 3.23758 2.97364 4.13875C1.42663 5.69415 0 8.60103 0 11.6915V13.0248C0 14.8414 0.478678 16.194 1.07752 17.4003C1.51276 18.2769 2.68664 19.9667 3.4149 20.509C3.96862 20.9215 4.37366 21.2879 4.97316 21.6924C5.48153 22.0357 6.15872 22.3648 6.76094 22.6033C7.85052 23.0347 9.74538 23.5676 11.2312 23.5676H12.1843C12.9593 23.5676 13.9107 23.4056 14.5308 23.2184C14.9264 23.099 15.1782 23.0366 15.5354 22.895C15.7847 22.7962 16.2456 22.5328 16.4531 22.484C16.3978 22.2755 14.7949 20.8821 14.5155 20.5985C13.8872 19.9611 13.21 19.3463 12.7509 18.539C11.8324 16.9239 10.9411 15.2203 10.9411 12.6916V12.2331ZM12.2673 3.39896C12.2769 2.96497 12.8619 2.50918 13.2051 2.38349C13.425 2.30298 14.7406 2.35717 15.0854 2.35717C14.9019 2.63287 14.3828 2.92409 14.2565 3.39896H12.2673ZM5.76063 3.23219C6.41482 2.24985 7.43714 2.44037 8.99312 2.44037V2.48215C8.35606 2.48215 8.09206 2.97387 7.70849 3.23219H5.76063ZM2.984 5.89925C3.10865 5.42985 3.54889 4.9246 3.92879 4.68225C4.32728 4.42777 5.33549 4.56573 5.92655 4.56573C5.63793 4.81791 5.605 4.74169 5.32079 5.12348C5.21562 5.26484 4.94744 5.7105 4.93178 5.89925H2.984ZM9.9878 5.89926C10.6827 4.57883 10.4408 4.69076 12.3916 4.69076C11.8505 5.16363 11.8272 5.23919 11.4798 5.89926H9.9878ZM8.33024 8.98287C8.7166 7.31509 8.65839 7.64934 10.6509 7.64934C10.2455 8.25825 10.3744 8.20953 10.1952 8.98287H8.33024ZM1.53346 8.73283C1.54272 8.31341 1.81656 7.86323 2.07225 7.69104H3.8543C3.68526 7.94492 3.57318 8.3228 3.564 8.73283H1.53346ZM3.06609 10.7C2.91403 10.9624 2.88485 11.0915 2.85928 11.441C2.84377 11.6524 2.95732 12.2331 2.73522 12.2331H0.994616C0.983886 12.1026 0.953238 12.0851 0.953238 11.9414V11.5664C0.953238 11.1735 1.04922 10.8916 1.28478 10.7398L3.06609 10.7ZM7.91567 11.3996C7.91567 11.1322 8.04157 10.8852 8.20591 10.7747H9.73918L9.59343 11.8557L9.61482 12.233H7.9572C7.93552 12.1396 7.91567 12.1373 7.91567 12.0248V11.3996ZM9.28281 13.9733L9.82212 13.9832C9.78846 14.129 9.73922 14.1236 9.73922 14.2749C9.73922 14.6124 10.0946 15.2697 10.1122 15.4835H8.45452C8.27372 15.4835 8.20595 14.9923 8.20595 14.7751V14.2333C8.20595 14.1207 8.22565 14.1185 8.2477 14.0333L9.28281 13.9733ZM2.77636 13.9315L3.14972 13.9416C3.31655 13.9416 3.35065 14.5308 3.39306 14.6553C3.45891 14.8482 3.56313 15.1749 3.60554 15.3584H1.69921C1.42125 15.3584 1.16724 14.2906 1.16078 13.9923L2.77636 13.9315ZM5.2218 18.3587C4.85006 18.3587 3.41227 18.4182 3.17546 18.3329C2.65614 18.1457 2.60543 17.4895 2.40361 17.0668H4.35154V17.2336C4.35154 17.674 5.05864 18.1136 5.2218 18.3587ZM11.2725 18.5253C10.8079 18.5253 9.79263 18.626 9.50585 18.4264C9.24252 18.2434 8.76568 17.2335 9.11743 17.2335H10.6508C10.6236 17.3517 10.6094 17.3048 10.6094 17.4002C10.6094 17.7444 11.1116 18.2835 11.2725 18.5253ZM7.4184 20.7757C6.86747 20.7757 5.9831 20.8298 5.4723 20.7739C5.16098 20.7398 4.62218 20.0488 4.55883 19.7756H6.34088C6.35072 20.2174 7.14426 20.5361 7.4184 20.7757ZM12.1429 19.8171C12.1429 20.4065 12.7421 20.4932 12.9302 20.7756C12.5465 20.7756 11.6344 20.8492 11.3675 20.7216C11.0537 20.5718 10.6605 20.2513 10.6508 19.8171H12.1429ZM6.67233 21.4839H8.78584C8.83295 22.0523 10.1033 22.2227 10.4022 22.4839C8.46415 22.4839 7.37215 22.8231 6.67233 21.4839ZM12.6817 21.6506H14.0494C14.0788 21.6506 14.477 22.0226 14.6276 22.1108C14.8262 22.2271 15.2393 22.3472 15.3755 22.4423C14.0126 22.4423 13.1238 22.6454 12.6817 21.6506Z" fill="#523EE7"/>
</g>
</svg>
