<svg width="140" height="24" viewBox="0 0 140 24" fill="none" xmlns="http://www.w3.org/2000/svg">
<g clip-path="url(#clip0_737_22)">
<path d="M80.6136 14.9062C80.6136 13.6742 81.339 12.7328 82.6456 12.7328C83.9963 12.7328 84.6616 13.5928 84.6616 14.9062H80.6136ZM87.1456 14.4942C86.7536 12.2462 84.9763 10.9742 82.767 10.9742C79.8656 10.9742 77.9136 12.8315 77.9136 15.7075C77.9136 18.7568 79.6163 20.6742 82.8216 20.6742C84.915 20.6742 86.7163 19.7755 87.1456 17.5648H84.7003C84.4496 18.5435 83.8016 18.9142 82.899 18.9142C81.455 18.9142 80.6136 18.0142 80.6136 16.5675H87.2643C87.2643 15.9208 87.2643 15.2155 87.1456 14.4942ZM93.935 18.5435H92.1363V14.7088H93.955C95.3243 14.7088 96.731 14.7088 96.731 16.5488C96.731 18.2675 95.5976 18.5435 93.935 18.5435ZM92.1363 9.46884H93.759C94.9536 9.46884 96.343 9.56483 96.343 11.1102C96.343 12.6955 94.971 12.9515 93.6803 12.9515H92.1363V9.46884ZM96.4203 13.6915V13.6528C98.1616 13.4368 99.039 12.4422 99.039 10.7395C99.039 7.66883 96.303 7.60883 93.975 7.60883H87.8336V9.46884H89.435V18.5435H87.8336V20.4022H93.8576C95.8736 20.4022 99.431 20.5168 99.431 16.6648C99.431 14.9648 98.0616 13.7515 96.4203 13.6915ZM71.6496 18.4048C70.1843 18.4048 69.4376 17.1355 69.4376 15.7275C69.4376 14.2782 70.047 12.8702 71.6896 12.8702C73.311 12.8702 73.8803 14.2195 73.8803 15.6302C73.8803 17.1155 73.255 18.4048 71.6496 18.4048ZM73.959 12.6568H73.9203C73.2936 11.6995 72.3936 11.0115 70.927 11.0115C67.9736 11.0115 66.7403 13.1248 66.7403 15.8248C66.7403 18.1515 68.1883 20.2635 70.6523 20.2635C72.239 20.2635 72.863 19.8715 73.7243 18.9342V19.9715C73.7243 21.1248 72.9016 22.2395 71.747 22.2395C70.9083 22.2395 70.1243 22.0822 70.047 20.9662H67.211C67.3483 23.1395 68.7763 23.9995 71.475 23.9995C75.1523 23.9995 76.3243 21.8862 76.3243 19.5595V13.0075H77.5963V11.2502H73.959V12.6568ZM133.514 18.7342C132.4 18.7342 131.576 17.7155 131.576 15.7395C131.576 14.2328 132.086 12.7488 133.75 12.7488C135.355 12.7488 136.018 14.0982 136.018 15.6035C136.018 17.5382 135.471 18.7342 133.514 18.7342ZM138.462 18.5568V7.25417H134.588V9.01283H135.86V12.5115H135.823C135.391 11.6328 134.534 10.8875 132.986 10.8875C130.598 10.8875 128.878 12.5115 128.878 15.8768C128.878 18.3408 130.17 20.5902 132.832 20.5902C134.454 20.5902 135.254 20.0822 136.076 18.7902H136.116V20.3168H139.735V18.5568H138.462ZM59.1376 14.9062C59.1376 13.6742 59.8616 12.7328 61.1723 12.7328C62.519 12.7328 63.187 13.5928 63.187 14.9062H59.1376ZM65.6723 14.4942C65.279 12.2462 63.5003 10.9742 61.2896 10.9742C58.3976 10.9742 56.4403 12.8315 56.4403 15.7075C56.4403 18.7568 58.1403 20.6742 61.3496 20.6742C63.4443 20.6742 65.239 19.7755 65.6723 17.5648H63.2243C62.9723 18.5435 62.3243 18.9142 61.427 18.9142C59.979 18.9142 59.1376 18.0142 59.1376 16.5675H65.7856C65.7856 15.9208 65.7856 15.2155 65.6723 14.4942ZM114.19 18.9142C113.388 18.9142 112.8 18.5248 112.8 17.6622C112.8 16.4288 113.995 16.2155 115.327 16.2155H116.579C116.618 17.7795 115.735 18.9142 114.19 18.9142ZM119.019 14.9808C119.019 12.2062 118.062 10.9742 115.108 10.9742C112.958 10.9742 110.811 11.4062 110.65 14.0248H113.096C113.175 12.9675 113.799 12.5382 114.815 12.5382C115.774 12.5382 116.579 12.8702 116.579 13.9462V14.6475H115.655C113.37 14.6475 110.358 14.7275 110.358 17.7408C110.358 19.6955 111.843 20.6742 113.546 20.6742C114.934 20.6742 115.774 20.3035 116.579 19.0702H116.618V20.4022H120.195V18.6408H119.019V14.9808ZM104.766 18.8182C103.106 18.8182 102.58 17.2715 102.58 15.8248C102.58 14.3768 103.106 12.8315 104.766 12.8315C106.428 12.8315 106.955 14.3768 106.955 15.8248C106.955 17.2715 106.428 18.8182 104.766 18.8182ZM104.766 10.9742C101.891 10.9742 99.8776 12.7742 99.8776 15.8248C99.8776 18.8755 101.891 20.6742 104.766 20.6742C107.644 20.6742 109.659 18.8755 109.659 15.8248C109.659 12.7742 107.644 10.9742 104.766 10.9742ZM124.883 13.0275H124.843V11.2502H121.148V13.0075H122.419V18.6408H121.148V20.4022H126.586V18.6408H125.018V15.9822C125.115 14.3968 125.92 13.1248 127.64 13.1248C128.032 13.1248 128.444 13.1248 128.815 13.2235V11.0902C128.464 11.0115 128.071 10.9742 127.7 10.9742C126.348 10.9742 125.43 11.8555 124.883 13.0275ZM28.8243 18.8182C26.1056 18.8182 24.911 16.7795 24.911 14.3195C24.911 11.7782 25.751 9.1955 28.6256 9.1955C30.5216 9.1955 31.8336 10.4062 31.8523 12.3422H34.2976V7.6115H31.8523V9.09683L31.815 9.05817C30.955 7.76483 29.683 7.3355 28.1536 7.3355C24.0683 7.3355 22.055 10.1915 22.055 14.1035C22.055 17.8208 24.227 20.6742 28.7256 20.6742C31.247 20.6742 34.2763 19.5595 34.3363 15.9822H31.7376C31.6816 17.6622 30.4056 18.8182 28.8243 18.8182ZM39.9243 18.8182C38.2643 18.8182 37.7363 17.2715 37.7363 15.8248C37.7363 14.3768 38.2643 12.8315 39.9243 12.8315C41.5883 12.8315 42.1176 14.3768 42.1176 15.8248C42.1176 17.2715 41.5883 18.8182 39.9243 18.8182ZM39.9243 10.9742C37.051 10.9742 35.0363 12.7742 35.0363 15.8248C35.0363 18.8755 37.051 20.6742 39.9243 20.6742C42.8016 20.6742 44.815 18.8755 44.815 15.8248C44.815 12.7742 42.8016 10.9742 39.9243 10.9742ZM16.4216 9.3875C16.3896 9.45284 16.3043 9.61683 16.267 9.68083C16.267 9.68083 15.1763 11.3075 15.3403 12.2462C15.4483 12.8595 15.8003 13.7115 14.9603 15.6675C14.4976 16.7488 13.9323 18.0075 12.2243 19.9862C12.2243 19.9862 11.651 20.5848 11.343 20.8155C11.343 20.8155 9.88829 22.0235 9.39896 22.0115C8.96162 22.0008 8.59762 21.7582 8.31496 21.4982C8.09096 21.2902 7.55629 20.7142 7.51096 20.6528C4.90162 17.3715 4.79362 14.6982 5.28162 12.8155C5.44029 12.2088 5.84962 11.7568 6.33229 11.4222C7.29896 10.7595 8.56696 10.5688 8.74429 10.5448C9.25229 10.5062 9.48696 10.4808 9.99229 10.4702C10.379 10.4635 10.7643 10.4608 11.1483 10.4742C11.3696 10.4808 11.5896 10.4915 11.8056 10.5102C12.107 10.5368 12.4083 10.5728 12.7043 10.6302C12.887 10.6648 13.0696 10.7222 13.2523 10.7488C13.3896 10.7675 13.5523 10.7515 13.5696 10.5928C13.5736 10.5648 13.5736 10.5368 13.567 10.5075C13.511 10.3382 13.2256 10.0635 12.1456 9.79017C11.9323 9.73683 11.679 9.69683 11.4003 9.66617C11.2456 9.64883 11.0816 9.63684 10.9136 9.6275C10.8136 9.62084 10.7123 9.6155 10.611 9.61017C10.595 9.61017 10.575 9.61017 10.5603 9.60884C10.4576 9.60484 10.3563 9.6035 10.251 9.5995H10.2243C10.103 9.59684 9.98829 9.59417 9.87229 9.59417H9.52296C7.70296 9.60883 6.07895 9.79017 6.07895 9.79017C6.07895 9.79017 3.17496 10.2048 3.17496 8.07817C3.17496 5.98217 5.83496 5.50083 7.57762 5.25283C7.58829 5.25283 7.59896 5.25017 7.61096 5.2475H7.62162L7.62562 5.24483L7.65229 5.24217H7.65495C7.74162 5.2315 7.82962 5.21683 7.91629 5.20883C7.96962 5.2035 8.02429 5.20083 8.07629 5.1955C8.20162 5.18217 8.32562 5.17017 8.45362 5.1595C8.73896 5.1395 9.06296 5.1235 9.37496 5.1235H9.52829C10.2016 5.12883 10.875 5.17683 11.535 5.2595C12.019 5.31683 12.5016 5.40217 12.9736 5.5195C15.2723 5.99283 17.4776 7.04617 16.4216 9.3875ZM8.91762 3.42883C8.92962 3.22483 8.98829 3.0275 9.06296 2.83817C9.23629 2.3835 9.52296 1.9475 9.86962 1.59283C9.97896 1.48217 10.0963 1.37683 10.2296 1.2915C10.2816 1.25683 10.371 1.19683 10.4403 1.21017C10.5683 1.24083 10.327 1.86083 10.303 1.92617C10.1496 2.3515 9.94962 2.74617 9.65362 3.10217C9.52295 3.26217 9.37896 3.4115 9.21762 3.54083C9.17096 3.57683 9.03896 3.6995 8.96562 3.6755C8.89629 3.65017 8.91229 3.47817 8.91762 3.42883ZM16.107 5.11417C16.107 5.11417 15.479 4.85017 15.055 4.75817C14.495 4.5915 14.0056 4.5115 13.4336 4.41017C12.6523 4.27283 10.599 4.07683 10.2536 4.0635C10.143 4.0595 10.2003 3.94217 10.2456 3.87683C10.3656 3.70483 10.5163 3.54483 10.643 3.37683C10.9083 3.03017 11.099 2.6395 11.2003 2.22883C11.3163 1.7595 11.3483 1.26617 11.3016 0.787501C11.2843 0.612834 11.2563 0.4355 11.203 0.2675C11.1776 0.186167 11.1403 0.0621673 11.055 0.016834C10.979 -0.0218327 10.863 0.0155006 10.7896 0.0355006C10.6256 0.0835006 10.4723 0.158167 10.3203 0.235501C9.39762 0.715501 8.50962 1.3795 7.99229 2.2635C7.78562 2.61683 7.64162 2.9995 7.60562 3.40083C7.59629 3.51817 7.59629 3.63417 7.59229 3.7515C7.58829 3.82483 7.58429 3.91017 7.54295 3.9755C7.49229 4.0595 7.39096 4.08883 7.29096 4.10217C7.09762 4.12483 5.92829 4.2515 5.54429 4.31417C4.68296 4.45817 3.82162 4.6435 2.99495 4.9235C2.68695 5.02483 2.38296 5.15417 2.09362 5.30883C2.07762 5.3155 2.06162 5.3235 2.04429 5.33283C1.91362 5.4035 1.78029 5.47817 1.65629 5.56083C1.64162 5.56883 1.62829 5.57683 1.61762 5.5875C1.48429 5.67417 1.35629 5.76883 1.23629 5.8715C1.15229 5.94083 1.07629 6.01417 0.99762 6.0915C0.96962 6.12083 0.938954 6.1475 0.912287 6.17683C0.877621 6.21417 0.837623 6.24483 0.805623 6.28083C0.654957 6.45283 0.522955 6.64883 0.409622 6.85683C0.398955 6.8755 0.386958 6.8955 0.377624 6.91417C0.332291 6.99817 0.294957 7.08883 0.257624 7.1795C0.233624 7.2355 0.206956 7.29017 0.186956 7.34883C0.174956 7.38083 0.166956 7.41417 0.157623 7.44617C0.122956 7.55417 0.0896227 7.65817 0.0656227 7.76883C0.00428938 8.03683 -0.00637847 8.30483 0.00295487 8.5595C0.0082882 8.65283 0.01762 8.74217 0.0242867 8.8315C0.0309533 8.88883 0.0389561 8.94617 0.0469561 9.00217C0.0549561 9.05817 0.0656234 9.11283 0.0736234 9.16617C0.20829 9.85817 0.473622 10.3702 0.473622 10.3702C0.733622 10.9355 1.11095 11.6328 1.66429 12.2022C1.66429 12.2022 1.75229 12.3208 1.74829 12.4835C1.77096 12.8928 1.86696 13.8102 2.26696 14.9915C3.24696 17.9582 5.30296 20.1582 6.57229 21.1715C6.57229 21.1715 7.25095 21.7275 7.51495 21.9582C7.88429 22.2795 8.56696 22.7435 8.56696 22.7435C8.83362 22.8968 8.95229 22.9742 9.31229 22.9742C9.74162 22.9742 10.0536 22.7662 10.3616 22.5622C10.7496 22.3048 12.2976 20.9755 12.2976 20.9755C13.939 19.5222 16.5696 16.7275 16.863 12.4928C16.8536 12.3262 16.947 12.2022 16.947 12.2022C17.499 11.6328 17.8763 10.9355 18.139 10.3702C18.139 10.3702 18.823 9.04883 18.5483 7.76883C18.275 6.51017 17.3603 5.64217 16.107 5.11417ZM54.8496 7.3355H50.9763V9.09683H52.2496V18.6408H50.9763V20.4022H56.1216V18.6408H54.8496V7.3355ZM48.7536 7.3355H44.8816V9.09683H46.1536V18.6408H44.8816V20.4022H50.0243V18.6408H48.7536V7.3355Z" fill="#523EE7"/>
</g>
<defs>
<clipPath id="clip0_737_22">
<rect width="139.84" height="24" fill="white"/>
</clipPath>
</defs>
</svg>
