<svg width="81" height="24" viewBox="0 0 81 24" fill="none" xmlns="http://www.w3.org/2000/svg">
<g clip-path="url(#clip0_738_51)">
<path d="M24.6993 15.515C24.519 15.6095 24.3113 15.6566 24.0766 15.6566C23.9145 15.6566 23.7559 15.6244 23.601 15.5603C23.4462 15.4962 23.3075 15.4057 23.1853 15.288C23.0631 15.1708 22.9644 15.0272 22.8893 14.8578C22.8143 14.6888 22.7769 14.4985 22.7769 14.2878C22.7769 14.0967 22.8095 13.9174 22.8749 13.7504C22.9402 13.5835 23.031 13.4381 23.1472 13.3147C23.2634 13.1913 23.402 13.0945 23.5629 13.0244C23.7237 12.9541 23.9 12.9192 24.0911 12.9192C24.3307 12.9192 24.5275 12.9566 24.6811 13.0317C24.8347 13.1067 24.9649 13.2072 25.0714 13.3329L24.8028 13.5726C24.7108 13.4783 24.6068 13.405 24.4906 13.3529C24.3744 13.301 24.2437 13.2748 24.0983 13.2748C23.9701 13.2748 23.8484 13.299 23.7335 13.3476C23.6185 13.396 23.518 13.4636 23.4322 13.5509C23.3462 13.6379 23.2786 13.7434 23.229 13.8666C23.1793 13.99 23.1544 14.1282 23.1544 14.2805C23.1544 14.4524 23.1836 14.6017 23.2417 14.7289C23.2998 14.8561 23.3741 14.9618 23.4649 15.0466C23.5557 15.1314 23.6559 15.195 23.7661 15.2371C23.8764 15.2795 23.9823 15.3007 24.0838 15.3007C24.2123 15.3007 24.3452 15.2728 24.4833 15.2172C24.6212 15.1616 24.7469 15.0673 24.8609 14.9342L25.1222 15.1591C25.0205 15.302 24.8796 15.4207 24.6993 15.515Z" fill="#523EE7"/>
<path d="M26.8505 15.613V12.9626H28.3318V13.3075H27.2136V14.1462H28.3063V14.4911H27.2136V15.2681H28.4006V15.613H26.8505Z" fill="#523EE7"/>
<path d="M31.9659 15.613L30.5754 13.6923C30.5706 13.6876 30.5656 13.6809 30.5609 13.6724C30.5559 13.6639 30.5512 13.6562 30.5464 13.6489C30.5389 13.6392 30.533 13.6295 30.5282 13.6198C30.5282 13.632 30.5292 13.6427 30.5317 13.6524C30.5317 13.6621 30.5325 13.6719 30.5337 13.6816C30.5347 13.6913 30.5355 13.6998 30.5355 13.707V15.613H30.1724V12.9626H30.4808L31.8534 14.8469C31.8581 14.8542 31.8636 14.8626 31.8696 14.8724C31.8756 14.8821 31.8811 14.8906 31.8861 14.8978C31.8908 14.9075 31.8956 14.916 31.9005 14.9232C31.898 14.911 31.8968 14.9003 31.8968 14.8906C31.8946 14.8784 31.8933 14.8604 31.8933 14.836V12.9626H32.2564V15.613H31.9659Z" fill="#523EE7"/>
<path d="M34.8851 13.3075V15.613H34.522V13.3075H33.9811V12.9626H35.4479V13.3075H34.8851Z" fill="#523EE7"/>
<path d="M38.472 13.7307C38.472 13.6848 38.4618 13.6372 38.4411 13.5878C38.4206 13.5385 38.3889 13.4933 38.3468 13.4524C38.3044 13.4113 38.2518 13.3769 38.1889 13.3492C38.1259 13.3215 38.0508 13.3075 37.9638 13.3075H37.5353V14.2153H37.9565C38.1211 14.2153 38.2481 14.1701 38.3376 14.0796C38.4271 13.9893 38.472 13.8731 38.472 13.7307ZM38.6064 15.613L37.5353 14.3751V15.613H37.1722V12.9626H38.0291C38.1525 12.9626 38.2645 12.9833 38.3648 13.0245C38.4653 13.0656 38.5518 13.122 38.6244 13.1933C38.6972 13.2646 38.7528 13.3477 38.7914 13.4419C38.8301 13.5365 38.8495 13.637 38.8495 13.7432C38.8495 13.8499 38.8291 13.9489 38.788 14.041C38.7466 14.133 38.6909 14.2135 38.6209 14.2823C38.5505 14.3514 38.4702 14.4053 38.3795 14.4439C38.2887 14.4828 38.1937 14.502 38.0944 14.502L39.071 15.613H38.6064Z" fill="#523EE7"/>
<path d="M41.7032 13.6706C41.6982 13.6634 41.6952 13.6557 41.6942 13.6469C41.6927 13.6387 41.6909 13.6307 41.6887 13.6235C41.6862 13.6138 41.6837 13.6053 41.6815 13.5981C41.679 13.6053 41.6765 13.6138 41.6742 13.6235C41.6717 13.6307 41.6698 13.6387 41.6688 13.6469C41.6675 13.6557 41.6655 13.6621 41.6633 13.6669L41.3872 14.4113H41.979L41.7032 13.6706ZM42.4256 15.613L42.1062 14.7562H41.2603L40.9408 15.613H40.5558L41.5725 12.9626H41.8049L42.8286 15.613H42.4256Z" fill="#523EE7"/>
<path d="M44.506 15.613V12.9626H44.8691V15.2681H45.8746V15.613H44.506Z" fill="#523EE7"/>
<path d="M51.3933 15.0412C51.3402 15.1706 51.2674 15.2809 51.1753 15.3716C51.0836 15.4624 50.9741 15.5325 50.8469 15.5821C50.7197 15.6317 50.5823 15.6567 50.4347 15.6567C50.2823 15.6567 50.1427 15.633 50.0155 15.5858C49.8886 15.5387 49.7796 15.4696 49.6888 15.3789C49.598 15.2881 49.5272 15.1786 49.4763 15.0502C49.4255 14.922 49.4 14.7756 49.4 14.611V12.9626H49.7669V14.6083C49.7669 14.7365 49.7851 14.8452 49.8212 14.9347C49.8576 15.024 49.9065 15.0966 49.9684 15.1522C50.0299 15.2078 50.1013 15.2482 50.1826 15.2736C50.2636 15.2991 50.3477 15.3115 50.4347 15.3115C50.522 15.3115 50.606 15.2991 50.6871 15.2736C50.7681 15.2482 50.8402 15.2073 50.9033 15.1504C50.9661 15.0936 51.017 15.021 51.0556 14.933C51.0943 14.8447 51.1137 14.7365 51.1137 14.6083V12.9626H51.4731V14.611C51.4731 14.7684 51.4464 14.9118 51.3933 15.0412Z" fill="#523EE7"/>
<path d="M55.1074 15.613L53.7168 13.6923C53.7121 13.6876 53.7071 13.6809 53.7024 13.6724C53.6974 13.6639 53.6926 13.6562 53.6879 13.6489C53.6807 13.6392 53.6744 13.6295 53.6697 13.6198C53.6697 13.632 53.6707 13.6427 53.6732 13.6524C53.6732 13.6621 53.6739 13.6719 53.6752 13.6816C53.6762 13.6913 53.6769 13.6998 53.6769 13.707V15.613H53.3138V12.9626H53.6223L54.9949 14.8469C54.9996 14.8542 55.0051 14.8626 55.0111 14.8724C55.0171 14.8821 55.0226 14.8906 55.0276 14.8978C55.0323 14.9075 55.0373 14.916 55.042 14.9232C55.0395 14.911 55.0385 14.9003 55.0385 14.8906C55.036 14.8784 55.0348 14.8604 55.0348 14.836V12.9626H55.3979V15.613H55.1074Z" fill="#523EE7"/>
<path d="M57.6198 12.9626H57.2567V15.613H57.6198V12.9626Z" fill="#523EE7"/>
<path d="M60.4552 15.613H60.23L59.2971 12.9626H59.6492L60.3208 14.8759C60.3233 14.8856 60.3255 14.8953 60.328 14.905C60.3305 14.9148 60.333 14.9245 60.3355 14.9342C60.3378 14.9437 60.3403 14.9547 60.3428 14.9666C60.345 14.9547 60.3475 14.9437 60.35 14.9342C60.3522 14.9245 60.3542 14.9148 60.3555 14.905C60.3565 14.8953 60.3595 14.8856 60.3645 14.8759L61.0398 12.9626H61.3847L60.4552 15.613Z" fill="#523EE7"/>
<path d="M63.0621 15.613V12.9626H64.5434V13.3075H63.4252V14.1462H64.518V14.4911H63.4252V15.2681H64.6125V15.613H63.0621Z" fill="#523EE7"/>
<path d="M67.6839 13.7307C67.6839 13.6848 67.6734 13.6372 67.653 13.5878C67.6325 13.5385 67.6009 13.4933 67.5587 13.4524C67.5163 13.4113 67.4637 13.3769 67.4006 13.3492C67.3378 13.3215 67.2627 13.3075 67.1757 13.3075H66.7472V14.2153H67.1684C67.333 14.2153 67.46 14.1701 67.5495 14.0796C67.639 13.9893 67.6839 13.8731 67.6839 13.7307ZM67.8183 15.613L66.7472 14.3751V15.613H66.3842V12.9626H67.241C67.3645 12.9626 67.4764 12.9833 67.5769 13.0245C67.6772 13.0656 67.7637 13.122 67.8365 13.1933C67.9091 13.2646 67.9647 13.3477 68.0034 13.4419C68.042 13.5365 68.0615 13.637 68.0615 13.7432C68.0615 13.8499 68.041 13.9489 67.9996 14.041C67.9585 14.133 67.9029 14.2135 67.8328 14.2823C67.7625 14.3514 67.6822 14.4053 67.5914 14.4439C67.5006 14.4828 67.4056 14.502 67.3063 14.502L68.2829 15.613H67.8183Z" fill="#523EE7"/>
<path d="M71.3944 14.9125C71.3944 15.0312 71.3727 15.1364 71.329 15.2282C71.2854 15.3202 71.2268 15.3982 71.153 15.4626C71.0789 15.5267 70.9931 15.575 70.8951 15.6077C70.7971 15.6404 70.6924 15.6568 70.5811 15.6568C70.4455 15.6568 70.3131 15.6374 70.1836 15.5987C70.054 15.5598 69.9275 15.4898 69.8041 15.388L70.0111 15.1085C70.0475 15.1399 70.0879 15.1678 70.1328 15.192C70.1774 15.2162 70.224 15.2369 70.2724 15.2536C70.3208 15.2706 70.3699 15.2833 70.4195 15.2918C70.4689 15.3002 70.5168 15.3045 70.5629 15.3045C70.6983 15.3045 70.8078 15.2743 70.8914 15.2137C70.9749 15.1534 71.0168 15.0601 71.0168 14.9342C71.0168 14.8785 71.0046 14.8284 70.9804 14.7835C70.9562 14.7389 70.924 14.6977 70.8841 14.6601C70.8442 14.6227 70.7971 14.588 70.7427 14.5566C70.6881 14.5252 70.632 14.495 70.5739 14.4658C70.4794 14.4174 70.3869 14.3691 70.2961 14.3207C70.2053 14.2723 70.1235 14.2159 70.051 14.1519C69.9784 14.0878 69.9203 14.0115 69.8766 13.9232C69.833 13.8347 69.8113 13.7277 69.8113 13.6017C69.8113 13.505 69.8288 13.4147 69.8634 13.3314C69.8981 13.2479 69.9485 13.1753 70.0146 13.1135C70.0804 13.0519 70.1604 13.004 70.2547 12.9701C70.3487 12.9361 70.4552 12.9192 70.5739 12.9192C70.7068 12.9192 70.8333 12.9386 70.9532 12.9773C71.0729 13.0162 71.1849 13.0718 71.2889 13.1444L71.0931 13.4421C71.0106 13.3815 70.9308 13.3386 70.8535 13.3132C70.7759 13.2878 70.6814 13.275 70.5702 13.275C70.4659 13.275 70.3764 13.3005 70.3016 13.3514C70.2265 13.402 70.1889 13.4783 70.1889 13.58C70.1889 13.6526 70.2041 13.7145 70.2345 13.7651C70.2647 13.8159 70.3061 13.8613 70.3582 13.9012C70.4106 13.9414 70.4717 13.9788 70.5422 14.014C70.6126 14.0489 70.6891 14.087 70.7717 14.1282C70.8467 14.1646 70.9215 14.2052 70.9956 14.2499C71.0697 14.2948 71.1362 14.3479 71.1958 14.4097C71.2552 14.4713 71.3033 14.5426 71.3397 14.6237C71.3761 14.705 71.3944 14.801 71.3944 14.9125Z" fill="#523EE7"/>
<path d="M73.4783 12.9626H73.1152V15.613H73.4783V12.9626Z" fill="#523EE7"/>
<path d="M76.1069 13.3075V15.613H75.7438V13.3075H75.2029V12.9626H76.6697V13.3075H76.1069Z" fill="#523EE7"/>
<path d="M79.4688 14.3823V15.6133H79.1057V14.3823L78.1945 12.9629H78.6157L79.2546 13.9539C79.2593 13.9589 79.2638 13.9661 79.2673 13.9759C79.271 13.9856 79.275 13.9938 79.28 14.001C79.2847 14.0108 79.2897 14.0205 79.2945 14.0302C79.2994 14.0205 79.3042 14.0108 79.3089 14.001C79.3139 13.9938 79.3186 13.9856 79.3236 13.9759C79.3284 13.9661 79.3331 13.9577 79.3381 13.9504L79.977 12.9629H80.391L79.4688 14.3823Z" fill="#523EE7"/>
<path d="M26.2353 11.7682C25.751 12.0028 25.155 12.12 24.4473 12.12C23.8288 12.12 23.2627 12.0213 22.7488 11.824C22.2348 11.6268 21.7949 11.3435 21.43 10.9746C21.065 10.6061 20.7819 10.1589 20.5809 9.63374C20.3797 9.10855 20.2792 8.51828 20.2792 7.86242C20.2792 7.25169 20.3869 6.69109 20.6031 6.18062C20.8191 5.6704 21.1133 5.23074 21.4859 4.86192C21.8585 4.49334 22.2961 4.20656 22.7991 4.00157C23.3019 3.79683 23.84 3.69434 24.4138 3.69434C25.0173 3.69434 25.5517 3.78735 26.0173 3.97364C26.4829 4.15992 26.9283 4.46915 27.3527 4.90107L26.347 6.07439C25.8031 5.53075 25.1587 5.25868 24.4138 5.25868C24.0635 5.25868 23.747 5.32401 23.464 5.45419C23.1807 5.58461 22.9405 5.76541 22.7433 5.99633C22.5455 6.22725 22.3929 6.50306 22.2849 6.82326C22.1769 7.14371 22.1228 7.4901 22.1228 7.86242C22.1228 8.70456 22.3203 9.36366 22.7153 9.84047C23.1101 10.3173 23.6874 10.5557 24.4473 10.5557C24.7006 10.5557 24.9258 10.5297 25.1233 10.4774C25.3208 10.4255 25.4996 10.3584 25.6597 10.2764C25.8198 10.1943 25.9672 10.0976 26.1011 9.98561C26.2353 9.87389 26.3694 9.75493 26.5036 9.628L27.5315 10.8016C27.1517 11.2113 26.7196 11.5335 26.2353 11.7682Z" fill="#523EE7"/>
<path d="M34.8846 7.87364C34.8846 7.51604 34.8287 7.17913 34.717 6.86217C34.6053 6.54571 34.4469 6.26816 34.2419 6.02975C34.0369 5.79135 33.791 5.60332 33.5045 5.46541C33.2175 5.32751 32.8953 5.25868 32.5379 5.25868C32.1875 5.25868 31.8673 5.33125 31.5768 5.47664C31.2863 5.62177 31.0367 5.81554 30.8279 6.05768C30.6195 6.29983 30.4574 6.57738 30.3419 6.8901C30.2264 7.20307 30.1688 7.531 30.1688 7.87364C30.1688 8.24621 30.2319 8.59634 30.3586 8.92402C30.4853 9.25195 30.6549 9.53699 30.8671 9.77888C31.0796 10.021 31.3272 10.2111 31.6102 10.349C31.8933 10.4869 32.195 10.5557 32.5155 10.5557C32.8803 10.5557 33.21 10.4811 33.5045 10.332C33.7988 10.1831 34.0481 9.98387 34.2531 9.73424C34.4581 9.48462 34.6145 9.19783 34.7225 8.87364C34.8304 8.5497 34.8846 8.21629 34.8846 7.87364ZM36.7284 7.87364C36.7284 8.46217 36.6279 9.01529 36.4267 9.533C36.2255 10.051 35.9407 10.5016 35.5718 10.8851C35.203 11.2692 34.7596 11.5709 34.2419 11.7904C33.7242 12.0101 33.1486 12.12 32.5155 12.12C31.8823 12.12 31.3085 12.0083 30.7945 11.7849C30.2806 11.5614 29.8409 11.2559 29.4758 10.8684C29.1107 10.4811 28.8277 10.0303 28.6267 9.51629C28.4255 9.00232 28.325 8.45469 28.325 7.87364C28.325 7.28511 28.4255 6.73748 28.6267 6.231C28.8277 5.72427 29.1127 5.28287 29.4816 4.90656C29.8501 4.5305 30.2935 4.23449 30.8112 4.01828C31.3289 3.80232 31.9045 3.69409 32.5379 3.69409C33.1708 3.69409 33.7464 3.79858 34.2644 4.00706C34.7821 4.21579 35.2235 4.50432 35.5885 4.87314C35.9534 5.24197 36.2349 5.68337 36.4322 6.19733C36.6297 6.7113 36.7284 7.27015 36.7284 7.87364Z" fill="#523EE7"/>
<path d="M38.0133 11.986V3.82837H39.8013V10.4775H42.7068V11.986H38.0133Z" fill="#523EE7"/>
<path d="M50.6522 10.1588C50.4584 10.5872 50.1978 10.9466 49.8699 11.2371C49.542 11.5279 49.1622 11.7476 48.7303 11.8965C48.2981 12.0453 47.8435 12.1199 47.3667 12.1199C46.8973 12.1199 46.4522 12.0453 46.0315 11.8965C45.6103 11.7476 45.2397 11.5279 44.9195 11.2371C44.5991 10.9466 44.3457 10.5872 44.1594 10.1588C43.9734 9.73062 43.8801 9.23685 43.8801 8.678V3.82812H45.6794V8.678C45.6794 8.95381 45.7203 9.20892 45.8023 9.44359C45.8841 9.67825 46.0016 9.8795 46.1544 10.0471C46.3068 10.2147 46.4859 10.3451 46.6906 10.4381C46.8956 10.5314 47.121 10.5778 47.3667 10.5778C47.62 10.5778 47.8547 10.5314 48.0709 10.4381C48.2869 10.3451 48.4769 10.2147 48.6407 10.0471C48.8046 9.8795 48.933 9.67825 49.0263 9.44359C49.1193 9.20892 49.1659 8.95381 49.1659 8.678V3.82812H50.9427V8.678C50.9427 9.23685 50.846 9.73062 50.6522 10.1588Z" fill="#523EE7"/>
<path d="M58.9327 11.986V7.07475C58.9327 7.01141 58.9364 6.95007 58.9439 6.89021C58.9511 6.83061 58.9586 6.77126 58.9664 6.71141C58.9511 6.74882 58.9364 6.78598 58.9215 6.82313C58.9065 6.86054 58.8898 6.8957 58.8713 6.92937C58.8526 6.96278 58.8357 6.99844 58.821 7.0356L56.9995 10.3767H56.3177L54.4626 7.0356C54.4252 6.976 54.3918 6.90518 54.3621 6.82313C54.3472 6.78598 54.3322 6.74882 54.3175 6.71141C54.3175 6.77126 54.3212 6.83061 54.3287 6.89021C54.3359 6.95007 54.3414 7.01141 54.3454 7.07475C54.3492 7.1381 54.3509 7.20692 54.3509 7.28149V11.986H52.5629V3.82837H54.3175L56.519 7.80667C56.5412 7.84383 56.5616 7.88473 56.5803 7.92962C56.5988 7.97425 56.6157 8.01515 56.6307 8.05231C56.6454 8.0972 56.6604 8.1381 56.6753 8.17525C56.69 8.1381 56.705 8.0972 56.72 8.05231C56.7349 8.01515 56.7496 7.97425 56.7646 7.92962C56.7796 7.88473 56.7983 7.84383 56.8207 7.80667L58.899 3.82837H60.7207V11.986H58.9327Z" fill="#523EE7"/>
<path d="M66.6434 9.57226C66.6434 9.28922 66.5446 9.07874 66.3471 8.94084C66.1498 8.80318 65.8648 8.73411 65.4925 8.73411H64.185V10.4775H65.4925C65.9169 10.4775 66.2149 10.3974 66.3862 10.2371C66.5576 10.077 66.6434 9.85555 66.6434 9.57226ZM66.3082 6.23086C66.3082 5.88847 66.2 5.65381 65.984 5.52687C65.7678 5.40044 65.4588 5.3371 65.0566 5.3371H64.185V7.22563H65.0566C65.8907 7.22563 66.3082 6.8942 66.3082 6.23086ZM68.4872 9.67276C68.4872 10.0378 68.4164 10.364 68.2748 10.6506C68.1334 10.9376 67.9341 11.1797 67.677 11.377C67.4202 11.5745 67.1052 11.7254 66.7329 11.8296C66.3601 11.9341 65.9466 11.986 65.4925 11.986H62.397V3.82837H65.2242C65.6488 3.82837 66.0361 3.87874 66.3862 3.97924C66.7364 4.07974 67.0361 4.22338 67.286 4.40942C67.5354 4.5957 67.7274 4.82488 67.8613 5.0967C67.9955 5.36877 68.0626 5.676 68.0626 6.01864C68.0626 6.42837 67.9471 6.78797 67.7162 7.09695C67.4853 7.40618 67.191 7.62787 66.8334 7.76204C67.0641 7.79919 67.282 7.87376 67.487 7.98548C67.692 8.0972 67.867 8.24084 68.0122 8.41565C68.1576 8.59071 68.273 8.78647 68.3588 9.00243C68.4444 9.21839 68.4872 9.44209 68.4872 9.67276Z" fill="#523EE7"/>
<path d="M71.5601 3.82837H69.7721V11.986H71.5601V3.82837Z" fill="#523EE7"/>
<path d="M76.5218 6.43211C76.4697 6.26827 76.4285 6.12288 76.3988 5.9962C76.3764 5.92189 76.3579 5.84732 76.343 5.77276C76.328 5.83984 76.3096 5.91066 76.2871 5.98498C76.2722 6.04483 76.2552 6.1154 76.2367 6.19745C76.218 6.27949 76.1976 6.3578 76.1754 6.43211L75.5607 8.42114H77.1253L76.5218 6.43211ZM78.1981 11.986L77.5722 9.92987H75.0914L74.4544 11.986H72.5659L75.4824 3.82837H77.2033L80.1647 11.986H78.1981Z" fill="#523EE7"/>
<path d="M19.5402 12.9358C18.8527 14.2849 17.705 15.4101 16.2021 16.0505C12.8053 17.4974 8.88085 15.9216 7.43622 12.5306C5.99183 9.14006 7.57437 5.21811 10.9711 3.77123C11.941 3.35801 12.9537 3.19168 13.9395 3.2433C14.0247 3.04529 14.1188 2.85103 14.2215 2.66025C12.7375 2.45477 11.1801 2.63656 9.7008 3.26674C5.35542 5.11786 3.33098 10.1348 5.17886 14.4725C7.02674 18.8106 12.0472 20.8266 16.3926 18.9755C19.0327 17.8508 20.816 15.5573 21.3946 12.9573C20.7689 13.0256 20.1462 13.0166 19.5402 12.9358Z" fill="#523EE7"/>
<path d="M17.1763 6.7334C17.5644 7.61969 17.6554 8.64238 17.3626 9.64438C16.7015 11.9087 14.3332 13.2092 12.0726 12.5491C9.81225 11.889 8.51574 9.51844 9.17709 7.2541C9.36586 6.60772 9.69379 6.03989 10.1185 5.5738C10.0554 5.45161 9.99754 5.32617 9.94492 5.19824C9.24217 5.84812 8.70103 6.69126 8.413 7.67754C7.56736 10.5741 9.22572 13.6067 12.1175 14.4511C15.0093 15.2955 18.0392 13.6319 18.8851 10.7352C19.399 8.9753 18.9883 7.16508 17.9382 5.82592C17.7185 6.16258 17.4619 6.46657 17.1763 6.7334Z" fill="#523EE7"/>
<path d="M12.5039 11.8433C11.4812 9.10789 12.8647 7.30415 13.3767 7.20689C13.8889 7.11387 13.3333 9.862 13.3333 9.862C13.3333 9.862 13.9635 8.77522 14.1158 8.98445C14.6221 9.33706 14.0665 10.8765 14.0665 10.8765C14.0665 10.8765 15.2772 9.89841 15.3824 8.77572C15.8632 10.0241 14.1702 11.8463 14.1595 11.9785C14.1493 12.1056 15.9894 10.5927 15.8729 9.15477C15.757 7.71213 15.0493 6.79816 15.136 5.39991C14.67 5.38819 14.6348 7.1034 14.6348 7.1034C14.6348 7.1034 14.0198 5.38669 14.7498 3.78345C14.2964 3.9024 12.751 4.99916 12.064 6.73756C11.3772 8.47322 10.9453 10.9096 12.5039 11.8433Z" fill="#523EE7"/>
<path d="M20.6799 16.5666C18.9315 19.0302 16.056 20.6379 12.8049 20.6379C7.47518 20.6379 3.15473 16.3174 3.15473 10.9878C3.15473 7.28651 5.23877 4.07254 8.29738 2.45384C9.2283 1.89698 10.2724 1.49299 11.4019 1.28302C12.8565 1.01244 14.2949 1.09324 15.6298 1.46456C15.8069 1.21918 15.9954 0.981521 16.1941 0.751347C14.2233 0.0181795 12.034 -0.208006 9.81508 0.204463C3.29713 1.41618 -1.00587 7.67329 0.203609 14.1798C1.41333 20.6868 7.67767 24.979 14.1956 23.7673C18.156 23.0312 21.2984 20.4321 22.8837 17.0464C22.1248 16.9623 21.3867 16.8 20.6799 16.5666Z" fill="#523EE7"/>
</g>
<defs>
<clipPath id="clip0_738_51">
<rect width="80.4389" height="24" fill="white"/>
</clipPath>
</defs>
</svg>
