<svg width="63" height="18" viewBox="0 0 63 18" fill="none" xmlns="http://www.w3.org/2000/svg">
<g clip-path="url(#clip0_744_112)">
<path d="M22.137 4.64526H28.1212V5.99766H23.8963V8.63063H27.1398V9.98303H23.8963V13.5256H22.137V4.64526ZM29.3779 7.13463H31.0893V13.5256H29.3779V7.13463ZM32.6453 7.13463H34.2131V8.28355H34.3926C34.5443 7.86864 34.7637 7.56152 35.0509 7.36199C35.3462 7.15459 35.7212 7.05084 36.1759 7.05084H37.1695V8.35537H35.4698C35.0868 8.35537 34.8036 8.46304 34.6201 8.6785C34.4366 8.89395 34.3448 9.25294 34.3448 9.75567V13.5256H32.6453V7.13463ZM29.306 4.64526H31.1612V5.99766H29.306V4.64526ZM40.7002 13.6453C39.7026 13.6453 38.9249 13.358 38.3664 12.7836C37.8158 12.2011 37.5404 11.3833 37.5404 10.3301C37.5404 9.27692 37.8158 8.46304 38.3664 7.8886C38.9249 7.30614 39.7026 7.01495 40.7002 7.01495C41.6735 7.01495 42.4276 7.28223 42.9622 7.81682C43.4967 8.35141 43.7638 9.10937 43.7638 10.0907V10.6652H39.3357V10.7968C39.3357 11.3793 39.4435 11.8102 39.6587 12.0895C39.8822 12.3607 40.2291 12.4963 40.7002 12.4963C41.0831 12.4963 41.3705 12.4206 41.5617 12.269C41.7613 12.1093 41.8611 11.9418 41.8611 11.7663V11.7184H43.6085C43.4249 12.3407 43.0819 12.8195 42.5789 13.1546C42.0843 13.4817 41.4579 13.6453 40.7002 13.6453ZM42.0643 9.58808C42.0324 9.08546 41.9047 8.71842 41.6815 8.48703C41.4659 8.24766 41.1389 8.12797 40.7002 8.12797C40.2611 8.12797 39.9301 8.24766 39.7066 8.48703C39.4914 8.71842 39.3676 9.08546 39.3357 9.58808H42.0643ZM45.4158 8.25963H44.3267V7.13463H45.4158V5.67453C45.4158 5.34741 45.5036 5.09606 45.6789 4.92053C45.8625 4.73701 46.1256 4.64526 46.4689 4.64526H49.0542V5.77026H47.1272V7.13463H49.0542V8.25963H47.1272V13.5256H45.4158V8.25963ZM52.6444 13.6453C51.6392 13.6453 50.8531 13.358 50.2866 12.7836C49.7201 12.2011 49.4371 11.3833 49.4371 10.3301C49.4371 9.27692 49.7201 8.46304 50.2866 7.8886C50.8531 7.30614 51.6392 7.01495 52.6444 7.01495C53.65 7.01495 54.4317 7.30614 54.9906 7.8886C55.5571 8.46304 55.8401 9.27692 55.8401 10.3301C55.8401 11.3833 55.5571 12.2011 54.9906 12.7836C54.4317 13.358 53.65 13.6453 52.6444 13.6453ZM52.6444 12.4963C53.1235 12.4963 53.4744 12.3607 53.6979 12.0895C53.9291 11.8102 54.0449 11.3793 54.0449 10.7968V9.86334C54.0449 9.28088 53.9291 8.85407 53.6979 8.58273C53.4744 8.30351 53.1235 8.16386 52.6444 8.16386C52.1658 8.16386 51.8108 8.30351 51.5793 8.58273C51.3481 8.85407 51.2324 9.28088 51.2324 9.86334V10.7968C51.2324 11.3793 51.3481 11.8102 51.5793 12.0895C51.8108 12.3607 52.1658 12.4963 52.6444 12.4963ZM58.174 10.2344L56.1156 7.13463H57.8869L59.3349 9.40859H59.4666L60.915 7.13463H62.6381L60.5797 10.2344L62.7458 13.5256H60.9985L59.4307 11.0602H59.299L57.7312 13.5256H56.0078L58.174 10.2344Z" fill="#523EE7"/>
<path d="M16.788 6.03998C16.4087 5.12848 15.6421 4.14454 15.0387 3.8332C15.4678 4.66429 15.7656 5.55649 15.9218 6.47931L15.9241 6.49401C14.9379 4.03585 13.2667 3.04513 11.9012 0.888168C11.831 0.778335 11.7619 0.667374 11.6962 0.554148C11.6623 0.495267 11.6305 0.435261 11.6 0.374116C11.5434 0.264288 11.4992 0.148797 11.4698 0.0287771C11.4698 0.0174545 11.4618 0.00726414 11.4505 0.00499958C11.4448 0.00386733 11.4392 0.00386733 11.4336 0.00499958C11.4324 0.00499958 11.4301 0.00726414 11.429 0.00726414C11.4279 0.00726414 11.4245 0.00952865 11.4234 0.0106609L11.4268 0.00613184C9.23694 1.28899 8.49419 3.6622 8.42513 4.84882C7.551 4.90885 6.71426 5.23154 6.02583 5.77387C5.95339 5.71275 5.87751 5.65614 5.79941 5.6029C5.60123 4.90772 5.59216 4.17176 5.77448 3.47199C4.97058 3.86147 4.25613 4.41403 3.67639 5.09342H3.67189C3.32652 4.65522 3.3503 3.21157 3.37068 2.91039C3.26878 2.95115 3.17141 3.00323 3.07969 3.06438C2.77511 3.28177 2.48978 3.52634 2.2271 3.79466C1.92931 4.09703 1.65643 4.4231 1.413 4.77069C0.852528 5.56556 0.455101 6.46345 0.243369 7.41226C0.23884 7.4315 0.235444 7.45077 0.232046 7.47004C0.216195 7.54701 0.157317 7.93085 0.145994 8.01465C0.145994 8.02143 0.144863 8.02709 0.14373 8.03388C0.0678684 8.4313 0.0203135 8.83325 0.00219727 9.23632C0.00219727 9.25106 0.00219727 9.26579 0.00219727 9.28165C0.00219727 14.096 3.90626 17.9989 8.7206 17.9989C12.9666 17.9989 16.5944 14.9407 17.3122 10.7558C17.327 10.6437 17.3394 10.5317 17.3519 10.4196C17.5319 8.93515 17.3372 7.42925 16.7869 6.03882L16.788 6.03998ZM6.74028 12.8641C6.78107 12.8834 6.81953 12.9049 6.86145 12.9241L6.86711 12.9276C6.82407 12.9072 6.78219 12.8856 6.73915 12.8641H6.74028Z" fill="#523EE7"/>
<path d="M16.7881 6.03979C16.4088 5.12828 15.6423 4.14438 15.0388 3.83301C15.4679 4.66406 15.7657 5.55629 15.9219 6.47908C15.9219 6.47679 15.9219 6.48021 15.923 6.48699V6.49606C16.7473 8.72661 16.299 10.9946 15.6536 12.3793C14.6549 14.5238 12.2364 16.7204 8.45011 16.614C4.35921 16.4985 0.756375 13.4629 0.0838087 9.48751C-0.0384756 8.86023 0.0838086 8.5432 0.144951 8.03256C0.0600312 8.42773 0.0136083 8.8308 0.00341797 9.235C0.00341797 9.24974 0.00341797 9.26447 0.00341797 9.28033C0.00341797 14.0947 3.90634 17.9988 8.72185 17.9988C12.9679 17.9988 16.5956 14.9405 17.3146 10.7557C17.3293 10.6435 17.3418 10.5314 17.3542 10.4194C17.5343 8.93499 17.3395 7.42905 16.7893 6.03862L16.7881 6.03979Z" fill="#523EE7"/>
<path d="M16.7881 6.03979C16.4088 5.12828 15.6423 4.14438 15.0388 3.83301C15.4679 4.66406 15.7657 5.55629 15.9219 6.47908C15.9219 6.47679 15.9219 6.48021 15.923 6.48699V6.49606C16.7473 8.72661 16.299 10.9946 15.6536 12.3793C14.6549 14.5238 12.2364 16.7204 8.45011 16.614C4.35921 16.4985 0.756375 13.4629 0.0838087 9.48751C-0.0384756 8.86023 0.0838086 8.5432 0.144951 8.03256C0.0600312 8.42773 0.0136083 8.8308 0.00341797 9.235C0.00341797 9.24974 0.00341797 9.26447 0.00341797 9.28033C0.00341797 14.0947 3.90634 17.9988 8.72185 17.9988C12.9679 17.9988 16.5956 14.9405 17.3146 10.7557C17.3293 10.6435 17.3418 10.5314 17.3542 10.4194C17.5343 8.93499 17.3395 7.42905 16.7893 6.03862L16.7881 6.03979Z" fill="#523EE7"/>
<path d="M12.551 7.06446C12.5703 7.07807 12.5873 7.09164 12.6054 7.10412C12.3868 6.71575 12.114 6.36021 11.7958 6.04771C9.08629 3.3382 11.0859 0.172391 11.4233 0.0116091L11.4267 0.00708008C9.23686 1.28994 8.49411 3.66319 8.42505 4.84977C8.52695 4.84295 8.62773 4.83507 8.73076 4.83507C10.3125 4.83845 11.7698 5.68989 12.5499 7.06558L12.551 7.06446Z" fill="#523EE7"/>
<path d="M8.73649 7.60591C8.72176 7.82329 7.95636 8.57062 7.68799 8.57062C5.20835 8.57062 4.8064 10.0697 4.8064 10.0697C4.91625 11.3322 5.79487 12.3728 6.86032 12.923C6.90902 12.948 6.95769 12.9706 7.00755 12.9932C7.09131 13.0306 7.17739 13.0657 7.2634 13.0985C7.62801 13.2276 8.01069 13.3012 8.39794 13.317C12.7424 13.5209 13.5848 8.12222 10.4496 6.55404C11.2524 6.41476 12.0857 6.73745 12.5522 7.06356C11.7721 5.68786 10.3137 4.83638 8.73196 4.83301C8.62893 4.83301 8.52703 4.84204 8.42625 4.84771C7.55212 4.90773 6.71538 5.23046 6.02695 5.77278C6.15944 5.88488 6.31005 6.03549 6.62708 6.34686C7.21811 6.92997 8.73537 7.5346 8.73878 7.60479L8.73649 7.60591Z" fill="white"/>
<path d="M5.61946 5.48407C5.68061 5.52254 5.74063 5.56333 5.79953 5.60404C5.60135 4.90887 5.59228 4.1729 5.7746 3.47314C4.9707 3.86262 4.25625 4.41521 3.67651 5.09456C3.71839 5.09456 4.98315 5.07076 5.61946 5.48407Z" fill="#523EE7"/>
<path d="M0.0837357 9.48877C0.756301 13.4642 4.35916 16.4997 8.45002 16.6153C12.2352 16.7229 14.6548 14.5251 15.6535 12.3806C16.2989 10.9947 16.7484 8.72679 15.9252 6.49736V6.48829C15.9252 6.4815 15.9241 6.47809 15.9241 6.48038L15.9264 6.49508C16.2355 8.51503 15.2085 10.4704 13.6018 11.794L13.5973 11.8054C10.4689 14.353 7.47516 13.343 6.86936 12.9286C6.82636 12.9082 6.78444 12.8867 6.7426 12.8652C4.9185 11.9934 4.16555 10.3312 4.32632 8.90679C3.44203 8.91923 2.63246 8.41084 2.26108 7.6081C2.26108 7.6081 3.64359 6.62187 5.46649 7.47902C6.49916 7.94778 7.6733 7.99423 8.73991 7.6081C8.7365 7.53675 7.21927 6.93325 6.62821 6.35013C6.31231 6.03876 6.16174 5.88819 6.02815 5.77609C5.95677 5.71494 5.88092 5.65833 5.80279 5.60509C5.75071 5.57004 5.69297 5.5315 5.62279 5.48512C4.98644 5.07184 3.72285 5.09561 3.68093 5.09561H3.67639C3.33107 4.65741 3.35485 3.21378 3.37523 2.9126C3.27332 2.95336 3.17595 3.00545 3.08423 3.06658C2.77966 3.28398 2.49432 3.52855 2.23164 3.79689C1.93385 4.09923 1.66098 4.42529 1.41754 4.77292C0.857072 5.56775 0.459645 6.46565 0.247914 7.41449C0.243385 7.43373 -0.0668557 8.78794 0.0859999 9.49102L0.0837357 9.48877Z" fill="#523EE7"/>
<path d="M11.7958 6.04774C12.1139 6.36023 12.3869 6.71577 12.6054 7.10415C12.6507 7.13811 12.6948 7.17321 12.7367 7.21171C14.7125 9.0324 13.6776 11.6094 13.6006 11.7928C15.2062 10.4703 16.2332 8.51381 15.9252 6.49385C14.9378 4.03682 13.2666 3.04611 11.9011 0.889143C11.8309 0.779314 11.7619 0.668352 11.6962 0.555127C11.6622 0.496246 11.6305 0.436236 11.5999 0.375098C11.5433 0.265265 11.4992 0.149773 11.4697 0.0297537C11.4697 0.0184311 11.4618 0.00824066 11.4505 0.00597615C11.4448 0.00484389 11.4392 0.00484389 11.4335 0.00597615C11.4323 0.00597615 11.4301 0.00824066 11.429 0.00824066C11.4278 0.00824066 11.4244 0.0105052 11.4233 0.0116375C11.0859 0.172419 9.08628 3.33823 11.7958 6.04774Z" fill="#523EE7"/>
<path d="M12.7369 7.2117C12.695 7.17432 12.6509 7.13807 12.6056 7.10414C12.5875 7.09053 12.5705 7.07696 12.5513 7.06447C12.0859 6.73724 11.2525 6.41455 10.4486 6.55499C13.5839 8.12313 12.7426 13.5218 8.39696 13.318C8.00974 13.3022 7.62815 13.2286 7.26245 13.0994C7.17641 13.0666 7.09033 13.0315 7.00653 12.9941C6.95787 12.9715 6.90804 12.9489 6.85938 12.9239L6.86504 12.9274C7.47076 13.3406 10.4645 14.3518 13.5929 11.8042L13.5975 11.7928C13.6744 11.6094 14.7105 9.03348 12.7335 7.2117H12.7369Z" fill="#523EE7"/>
<path d="M4.80749 10.0695C4.80749 10.0695 5.20944 8.57038 7.68912 8.57038C7.95745 8.57038 8.72401 7.82193 8.73762 7.60568C7.67214 7.99177 6.49684 7.94539 5.4642 7.47659C3.64239 6.61949 2.25879 7.60568 2.25879 7.60568C2.63017 8.40845 3.43974 8.91797 4.32403 8.9044C4.1621 10.3299 4.91622 11.9921 6.74028 12.8628C6.78103 12.882 6.81954 12.9035 6.86141 12.9228C5.79709 12.3725 4.91734 11.332 4.80749 10.0695Z" fill="#523EE7"/>
<path d="M16.7881 6.03998C16.4088 5.12848 15.6422 4.14457 15.0387 3.8332C15.4678 4.66429 15.7656 5.55649 15.9219 6.47931L15.9242 6.49401C14.9379 4.03585 13.2668 3.04513 11.9012 0.888168C11.831 0.778335 11.7619 0.667374 11.6963 0.554148C11.6623 0.495267 11.6306 0.435261 11.6001 0.374116C11.5434 0.264288 11.4993 0.148797 11.4698 0.0287771C11.4698 0.0174545 11.4619 0.00726414 11.4506 0.00499958C11.4449 0.00386733 11.4393 0.00386733 11.4336 0.00499958C11.4325 0.00499958 11.4302 0.00726414 11.4291 0.00726414C11.4279 0.00726414 11.4246 0.00952865 11.4234 0.0106609L11.4268 0.00613184C9.23701 1.28899 8.49426 3.6622 8.42516 4.84882C8.52706 4.84204 8.62784 4.83413 8.73091 4.83413C10.3127 4.8375 11.7699 5.68895 12.55 7.06468C12.0846 6.73745 11.2513 6.41472 10.4474 6.55516C13.5826 8.12334 12.7414 13.522 8.39573 13.3182C8.00851 13.3023 7.62692 13.2287 7.26122 13.0996C7.17518 13.0668 7.08913 13.0317 7.00534 12.9943C6.95664 12.9717 6.90681 12.949 6.85811 12.9241L6.86377 12.9276C6.82077 12.9072 6.77885 12.8856 6.73697 12.8641C6.77773 12.8834 6.81623 12.9049 6.85811 12.9241C5.79379 12.3738 4.91404 11.3333 4.80419 10.0708C4.80419 10.0708 5.20614 8.5717 7.68578 8.5717C7.95415 8.5717 8.72071 7.82325 8.73428 7.60703C8.73091 7.53569 7.21364 6.93218 6.62258 6.34907C6.30671 6.0377 6.15611 5.88713 6.02252 5.77503C5.95002 5.71388 5.87529 5.65614 5.79716 5.60403C5.59905 4.90885 5.58998 4.17288 5.7723 3.47312C4.96836 3.8626 4.25392 4.41519 3.67418 5.09451H3.66968C3.32433 4.65634 3.34811 3.2127 3.36849 2.91152C3.26658 2.95229 3.1692 3.00437 3.07749 3.06551C2.77291 3.2829 2.48759 3.52747 2.2249 3.79582C1.92711 4.09816 1.65424 4.42423 1.4108 4.77182C0.850329 5.56668 0.452903 6.46458 0.241172 7.41339C0.236643 7.43266 0.233246 7.45189 0.229849 7.47116C0.213998 7.54813 0.140401 7.93764 0.129078 8.02143C0.0622742 8.42451 0.0192485 8.82987 0 9.23749C0 9.25218 0 9.26692 0 9.28278C0 14.0972 3.90404 18.0001 8.71842 18.0001C12.9644 18.0001 16.5922 14.9418 17.31 10.757C17.3248 10.6449 17.3372 10.5328 17.3497 10.4207C17.5297 8.93631 17.3349 7.43037 16.7847 6.03998H16.7881ZM15.923 6.48722V6.4963H15.9242V6.48722H15.923Z" fill="#523EE7"/>
</g>
<defs>
<clipPath id="clip0_744_112">
<rect width="62.7823" height="18" fill="white"/>
</clipPath>
</defs>
</svg>
