<svg width="75" height="24" viewBox="0 0 75 24" fill="none" xmlns="http://www.w3.org/2000/svg">
<path fill-rule="evenodd" clip-rule="evenodd" d="M39.8274 22.653H73.7219V0.889893H39.8274V22.653Z" fill="#FDFDFD"/>
<path fill-rule="evenodd" clip-rule="evenodd" d="M0 0.226074V23.3218L74.3816 23.319V0.226074H0ZM39.8273 22.6526H73.7218V0.88957H39.8273V22.6526Z" fill="#523EE7"/>
<path fill-rule="evenodd" clip-rule="evenodd" d="M44.9976 11.4202H46.5515C46.8966 11.4202 47.3727 11.2373 47.3727 10.6889C47.3727 10.1312 46.9738 9.9484 46.5515 9.9484H44.9976V11.4202ZM44.9976 14.4717H46.6075C47.2424 14.4717 47.6852 14.2479 47.6852 13.6126C47.6852 12.9364 47.2105 12.7084 46.6075 12.7084H44.9976V14.4717ZM42.9939 8.40032H46.5956C47.9248 8.37914 49.3788 8.7222 49.3788 10.3238C49.3788 11.0114 48.97 11.5704 48.3649 11.8718C49.1847 12.1076 49.692 12.8149 49.692 13.6874C49.692 15.5142 48.3436 16.074 46.6933 16.074H42.9939V8.40032Z" fill="#523EE7"/>
<path fill-rule="evenodd" clip-rule="evenodd" d="M52.7864 15.1053C53.6594 15.1053 53.9506 14.6119 53.9081 13.4606C53.6487 13.6237 53.1726 13.6554 52.7744 13.762C52.3648 13.8587 52.019 14.031 52.019 14.4722C52.019 14.9218 52.3754 15.1053 52.7864 15.1053ZM50.4135 12.2147C50.4439 11.4848 50.7897 11.0112 51.2836 10.7218C51.7817 10.4423 52.4293 10.335 53.0649 10.335C54.3942 10.335 55.6781 10.6251 55.6781 12.2041V14.6444C55.6781 15.1194 55.6781 15.6319 55.8928 16.0738H54.0484C53.9832 15.9023 53.9627 15.7307 53.94 15.5486C53.4653 16.0406 52.7638 16.234 52.0949 16.234C51.0264 16.234 50.1853 15.6983 50.1853 14.5477C50.1853 12.7307 52.1714 12.8712 53.444 12.615C53.7551 12.5493 53.9287 12.4413 53.9287 12.0954C53.9287 11.679 53.4221 11.5173 53.0444 11.5173C52.5378 11.5173 52.2139 11.7425 52.1275 12.2147H50.4135Z" fill="#523EE7"/>
<path fill-rule="evenodd" clip-rule="evenodd" d="M56.5564 10.4957H58.3377V11.2594H58.3597C58.6934 10.6884 59.4488 10.3347 60.1177 10.3347C61.9848 10.3347 62.1336 11.6886 62.1336 12.4954V16.0735H60.3005V13.3764C60.3005 12.6147 60.3869 11.839 59.3836 11.839C58.6934 11.839 58.3923 12.4206 58.3923 13.0326V16.0735H56.5564V10.4957Z" fill="#523EE7"/>
<path fill-rule="evenodd" clip-rule="evenodd" d="M63.0276 8.40015H64.8614V12.3552L66.5329 10.4959H68.6579L66.608 12.603L68.9179 16.0738H66.7065L65.334 13.8284L64.8614 14.29V16.0738H63.0276V8.40015Z" fill="#523EE7"/>
<path fill-rule="evenodd" clip-rule="evenodd" d="M10.1926 16.1029H7.38168V10.4304H5.76685V8.57396C6.84317 8.26055 7.8543 7.81373 7.99885 6.66879L10.1926 6.66455V16.1029Z" fill="#FDFDFD"/>
<path fill-rule="evenodd" clip-rule="evenodd" d="M19.2255 10.002H15.5566V11.5705H18.731V13.1164H15.5566V16.074H13.552V8.39966H19.2255V10.002Z" fill="#FDFDFD"/>
<mask id="mask0_736_1077" style="mask-type:luminance" maskUnits="userSpaceOnUse" x="0" y="0" width="75" height="24">
<path fill-rule="evenodd" clip-rule="evenodd" d="M0 23.5484H74.3823V0.451904H0V23.5484Z" fill="white"/>
</mask>
<g mask="url(#mask0_736_1077)">
<path fill-rule="evenodd" clip-rule="evenodd" d="M20.0107 16.0737H21.8431V10.4958H20.0107V16.0737Z" fill="#FDFDFD"/>
<path fill-rule="evenodd" clip-rule="evenodd" d="M20.0107 9.79758H21.8431V8.40063H20.0107V9.79758Z" fill="#FDFDFD"/>
<path fill-rule="evenodd" clip-rule="evenodd" d="M26.7923 12.0957C26.5542 12.0329 26.3381 11.9912 26.0915 11.9912C25.1838 11.9912 24.7098 12.6145 24.7098 13.3112V16.074H22.8767V10.4955H24.6552V11.4724H24.6779C24.9486 10.7644 25.5735 10.3875 26.3608 10.3875C26.5018 10.3875 26.6527 10.3995 26.7923 10.4312V12.0957Z" fill="#FDFDFD"/>
<path fill-rule="evenodd" clip-rule="evenodd" d="M29.8174 16.2338C28.4903 16.2338 27.1298 15.794 27.0774 14.2362H28.824C28.824 14.515 28.9424 14.719 29.1273 14.8609C29.2988 14.99 29.5453 15.0522 29.8061 15.0522C30.1618 15.0522 30.6698 14.9025 30.6698 14.462C30.6698 14.0307 30.0959 13.9446 29.7735 13.8698C28.6207 13.579 27.1745 13.5493 27.1745 12.0437C27.1745 10.7011 28.6299 10.3354 29.7303 10.3354C30.9597 10.3354 32.2457 10.6891 32.3095 12.1397H30.6146C30.6146 11.9046 30.5296 11.7543 30.3786 11.6569C30.2256 11.5609 30.0222 11.5171 29.7948 11.5171C29.4922 11.5171 29.0082 11.5474 29.0082 11.9364C29.0082 12.463 30.2383 12.5597 31.0801 12.7418C32.211 12.9677 32.5029 13.7851 32.5029 14.2482C32.5029 15.7397 31.0801 16.2338 29.8174 16.2338Z" fill="#FDFDFD"/>
<path fill-rule="evenodd" clip-rule="evenodd" d="M36.6258 11.6787H35.4914V14.2142C35.4914 14.6554 35.7514 14.7521 36.151 14.7521C36.3013 14.7521 36.4635 14.7323 36.6258 14.7323V16.0742C36.2899 16.0848 35.9583 16.1286 35.6239 16.1286C34.0572 16.1286 33.6597 15.6775 33.6597 14.1627V11.6787H32.7322V10.4956H33.6597V8.80786H35.4914V10.4956H36.6258V11.6787Z" fill="#FDFDFD"/>
</g>
</svg>
