<svg width="67" height="17" viewBox="0 0 67 17" fill="none" xmlns="http://www.w3.org/2000/svg">
<path fill-rule="evenodd" clip-rule="evenodd" d="M9.41091 1.63016C7.45379 -0.169705 5.51021 0.00427729 5.50602 0.00476946C5.50209 0.00427729 3.55875 -0.169705 1.60163 1.63016C-0.357944 3.432 -0.804097 7.12304 1.88857 9.63606C4.28052 11.8693 5.27667 14.6333 5.46911 16.5274C5.46911 16.5274 5.47699 16.5658 5.50602 16.5658C5.53531 16.5658 5.54269 16.5274 5.54269 16.5274C5.73538 14.6333 6.73178 11.8693 9.12348 9.63606C11.8161 7.12304 11.37 3.432 9.41091 1.63016V1.63016ZM8.04736 5.65884C7.92063 6.05258 7.23504 7.29309 5.50653 8.25726C3.77729 7.29309 3.09194 6.05258 2.9657 5.65884C2.76268 5.02788 2.81485 3.94486 3.79033 3.50904C4.76557 3.07347 5.50653 3.87005 5.50653 3.87005C5.50653 3.87005 6.24627 3.07347 7.22175 3.50904C8.19748 3.94486 8.24915 5.02788 8.04736 5.65884V5.65884Z" fill="#523EE7"/>
<path fill-rule="evenodd" clip-rule="evenodd" d="M19.0121 2.69727V6.52931H22.4283V2.69727H25.256V13.4625H22.4283V9.35757H19.0121V13.4625H16.1843V2.69727H19.0121" fill="#523EE7"/>
<path fill-rule="evenodd" clip-rule="evenodd" d="M33.7055 9.50079V13.4625H30.9066V9.50079L26.9739 2.69727H30.232L32.2989 6.28568L34.3803 2.69727H37.6387L33.7055 9.50079" fill="#523EE7"/>
<path fill-rule="evenodd" clip-rule="evenodd" d="M38.4377 2.69727H42.9733C45.1554 2.69727 46.9353 4.4772 46.9353 6.65875C46.9353 8.82627 45.1694 10.6062 43.0307 10.6062H41.2653V13.4625H38.4377V2.69727V2.69727ZM41.2652 8.16613H43.0161C43.8774 8.16613 44.5667 7.49136 44.5667 6.63056C44.5667 5.76926 43.8774 5.07997 43.0161 5.07997H41.2652V8.16613V8.16613Z" fill="#523EE7"/>
<path fill-rule="evenodd" clip-rule="evenodd" d="M55.2416 13.4625H48.5527V11.1227H52.4141V9.37135H48.9977V6.989H52.4141V5.00825H48.5527V2.69727H55.2416V13.4625" fill="#523EE7"/>
<path fill-rule="evenodd" clip-rule="evenodd" d="M63.5628 13.4625L61.8978 10.6062H60.1469V13.4625H57.3193V2.69727H61.8549C64.0367 2.69727 65.8164 4.4772 65.8164 6.65875C65.8164 7.80698 65.3142 8.84079 64.539 9.55837L66.8214 13.4625H63.5628V13.4625ZM59.9007 8.16613H61.6516C62.5129 8.16613 63.2017 7.49136 63.2017 6.63056C63.2017 5.76926 62.5129 5.07997 61.6516 5.07997H59.9007V8.16613V8.16613Z" fill="#523EE7"/>
</svg>
