<svg width="82" height="24" viewBox="0 0 82 24" fill="none" xmlns="http://www.w3.org/2000/svg">
<g clip-path="url(#clip0_738_28)">
<path d="M75.8387 16.6693C75.8212 16.679 75.8033 16.6871 75.785 16.6953C75.7789 16.6977 75.7728 16.6997 75.7667 16.7018C75.7541 16.7067 75.7415 16.7115 75.7285 16.7152C75.7212 16.7176 75.7135 16.7193 75.7062 16.7213C75.694 16.7245 75.6818 16.7278 75.6692 16.7302C75.661 16.7319 75.6533 16.7331 75.6452 16.7343C75.6326 16.7363 75.62 16.738 75.607 16.7396C75.5988 16.7404 75.5907 16.8136 75.5822 16.814C75.5688 16.8152 75.5553 16.8884 75.5419 16.8884H75.5171C75.5025 16.8884 75.4879 16.8148 75.4732 16.814C75.4655 16.8132 75.4578 16.777 75.4501 16.7762C75.433 16.7745 75.4163 16.7542 75.3992 16.7518C75.3927 16.751 75.3866 16.7412 75.3801 16.74C75.357 16.7363 75.3334 16.727 75.309 16.7217C74.3334 16.4985 72.7651 14.8888 71.2114 12.5436L72.7074 12.5497C72.8236 12.5441 72.8659 12.5103 72.8997 12.4904C73.3118 12.2445 73.0297 10.7758 72.1366 9.21926C71.3005 7.63186 70.2127 6.6091 69.7842 6.82536C69.7492 6.84324 69.6992 6.86235 69.6322 6.95747L68.8273 8.23958C67.5716 5.48674 67.0257 3.14324 67.4545 2.2469C67.4614 2.23186 67.4696 2.21763 67.4773 2.2034C67.4785 2.20097 67.4801 2.19771 67.4818 2.19527C67.4891 2.18227 67.4964 2.16966 67.5041 2.15706C67.5066 2.15381 67.5086 2.15056 67.5106 2.1469C67.5184 2.13511 67.5265 2.12332 67.5346 2.11235C67.5366 2.1091 67.5391 2.10666 67.5411 2.10381C67.5497 2.09202 67.5586 2.08064 67.5679 2.07007C67.6013 2.03105 67.6379 1.99771 67.6777 1.96926C67.6838 1.96438 67.6907 1.96032 67.6972 1.95584C67.709 1.94812 67.7212 1.93999 67.7338 1.93308C68.783 1.35625 71.4476 4.18714 73.6854 8.25666C75.9236 12.3258 76.8875 16.0924 75.8387 16.6693ZM69.1484 10.7518C69.3944 11.1989 69.6472 11.6189 69.9045 12.04L67.1586 12.0103H67.157C67.0936 12.0103 67.0537 11.9514 67.0866 11.8977C67.0871 11.8973 67.0871 11.905 67.0875 11.905L68.5415 9.59162C68.7334 9.97536 68.9362 10.3656 69.1484 10.7518ZM69.9598 7.35788C69.9598 7.3534 69.9684 7.34893 69.9704 7.34446C69.9708 7.34365 69.9736 7.34284 69.974 7.34162C69.9761 7.33755 69.9793 7.33389 69.9814 7.32983C69.9818 7.32901 69.983 7.32779 69.9838 7.32698C69.9858 7.32332 69.9883 7.31966 69.9907 7.31601C69.9911 7.31519 69.9919 7.31438 69.9923 7.31357C69.9948 7.30991 69.9972 7.303 70.0001 7.303C70.0094 7.303 70.0196 7.28105 70.031 7.27292C70.033 7.27129 70.035 7.27007 70.0366 7.26885C70.0403 7.26641 70.0436 7.26438 70.0472 7.26235C70.3505 7.09568 71.1915 8.04243 71.9253 9.37698C72.6594 10.7115 73.0086 11.9286 72.7053 12.0953C72.7005 12.0981 72.6952 12.1006 72.6899 12.1026C72.6879 12.1034 72.6862 12.1038 72.6846 12.1046C72.681 12.1058 72.6769 12.1071 72.6732 12.1083C72.6712 12.1087 72.6688 12.1091 72.6667 12.1095C72.6631 12.1103 72.6594 12.1111 72.6558 12.1119C72.6533 12.1123 72.6513 12.0607 72.6488 12.0611C72.6452 12.0615 72.6411 12.0103 72.6375 12.0103H72.6179C72.6155 12.0103 72.6131 12.0619 72.6106 12.0619C72.6066 12.0615 72.6021 12.0867 72.5976 12.0863C72.5952 12.0859 72.5932 12.0989 72.5907 12.0985C72.5854 12.0977 72.5805 12.103 72.5753 12.1022C72.5736 12.1018 72.5716 12.1046 72.5696 12.1042C72.5627 12.1026 72.5558 12.1022 72.5484 12.1002C72.1692 11.988 71.4537 11.1278 70.8224 9.97983C70.1716 8.79609 69.8249 7.70584 69.9598 7.35788ZM70.3866 10.1876C70.7387 10.827 71.1358 11.3957 71.5049 11.788C71.5391 11.8241 71.5728 11.8587 71.6062 11.8916C71.6708 11.955 71.6253 12.0652 71.5346 12.0644L70.9005 12.0615C70.5578 11.5213 70.2179 10.9469 69.8871 10.3457C69.5915 9.80788 69.3179 9.27576 69.0688 8.75544L69.4143 8.20422C69.4627 8.12739 69.5797 8.14771 69.5988 8.23674C69.609 8.28511 69.6208 8.33471 69.6342 8.38593C69.7675 8.90828 70.035 9.54771 70.3866 10.1876ZM73.3484 16.7075L66.9163 16.6754L66.9143 16.6709C66.9135 16.6701 66.907 16.6721 66.8992 16.675L66.7627 16.6745C65.9025 16.5615 64.6525 15.3465 63.7492 13.7042C63.2667 12.827 62.9395 11.8981 62.7964 11.105C62.6501 10.2936 62.724 9.83958 62.857 9.57495L66.3639 3.98592C66.4135 3.90666 66.5346 3.93145 66.5492 4.02414C66.598 4.33836 66.6688 4.67698 66.7614 5.03877C67.0688 6.23999 67.5997 7.63796 68.294 9.08958L66.1956 12.4343C66.1846 12.4518 66.185 12.4705 66.1948 12.4871C66.2037 12.5042 66.22 12.516 66.2407 12.5164L70.2033 12.5363C71.0249 13.8282 71.881 14.9628 72.6952 15.8274C72.9427 16.0908 73.1834 16.3254 73.4159 16.5302C73.4858 16.592 73.4423 16.7079 73.3484 16.7075ZM58.9114 16.6351C58.8009 16.6347 58.7025 16.5863 58.6314 16.5168C58.6114 16.4205 58.6261 16.3176 58.685 16.2237L62.0712 10.8274C62.0846 10.9477 62.1029 11.0721 62.1261 11.201C62.2822 12.0664 62.6562 13.0664 63.1793 14.0176C63.7305 15.0201 64.4936 16.0315 65.2862 16.6672L58.9114 16.6351ZM67.2383 0.0891767C67.1265 0.145274 66.9684 0.20625 66.7553 0.507469L55.857 17.8766C55.822 17.9319 55.8236 17.992 55.8545 18.0441C55.8826 18.0989 55.9346 18.1367 56.0001 18.1371L76.5078 18.24C76.8765 18.2209 77.0106 18.1168 77.1179 18.0526C78.4253 17.2729 77.3423 12.7197 74.5098 7.78389C71.8582 2.74853 68.5968 -0.597409 67.2383 0.0891767Z" fill="#523EE7"/>
<path d="M80.9799 4.21596C80.8458 3.97246 80.5369 3.88262 80.2934 4.01636L75.6848 6.55091C75.4413 6.68506 75.3515 6.994 75.4856 7.23791C75.6198 7.4814 75.9287 7.57124 76.1722 7.43709L80.7808 4.90295C81.0243 4.7688 81.1141 4.45986 80.9799 4.21596Z" fill="#523EE7"/>
<path d="M79.4298 7.71044L76.8384 8.15678C76.5644 8.20394 76.3786 8.46654 76.4258 8.74093C76.4729 9.01491 76.7359 9.20069 77.0099 9.15313L79.6014 8.70719C79.8754 8.66004 80.0611 8.39703 80.014 8.12304C79.9668 7.84906 79.7038 7.66329 79.4298 7.71044Z" fill="#523EE7"/>
<path d="M75.444 5.62117L77.2086 3.67158C77.3952 3.46548 77.3793 3.14393 77.1728 2.95735C76.9667 2.77076 76.6452 2.78662 76.4586 2.99271L74.694 4.94271C74.5074 5.14881 74.5237 5.46995 74.7298 5.65694C74.9359 5.84353 75.2574 5.82727 75.444 5.62117Z" fill="#523EE7"/>
<path d="M2.50203 6.69148V18.6947H0V6.01709H1.82764C2.2 6.01709 2.50203 6.31912 2.50203 6.69148Z" fill="#523EE7"/>
<path d="M2.50203 4.50331H1.36016C0.608943 4.50331 0 3.89437 0 3.14315V1.56104H1.15894C1.90081 1.56104 2.50203 2.16266 2.50203 2.90412V4.50331Z" fill="#523EE7"/>
<path d="M8.47136 7.37556C9.44819 6.54141 10.8067 5.77881 12.3795 5.77881C14.4287 5.77881 15.501 6.73206 15.7872 8.37637C15.8584 8.80523 15.8584 9.49629 15.8584 9.94913V18.6947H13.3563V10.2829C13.3563 9.94913 13.3563 9.47271 13.3088 9.21052C13.1657 8.30482 12.5937 7.94751 11.5453 7.94751C10.4014 7.94751 9.35307 8.63856 8.59047 9.32962V18.6947H6.06445V6.01743H7.75998C8.11852 6.01743 8.41445 6.29791 8.43356 6.65604L8.47136 7.37556Z" fill="#523EE7"/>
<path d="M21.8162 16.4548C22.3166 16.717 22.9601 16.9552 23.7463 16.9552C25.9626 16.9552 26.6297 14.7629 26.6297 11.9747C26.6297 8.80559 25.7959 7.92388 24.5089 7.92388C23.5081 7.92388 22.4358 8.59095 21.8162 8.99624V16.4548ZM21.8162 7.11372C22.4597 6.68445 23.8179 5.80274 25.2955 5.80274C27.6309 5.80274 29.2512 7.47104 29.2512 11.3792C29.2512 15.8353 27.6784 18.9332 23.5797 18.9332C21.9114 18.9332 20.315 18.4324 19.3142 17.8609V1.56128H21.8162V7.11372Z" fill="#523EE7"/>
<path d="M34.7078 4.50331H33.566C32.8148 4.50331 32.2058 3.89437 32.2058 3.14315V1.56104H33.3648C34.1066 1.56104 34.7078 2.16266 34.7078 2.90412V4.50331ZM34.7078 6.69152V18.6948H32.2058V6.01754H34.0335C34.4058 6.01754 34.7078 6.31916 34.7078 6.69152Z" fill="#523EE7"/>
<path d="M53.6999 6.01715C52.7707 9.59154 51.4601 13.9001 50.8881 15.4728L47.7426 5.91268H40.9991C40.9991 5.09967 41.0227 4.34439 41.2133 3.96309C41.4516 3.46268 41.7377 3.15536 42.9292 3.15536C43.7394 3.15536 44.5735 3.35902 45.0739 3.52569L45.2406 1.6261C44.5971 1.41146 43.5727 1.24805 42.7146 1.24805C40.1174 1.24805 38.9259 2.46024 38.6158 4.46187C38.5442 4.91471 38.5207 5.50618 38.5207 5.91268H36.4255V7.5387H38.8646V18.9208H41.3036V7.5387H45.652L49.506 18.085C48.6479 20.3728 47.9568 21.7497 46.4081 21.7497C45.5503 21.7497 44.6686 21.4615 43.6674 20.9131L43.0003 23.0806C43.739 23.5094 45.0735 23.9972 46.5747 23.9972C49.482 23.9972 50.7451 21.644 52.1272 18.3314C53.5093 14.9952 55.0105 10.5895 56.202 6.2765L53.6999 6.01715Z" fill="#523EE7"/>
</g>
<defs>
<clipPath id="clip0_738_28">
<rect width="81.0732" height="24" fill="white"/>
</clipPath>
</defs>
</svg>
