<svg width="30" height="24" viewBox="0 0 30 24" fill="none" xmlns="http://www.w3.org/2000/svg">
<g clip-path="url(#clip0_744_108)">
<path d="M0.647961 17.4967C-0.474822 18.2709 -0.26693 19.6047 2.29471 20.4387C4.85635 21.2728 7.83377 21.4452 10.4536 20.9806C10.6033 20.9806 10.3788 20.9806 10.4536 20.9806V18.3484L7.90863 19.2C6.93554 19.5097 5.96247 19.5871 4.98939 19.3548C4.24087 19.1226 4.39057 18.6581 5.2888 18.2709L10.4536 16.4129V13.5484L3.26779 16.1033C2.36957 16.4129 1.47134 16.8774 0.647961 17.4967ZM18.0137 5.88387V13.3936C21.0826 14.9419 23.4779 13.3936 23.4779 9.36775C23.4779 5.26452 22.0557 3.40645 17.9389 1.93548C15.7681 1.16129 13.5226 0.46452 11.277 0V22.3742L16.5167 24V5.18709C16.5167 4.33548 16.5167 3.71613 17.1155 3.94839C17.9389 4.18064 18.0137 5.03226 18.0137 5.88387ZM27.7444 15.7161C25.5738 14.9419 23.2534 14.6322 21.0078 14.8645C19.7605 14.9452 18.59 15.311 17.4149 15.7161V18.7355L22.2802 16.8774C23.2534 16.5678 24.2264 16.4903 25.1995 16.7226C25.948 16.9548 25.7983 17.4194 24.9001 17.8064L17.4149 20.6709V23.6129L27.7444 19.6645C28.4929 19.3548 29.1666 18.9678 29.7655 18.3484C30.2895 17.5742 30.0649 16.4903 27.7444 15.7161Z" fill="#523EE7"/>
</g>
<defs>
<clipPath id="clip0_744_108">
<rect width="30" height="24" fill="white"/>
</clipPath>
</defs>
</svg>
