<svg width="86" height="24" viewBox="0 0 86 24" fill="none" xmlns="http://www.w3.org/2000/svg">
<g clip-path="url(#clip0_736_585)">
<mask id="mask0_736_585" style="mask-type:luminance" maskUnits="userSpaceOnUse" x="0" y="0" width="86" height="24">
<path d="M85.2 0H0V24H85.2V0Z" fill="white"/>
</mask>
<g mask="url(#mask0_736_585)">
<path fill-rule="evenodd" clip-rule="evenodd" d="M48.4375 0V24.0944L55.9875 18.3199H85.2001V0H48.4375ZM49.9566 21.024V1.51405H83.6809V16.8059H55.4711L49.9566 21.024Z" fill="#523EE7"/>
<path fill-rule="evenodd" clip-rule="evenodd" d="M6.96702 5.71313H9.32724C10.7165 5.71313 11.8547 6.20549 11.8547 7.80191C11.8547 8.78087 11.3882 9.41015 10.6879 9.73619L12.1715 12.4199H10.5133L9.26298 10.0069H8.4489V12.4199H6.95508L6.96702 5.71313ZM10.4027 7.80191C10.4027 8.46251 9.98442 8.80193 9.20766 8.80193H8.44884V6.91805H9.20766C9.98442 6.91805 10.4027 7.14131 10.4027 7.80191Z" fill="#523EE7"/>
<path d="M13.4133 5.71313H17.5341V6.98825H14.9009V8.33699H17.1442V9.61211H14.9009V11.1447H17.6361V12.4199H13.4133V5.71313Z" fill="#523EE7"/>
<path d="M18.3816 11.6834L19.2455 10.6466C19.6928 11.0615 20.2689 11.3081 20.8762 11.3449C21.5036 11.3449 21.8128 11.0979 21.8128 10.7015C21.8128 10.3052 21.4339 10.1435 20.852 9.90269L19.9881 9.53369C19.3 9.25319 18.6484 8.68301 18.6484 7.70423C18.6484 6.59741 19.6304 5.71313 21.0156 5.71313C21.8088 5.71761 22.5694 6.03131 23.1374 6.58823L22.3796 7.53959C21.9979 7.21397 21.5161 7.03085 21.0156 7.02125C20.4973 7.02125 20.1669 7.23773 20.1669 7.63103C20.1669 8.02439 20.6034 8.19209 21.1823 8.42381L22.031 8.76839C22.8403 9.09767 23.3495 9.64349 23.3495 10.5978C23.3495 11.7077 22.4402 12.6683 20.8429 12.6683C19.929 12.6604 19.0511 12.3091 18.3816 11.6834Z" fill="#523EE7"/>
<path d="M24.5913 9.24821V5.71313H26.0876V9.39839C26.0876 10.6898 26.4946 11.1344 27.2279 11.1344C27.9611 11.1344 28.3921 10.6898 28.3921 9.39839V5.71313H29.8076V9.24821C29.8076 11.4587 28.9098 12.4199 27.2129 12.4199C25.516 12.4199 24.5913 11.4587 24.5913 9.24821Z" fill="#523EE7"/>
<path d="M31.2981 5.71313H32.941L34.0159 8.69183C34.1495 9.08945 34.2649 9.51755 34.3985 9.93047H34.438C34.5716 9.51755 34.687 9.08945 34.8206 8.69183L35.8652 5.71313H37.508V12.4199H36.1415V9.95489C36.1415 9.30047 36.263 8.32487 36.3329 7.67651H36.2934L35.7468 9.26375L34.8054 11.8326H33.9704L33.026 9.26375L32.4976 7.67957H32.4551C32.528 8.32793 32.6494 9.30353 32.6494 9.95795V12.4199H31.2981V5.71313Z" fill="#523EE7"/>
<path d="M39.2468 5.71313H43.3676V6.98825H40.7344V8.33699H42.9747V9.61211H40.7344V11.1447H43.4696V12.4199H39.2468V5.71313Z" fill="#523EE7"/>
<path d="M55.641 5.71313H57.1254V8.29733H59.3729V5.71313H60.8575V12.4199H59.3729V9.61853H57.1254V12.4199H55.641V5.71313Z" fill="#523EE7"/>
<path d="M62.5962 5.71313H66.717V6.98825H64.0836V8.33699H66.327V9.61211H64.0836V11.1447H66.819V12.4199H62.5962V5.71313Z" fill="#523EE7"/>
<path d="M68.0605 5.71313H69.6073V11.1476H72.2833V12.4199H68.0605V5.71313Z" fill="#523EE7"/>
<path fill-rule="evenodd" clip-rule="evenodd" d="M75.5791 5.71313H73.2769V12.4199H74.7907V10.1445H75.6187C77.0407 10.1445 78.2449 9.44723 78.2449 7.86917C78.2449 6.24221 77.0557 5.71313 75.5791 5.71313ZM76.7533 7.86917C76.7533 8.56955 76.3645 8.93957 75.5299 8.93957H74.7841V6.91805H75.4843C76.3039 6.91805 76.7533 7.16885 76.7533 7.86917Z" fill="#523EE7"/>
<path fill-rule="evenodd" clip-rule="evenodd" d="M0 18.3814H49.9277V0H0V18.3814ZM48.4101 16.8622H1.51753V1.51914H48.4101V16.8622Z" fill="#523EE7"/>
</g>
</g>
<defs>
<clipPath id="clip0_736_585">
<rect width="85.2" height="24" fill="white"/>
</clipPath>
</defs>
</svg>
