<svg width="127" height="18" viewBox="0 0 127 18" fill="none" xmlns="http://www.w3.org/2000/svg">
<g clip-path="url(#clip0_736_565)">
<mask id="mask0_736_565" style="mask-type:luminance" maskUnits="userSpaceOnUse" x="0" y="0" width="127" height="18">
<path d="M127 0H0V18H127V0Z" fill="white"/>
</mask>
<g mask="url(#mask0_736_565)">
<path d="M4.52623 0.910282C2.39183 0.975686 0.829421 1.88094 0.228337 3.39974C0.0601595 3.82434 0.0248627 4.05688 0.0259009 4.7597C0.0279771 6.12486 0.744293 7.60732 2.09699 9.04722C2.20495 9.16142 2.33887 9.29742 2.39493 9.34932C2.49667 9.4438 2.49667 9.4438 2.56415 9.38254C3.20779 8.79496 3.86909 8.28522 4.54803 7.85648C4.58021 7.83572 4.64355 7.7921 4.68923 7.75888C4.73387 7.72464 4.83561 7.66026 4.91347 7.61458C4.99133 7.5689 5.05465 7.52946 5.05569 7.52634C5.05569 7.52324 4.99651 7.46924 4.92385 7.40696C4.61551 7.1412 4.17949 6.68234 3.92411 6.35324C3.53585 5.8539 3.26385 5.33484 3.19119 4.95694C3.15173 4.74724 3.18185 4.49706 3.25555 4.42024C3.33861 4.3351 3.52963 4.23648 3.73413 4.1742C4.74633 3.86274 6.42499 4.10256 8.05799 4.79188C8.17427 4.84068 8.31753 4.89882 8.37773 4.9227C8.68813 5.04208 9.25081 5.33068 9.71901 5.61098C9.91211 5.72622 9.91211 5.72622 10.0824 5.70338C10.8174 5.59956 11.5866 5.58398 12.25 5.6577C13.4958 5.79784 14.5048 6.24424 15.1983 6.9616C15.3115 7.0789 15.3406 7.11628 15.5025 7.34986C16.06 8.15338 16.2686 9.0659 16.1223 10.0542C16.0911 10.265 16.0901 10.2774 16.1108 10.1892C16.2832 9.47804 16.1814 8.56344 15.8285 7.67168C14.9938 5.557 12.7203 3.4475 9.87785 2.14566C9.74705 2.08546 9.59755 2.02212 9.54771 2.00448C9.49685 1.98683 9.38785 1.94427 9.30479 1.90897C7.64999 1.21653 5.97029 0.865642 4.52623 0.910282Z" fill="#897BF0"/>
<path d="M2.37112 9.58077C1.78458 10.1434 1.21153 10.8566 0.829493 11.5024C-0.047736 12.9817 -0.230449 14.4268 0.304193 15.658C0.502479 16.1148 0.866865 16.6079 1.15443 16.8093C1.20634 16.8457 1.30496 16.9183 1.37452 16.9723C3.50582 18.6209 7.50577 18.2347 11.2223 16.0203C13.663 14.5669 15.3977 12.6287 15.9676 10.7186C16.0123 10.568 16.0144 10.539 15.9718 10.6532C15.4745 11.9851 14.2879 12.8675 12.6186 13.1468C12.1909 13.2184 11.8929 13.2412 11.378 13.2412C10.8725 13.2402 10.6067 13.2226 10.1177 13.1582C9.92049 13.1312 9.92049 13.1312 9.86859 13.1655C7.94699 14.3863 5.71912 15.031 4.17334 14.814C3.72798 14.7517 3.4456 14.6355 3.24732 14.433C3.15908 14.3437 3.14454 14.2846 3.1653 14.0967C3.24316 13.3793 3.9003 12.4045 4.90314 11.5179C4.99346 11.439 5.0651 11.3705 5.06406 11.3664C5.06198 11.3622 4.96024 11.2978 4.83774 11.2241C4.028 10.7383 3.28158 10.1839 2.6317 9.58493C2.49674 9.46035 2.49674 9.46035 2.37112 9.58077Z" fill="#523EE7"/>
<path d="M10.9678 5.62751C10.6719 5.64205 10.2047 5.68773 9.96703 5.72615C9.92445 5.73341 9.92445 5.73341 10.1238 5.86421C11.2761 6.62101 12.198 7.53459 12.7077 8.42427C12.9641 8.87171 13.0856 9.30253 13.0171 9.51951C13.0056 9.55687 12.987 9.63267 12.9766 9.68769C12.7856 10.6708 11.6426 11.9882 10.0833 13.0232C10.0075 13.0741 9.94523 13.1177 9.94523 13.1219C9.94523 13.126 9.96703 13.1322 9.99505 13.1354C10.022 13.1385 10.1186 13.1509 10.2099 13.1623C10.9169 13.2527 11.6914 13.2599 12.3194 13.1842C14.0936 12.9693 15.4069 12.0796 15.929 10.7383C15.956 10.6708 15.9893 10.5867 16.0038 10.5535C16.0692 10.3978 16.1346 10.0043 16.1522 9.65135C16.1927 8.86963 15.9903 8.09829 15.5875 7.49099C15.3051 7.06535 15.1681 6.91065 14.8483 6.65321C13.9286 5.91405 12.5489 5.54965 10.9678 5.62751ZM4.90193 7.62905C4.82097 7.67785 4.71299 7.74843 4.66317 7.78477C4.61333 7.82007 4.46487 7.92181 4.33199 8.00901C3.67175 8.44503 3.23883 8.78451 2.55159 9.40531C2.49969 9.45203 2.49969 9.45203 2.61179 9.55585C3.20977 10.1061 3.82539 10.5784 4.53133 11.0269C4.72753 11.1525 5.06907 11.357 5.07945 11.357C5.08361 11.357 5.15731 11.2999 5.24453 11.2293C5.54351 10.9895 5.79163 10.8089 6.11967 10.594C6.24009 10.5161 6.38337 10.4206 6.43943 10.3822C6.83807 10.1144 7.56789 9.73337 8.14717 9.49147C8.22295 9.45929 8.28315 9.43231 8.28213 9.43127C8.28005 9.43023 8.19285 9.39285 8.08695 9.34821C7.02389 8.90493 6.02001 8.31111 5.20715 7.64671C5.13345 7.58649 5.06803 7.53665 5.06181 7.53769C5.05559 7.53769 4.98395 7.57923 4.90193 7.62905Z" fill="#523EE7"/>
<path d="M9.79982 5.75308C8.27168 6.01988 6.83802 6.53792 5.38774 7.34766C5.0441 7.53972 5.06176 7.51688 5.18218 7.6155C6.00232 8.29238 7.00516 8.88722 8.10558 9.34816C8.29556 9.42706 8.29556 9.42706 8.53122 9.33986C9.614 8.93498 10.6739 8.72944 11.5387 8.75538C12.3256 8.77822 12.8353 8.95366 12.9672 9.24538C12.9921 9.3004 13.0118 9.4281 13.0046 9.4935C12.9994 9.5454 12.9994 9.5454 13.0129 9.50908C13.0575 9.3928 13.0098 9.10938 12.8976 8.8322C12.5312 7.91968 11.5169 6.8151 10.2774 5.97732C9.89015 5.71468 9.9244 5.73128 9.79982 5.75308Z" fill="#523EE7"/>
<path d="M8.05584 9.53929C7.543 9.76145 6.80386 10.1445 6.55574 10.3158C6.5277 10.3355 6.45712 10.3823 6.40002 10.4196C6.34292 10.457 6.20796 10.5463 6.09896 10.6179C5.71068 10.8733 5.08676 11.3425 5.10234 11.3675C5.11168 11.382 5.50826 11.599 5.78752 11.7422C7.07272 12.4004 8.42958 12.8665 9.69922 13.0856C9.81758 13.1063 9.92034 13.1198 9.92762 13.1157C9.93384 13.1115 10.0169 13.0565 10.1114 12.9942C11.4983 12.0703 12.5375 10.9377 12.8905 9.96595C12.9195 9.88499 12.9766 9.67943 12.9766 9.65347C12.9766 9.64933 12.9424 9.68047 12.9019 9.72095C12.7379 9.88395 12.3963 10.0085 11.9437 10.0729C11.7309 10.103 11.0592 10.1051 10.8069 10.077C10.0003 9.98569 9.13448 9.76871 8.38494 9.46869C8.3403 9.45103 8.30084 9.43651 8.2967 9.43755C8.29254 9.43755 8.18458 9.48323 8.05584 9.53929Z" fill="#897BF0"/>
<path d="M20.76 14.5143V4.33051H22.2256L22.6634 6.04367C23.0948 5.52339 23.5772 5.08557 24.11 4.73025C24.643 4.37493 25.2648 4.19727 25.9756 4.19727C26.1406 4.19727 26.2992 4.20997 26.4514 4.23535C26.6036 4.24803 26.7496 4.27341 26.8892 4.31149V6.27209C26.7116 6.24671 26.5276 6.22767 26.3372 6.21499C26.1468 6.18961 25.9502 6.17691 25.7472 6.17691C25.3156 6.17691 24.9286 6.22769 24.586 6.32921C24.2434 6.43073 23.9134 6.58935 23.5962 6.80507C23.2916 7.00811 22.9806 7.26191 22.6634 7.56649V14.5143H20.76Z" fill="#523EE7"/>
<path d="M32.6002 14.6285C31.5216 14.6285 30.6586 14.4699 30.0114 14.1526C29.377 13.8354 28.9202 13.3024 28.641 12.5537C28.3744 11.7923 28.2412 10.7453 28.2412 9.41288C28.2412 8.05505 28.3744 7.00177 28.641 6.25307C28.9202 5.49165 29.377 4.95867 30.0114 4.65411C30.646 4.34955 31.5026 4.19727 32.5812 4.19727C33.5202 4.19727 34.2754 4.29879 34.8464 4.50183C35.4302 4.69219 35.8552 5.04115 36.1218 5.54877C36.401 6.04367 36.5404 6.73529 36.5404 7.62359C36.5404 8.24539 36.4136 8.74031 36.1598 9.10833C35.9186 9.47633 35.5698 9.74283 35.1128 9.90779C34.6688 10.0728 34.1358 10.1552 33.514 10.1552H30.1448C30.1574 10.8913 30.2398 11.4814 30.3922 11.9255C30.5572 12.357 30.8426 12.6742 31.2488 12.8773C31.6676 13.0676 32.2766 13.1628 33.0762 13.1628H36.255V14.3049C35.7094 14.381 35.151 14.4508 34.5798 14.5143C34.0088 14.5904 33.349 14.6285 32.6002 14.6285ZM30.1256 8.95605H33.3426C33.8502 8.95605 34.2246 8.86087 34.4656 8.67051C34.7068 8.48017 34.8274 8.13119 34.8274 7.62359C34.8274 7.11599 34.7512 6.71625 34.599 6.42437C34.4594 6.13251 34.2246 5.92311 33.8946 5.79621C33.5646 5.66931 33.1268 5.60587 32.5812 5.60587C31.9594 5.60587 31.4644 5.70105 31.0964 5.89139C30.7412 6.08175 30.4874 6.41803 30.335 6.90025C30.1954 7.38247 30.1256 8.06773 30.1256 8.95605Z" fill="#523EE7"/>
<path d="M42.3281 14.6285C42.0615 14.6285 41.7443 14.6222 41.3763 14.6095C41.0083 14.5968 40.6275 14.5714 40.2341 14.5333C39.8535 14.5079 39.4981 14.4762 39.1681 14.4382C38.8509 14.4001 38.5971 14.3557 38.4067 14.3049V13.1628H42.6897C43.0577 13.1628 43.3749 13.1374 43.6415 13.0867C43.9079 13.0232 44.1109 12.8963 44.2505 12.706C44.4029 12.5156 44.4789 12.2364 44.4789 11.8684V11.4496C44.4789 11.0689 44.3521 10.7707 44.0983 10.555C43.8445 10.3393 43.4257 10.2314 42.8419 10.2314H41.3573C40.7607 10.2314 40.2279 10.1553 39.7583 10.003C39.3015 9.83801 38.9397 9.56517 38.6733 9.18447C38.4195 8.80377 38.2925 8.28981 38.2925 7.64263V7.09061C38.2925 6.44341 38.4131 5.91043 38.6543 5.49165C38.9081 5.07289 39.3077 4.76197 39.8535 4.55893C40.3991 4.34321 41.1225 4.23535 42.0235 4.23535C42.4041 4.23535 42.8229 4.25437 43.2797 4.29245C43.7493 4.31783 44.2061 4.35589 44.6503 4.40665C45.0945 4.45741 45.4497 4.51453 45.7163 4.57797V5.72007H41.6809C41.1225 5.72007 40.6909 5.81525 40.3865 6.00561C40.0945 6.19595 39.9487 6.55763 39.9487 7.09061V7.47131C39.9487 7.80125 40.0185 8.05505 40.1581 8.23271C40.2977 8.41037 40.4943 8.52457 40.7481 8.57535C41.0145 8.62609 41.3255 8.65149 41.6809 8.65149H43.2037C44.1681 8.65149 44.8977 8.87991 45.3927 9.33675C45.8875 9.78089 46.1351 10.4091 46.1351 11.2212V12.0017C46.1351 12.6869 45.9763 13.2199 45.6591 13.6006C45.3419 13.9813 44.8977 14.2478 44.3267 14.4001C43.7683 14.5524 43.1021 14.6285 42.3281 14.6285Z" fill="#523EE7"/>
<path d="M51.1978 14.6285C50.246 14.6285 49.5036 14.3747 48.9708 13.8671C48.4504 13.3469 48.1902 12.5601 48.1902 11.5068V4.33057H50.0938V10.9928C50.0938 11.7542 50.265 12.2682 50.6078 12.5347C50.963 12.8012 51.458 12.9344 52.0924 12.9344C52.6 12.9344 53.0822 12.8583 53.5392 12.706C54.0086 12.541 54.4654 12.319 54.9096 12.0398V4.33057H56.8132V14.5143H55.2904L54.9096 13.4293C54.4148 13.7466 53.8436 14.0258 53.1964 14.2669C52.562 14.508 51.8958 14.6285 51.1978 14.6285Z" fill="#523EE7"/>
<path d="M59.3418 14.5143V4.33048H60.8646L61.2454 5.43452C61.7402 5.09188 62.286 4.79368 62.8824 4.53988C63.4788 4.28608 64.164 4.15918 64.9382 4.15918C65.5726 4.15918 66.112 4.29876 66.5562 4.57794C67.0004 4.85712 67.3366 5.21244 67.565 5.6439C67.8696 5.41548 68.2376 5.18706 68.669 4.95864C69.1006 4.73022 69.5636 4.53988 70.0586 4.3876C70.5536 4.23532 71.0294 4.15918 71.4862 4.15918C72.2476 4.15918 72.8632 4.3178 73.3326 4.63504C73.8148 4.9396 74.1574 5.36472 74.3606 5.9104C74.5762 6.44338 74.6842 7.0525 74.6842 7.73776V14.5143H72.7806V7.89004C72.7806 7.48396 72.6982 7.13498 72.5332 6.84312C72.3808 6.53856 72.1588 6.3038 71.867 6.13882C71.5878 5.97384 71.2452 5.89136 70.839 5.89136C70.3314 5.89136 69.8112 5.99288 69.2782 6.19592C68.7452 6.38628 68.2566 6.62104 67.8124 6.90022C67.8632 7.0652 67.9012 7.2365 67.9266 7.41418C67.952 7.57914 67.9648 7.74412 67.9648 7.90908V14.5143H66.0612V7.89004C66.0612 7.48396 65.9788 7.13498 65.8138 6.84312C65.6614 6.53856 65.4458 6.3038 65.1666 6.13882C64.8874 5.97384 64.5448 5.89136 64.1386 5.89136C63.758 5.89136 63.4026 5.92944 63.0728 6.00558C62.7554 6.08172 62.451 6.18958 62.159 6.32918C61.8672 6.45608 61.5626 6.6147 61.2454 6.80504V14.5143H59.3418Z" fill="#523EE7"/>
<path d="M81.2201 14.6285C80.1415 14.6285 79.2785 14.4699 78.6313 14.1526C77.9969 13.8354 77.5399 13.3024 77.2607 12.5537C76.9943 11.7923 76.8611 10.7453 76.8611 9.41288C76.8611 8.05505 76.9943 7.00177 77.2607 6.25307C77.5399 5.49165 77.9969 4.95867 78.6313 4.65411C79.2659 4.34955 80.1225 4.19727 81.2011 4.19727C82.1401 4.19727 82.8951 4.29879 83.4663 4.50183C84.0499 4.69219 84.4751 5.04115 84.7415 5.54877C85.0207 6.04367 85.1603 6.73529 85.1603 7.62359C85.1603 8.24539 85.0335 8.74031 84.7797 9.10833C84.5385 9.47633 84.1895 9.74283 83.7327 9.90779C83.2885 10.0728 82.7555 10.1552 82.1337 10.1552H78.7645C78.7773 10.8913 78.8597 11.4814 79.0121 11.9255C79.1771 12.357 79.4625 12.6742 79.8687 12.8773C80.2873 13.0676 80.8965 13.1628 81.6959 13.1628H84.8749V14.3049C84.3291 14.381 83.7709 14.4508 83.1997 14.5143C82.6287 14.5904 81.9689 14.6285 81.2201 14.6285ZM78.7455 8.95605H81.9625C82.4701 8.95605 82.8445 8.86087 83.0855 8.67051C83.3267 8.48017 83.4473 8.13119 83.4473 7.62359C83.4473 7.11599 83.3711 6.71625 83.2187 6.42437C83.0791 6.13251 82.8445 5.92311 82.5145 5.79621C82.1845 5.66931 81.7467 5.60587 81.2011 5.60587C80.5793 5.60587 80.0843 5.70105 79.7163 5.89139C79.3611 6.08175 79.1073 6.41803 78.9549 6.90025C78.8153 7.38247 78.7455 8.06773 78.7455 8.95605Z" fill="#523EE7"/>
<path d="M88.2869 14.683V4.34898H90.6347L91.1351 5.4074C91.5199 5.08668 92.0011 4.80442 92.5783 4.56066C93.1685 4.30408 93.7715 4.17578 94.3873 4.17578C95.2341 4.17578 95.8883 4.34258 96.3503 4.67614C96.8121 5.0097 97.1329 5.45872 97.3125 6.02322C97.5049 6.57488 97.6011 7.19068 97.6011 7.87064V14.683H94.7529V8.23628C94.7529 7.90272 94.6889 7.62688 94.5605 7.40878C94.4451 7.19068 94.2783 7.0239 94.0601 6.90844C93.8421 6.79298 93.5791 6.73524 93.2711 6.73524C93.0017 6.73524 92.7387 6.76732 92.4821 6.83146C92.2385 6.8956 92.0011 6.98542 91.7701 7.10088C91.5521 7.21634 91.3403 7.35106 91.1351 7.505V14.683H88.2869Z" fill="#523EE7"/>
<path d="M103.985 14.7795C102.843 14.7795 101.932 14.632 101.252 14.3369C100.572 14.029 100.078 13.4901 99.7702 12.7204C99.4752 11.9506 99.3276 10.8858 99.3276 9.52589C99.3276 8.12749 99.4688 7.04341 99.751 6.27365C100.033 5.50389 100.508 4.96507 101.175 4.65715C101.842 4.34925 102.747 4.19531 103.889 4.19531C104.915 4.19531 105.736 4.29793 106.352 4.50321C106.968 4.70847 107.41 5.06769 107.68 5.58087C107.962 6.09405 108.103 6.81891 108.103 7.75545C108.103 8.44823 107.962 8.99989 107.68 9.41043C107.41 9.80813 107.025 10.0968 106.525 10.2764C106.025 10.4432 105.434 10.5266 104.754 10.5266H102.157C102.182 11.0526 102.259 11.476 102.387 11.7967C102.529 12.1046 102.779 12.3291 103.138 12.4702C103.51 12.5985 104.042 12.6627 104.735 12.6627H107.757V14.3369C107.256 14.4395 106.705 14.5422 106.102 14.6448C105.511 14.7346 104.806 14.7795 103.985 14.7795ZM102.118 8.83311H104.466C104.851 8.83311 105.133 8.75613 105.313 8.60219C105.492 8.44823 105.582 8.17239 105.582 7.77469C105.582 7.40263 105.524 7.10757 105.409 6.88947C105.293 6.65853 105.114 6.49817 104.87 6.40837C104.626 6.30573 104.299 6.25441 103.889 6.25441C103.452 6.25441 103.106 6.33139 102.849 6.48535C102.593 6.62647 102.407 6.88305 102.291 7.25511C102.176 7.62715 102.118 8.15315 102.118 8.83311Z" fill="#523EE7"/>
<path d="M109.876 14.6831V4.34906H112.07L112.724 5.92708C113.096 5.45238 113.513 5.04826 113.975 4.7147C114.45 4.38114 115.008 4.21436 115.649 4.21436C115.79 4.21436 115.931 4.22078 116.072 4.2336C116.226 4.24642 116.368 4.27208 116.496 4.31058V7.23566C116.303 7.21 116.098 7.19076 115.88 7.17794C115.675 7.15228 115.476 7.13944 115.283 7.13944C114.911 7.13944 114.571 7.18434 114.264 7.27416C113.968 7.35114 113.693 7.473 113.436 7.63978C113.192 7.79374 112.955 7.99902 112.724 8.2556V14.6831H109.876Z" fill="#523EE7"/>
<path d="M121.304 14.7986C120.495 14.7986 119.815 14.6319 119.264 14.2983C118.712 13.9519 118.295 13.4002 118.013 12.6433C117.743 11.8736 117.609 10.8664 117.609 9.622C117.609 8.33906 117.724 7.2999 117.955 6.50448C118.199 5.70906 118.603 5.12532 119.167 4.75326C119.732 4.38122 120.508 4.1952 121.496 4.1952C121.971 4.1952 122.439 4.24652 122.901 4.34914C123.363 4.43896 123.773 4.548 124.132 4.6763V0H127V14.6832H124.594L124.132 13.7017C123.914 13.907 123.645 14.093 123.324 14.2598C123.016 14.4266 122.689 14.5613 122.343 14.6639C121.996 14.7537 121.65 14.7986 121.304 14.7986ZM122.304 12.5086C122.689 12.5086 123.036 12.4445 123.343 12.3162C123.664 12.1879 123.927 12.0596 124.132 11.9313V6.7354C123.876 6.6456 123.606 6.5558 123.324 6.46598C123.042 6.37618 122.74 6.33128 122.42 6.33128C121.945 6.33128 121.56 6.41466 121.265 6.58144C120.983 6.74824 120.778 7.06256 120.649 7.5244C120.521 7.97344 120.457 8.62772 120.457 9.4873C120.457 10.2827 120.515 10.9049 120.63 11.354C120.758 11.7902 120.957 12.0917 121.227 12.2584C121.496 12.4252 121.855 12.5086 122.304 12.5086Z" fill="#523EE7"/>
</g>
</g>
<defs>
<clipPath id="clip0_736_565">
<rect width="127" height="18" fill="white"/>
</clipPath>
</defs>
</svg>
