<svg width="130" height="18" viewBox="0 0 130 18" fill="none" xmlns="http://www.w3.org/2000/svg">
<g clip-path="url(#clip0_735_878)">
<path d="M1.36197 5.74323L1.11108 4.23792H0.000244141V14.1474H1.56823V8.76259C1.56823 7.79497 1.81577 7.03645 2.31174 6.48673C2.8076 5.93746 3.50346 5.66251 4.39929 5.66251H5.41182V4.18408H4.53376C3.13622 4.18408 2.07887 4.70392 1.36197 5.74323Z" fill="#523EE7"/>
<path d="M13.9051 4.72198C13.1401 4.25589 12.2684 4.02295 11.2887 4.02295C10.3448 4.02295 9.48623 4.24705 8.71275 4.69493C7.93937 5.14306 7.3329 5.76278 6.89388 6.55412C6.45483 7.34571 6.2356 8.22519 6.2356 9.19289C6.2356 10.1664 6.45485 11.0474 6.89388 11.8358C7.3329 12.6245 7.93937 13.2425 8.71276 13.6906C9.48624 14.1387 10.3448 14.3626 11.2887 14.3626C12.3637 14.3626 13.3151 14.079 14.1425 13.5113C14.8614 13.0181 15.4189 12.3428 15.8335 11.5064H14.0815C13.8099 11.8565 13.4989 12.1648 13.1076 12.387C12.5758 12.6886 11.9698 12.8393 11.2887 12.8393C10.3567 12.8393 9.57269 12.5616 8.93668 12.0062C8.30078 11.4505 7.92283 10.713 7.80358 9.79299H16.2524C16.2701 9.60194 16.2794 9.41682 16.2794 9.23753C16.2794 8.27602 16.0744 7.39947 15.6654 6.60787C15.2563 5.81653 14.6693 5.1877 13.9051 4.72198ZM7.83939 8.35045C8.00047 7.48442 8.39139 6.79298 9.01307 6.27643C9.63422 5.75978 10.3925 5.50128 11.2887 5.50128C12.1726 5.50128 12.9238 5.75659 13.542 6.26732C14.1602 6.77805 14.5528 7.4724 14.7203 8.35045H7.83939Z" fill="#523EE7"/>
<path d="M24.3364 8.79852C23.9121 8.61931 23.2103 8.44914 22.2307 8.28788C21.9503 8.24606 21.7322 8.21026 21.577 8.18029C21.4214 8.15058 21.2333 8.10859 21.0124 8.05484C20.7913 8.00108 20.618 7.94158 20.4928 7.87563C20.3671 7.81003 20.2418 7.7295 20.1166 7.63375C19.9909 7.53819 19.9015 7.42335 19.8475 7.28879C19.7939 7.1545 19.767 7.00367 19.767 6.83649C19.767 6.4063 19.964 6.06134 20.3583 5.80151C20.7526 5.54177 21.284 5.41191 21.9532 5.41191C22.6521 5.41191 23.2015 5.55672 23.6017 5.84625C24.0019 6.13624 24.217 6.54971 24.247 7.08722H25.7252C25.6952 6.14949 25.3443 5.4043 24.6725 4.85186C24.0003 4.2994 23.1058 4.02295 21.9891 4.02295C20.8719 4.02295 19.9699 4.28738 19.2833 4.81597C18.5963 5.34464 18.253 6.03608 18.253 6.89009C18.253 7.11128 18.269 7.31727 18.3019 7.50832C18.3348 7.69954 18.3901 7.87123 18.4677 8.02364C18.5453 8.17587 18.6245 8.31485 18.7051 8.44013C18.786 8.56558 18.8949 8.68069 19.0323 8.78509C19.1698 8.88967 19.2934 8.98073 19.4044 9.05836C19.5144 9.13615 19.6624 9.20785 19.8475 9.27345C20.0327 9.33923 20.1883 9.39298 20.3135 9.43471C20.4388 9.47653 20.6075 9.52144 20.8197 9.56908C21.0318 9.61691 21.1992 9.6528 21.3215 9.67659C21.4438 9.70063 21.6159 9.73034 21.8369 9.76623C22.1173 9.81406 22.34 9.85437 22.504 9.88727C22.6685 9.92016 22.8654 9.96631 23.0957 10.026C23.3256 10.0859 23.506 10.1529 23.6376 10.2276C23.7688 10.3024 23.9004 10.3921 24.0319 10.4965C24.1631 10.6011 24.2588 10.728 24.3187 10.8772C24.3782 11.0266 24.4081 11.194 24.4081 11.3789C24.4081 11.857 24.1918 12.2333 23.7587 12.5079C23.3256 12.7826 22.7655 12.9202 22.0785 12.9202C21.3679 12.9202 20.7868 12.762 20.3359 12.4452C19.9493 12.1741 19.7445 11.7887 19.6586 11.329H18.1028C18.189 12.2203 18.5466 12.9443 19.2027 13.4846C19.9134 14.07 20.8543 14.3626 22.025 14.3626C23.2075 14.3626 24.1573 14.0849 24.8741 13.5293C25.5907 12.9739 25.9492 12.2333 25.9492 11.3072C25.9492 11.194 25.9432 11.0803 25.9314 10.9669C25.8474 9.9334 25.316 9.21076 24.3364 8.79852Z" fill="#523EE7"/>
<path d="M35.6723 9.71246C35.6723 10.6801 35.4202 11.4461 34.9154 12.0106C34.4106 12.5751 33.7193 12.8573 32.8413 12.8573C31.9692 12.8573 31.2792 12.5766 30.7715 12.015C30.2637 11.4537 30.0099 10.6862 30.0099 9.71246V4.23804H28.4512V9.96336C28.4512 11.2954 28.8497 12.3615 29.6471 13.1619C30.4447 13.9624 31.5091 14.3626 32.8413 14.3626C34.179 14.3626 35.2452 13.9624 36.0397 13.1619C36.8342 12.3615 37.2315 11.2954 37.2315 9.96336V4.23804H35.6723V9.71246Z" fill="#523EE7"/>
<path d="M88.3229 4.74858C86.6346 3.66569 84.2995 3.69981 82.6433 4.83142C82.6361 4.83646 82.6289 4.84142 82.6217 4.84636C81.1767 5.84571 80.3301 7.6287 80.4142 9.37712C80.5008 11.1771 81.389 12.8362 82.9814 13.7555C84.3059 14.52 85.9774 14.653 87.4061 14.1074C88.6861 13.6186 89.7227 12.5821 90.2728 11.3291H87.2595C86.6808 11.8898 85.841 12.1832 85.0484 12.0175C84.0629 11.8116 83.2522 10.9428 83.1148 9.9455L86.8925 9.94532V9.93471H89.2971C90.1314 9.90553 90.7531 9.1553 90.619 8.3234C90.3871 6.88502 89.5527 5.53734 88.3229 4.74858ZM87.6789 8.11777H83.1974C83.3526 7.52632 83.6364 7.06644 84.0485 6.73783C84.4605 6.40958 84.9624 6.24505 85.5536 6.24505C86.1571 6.24505 86.6691 6.40639 87.0904 6.72899C87.4334 6.99183 87.6983 7.34802 87.8847 7.79739C87.9477 7.94908 87.8431 8.11777 87.6789 8.11777Z" fill="#523EE7"/>
<path d="M50.6914 4.02295C50.0103 4.02295 49.3727 4.19039 48.7785 4.52475C48.1842 4.85946 47.7018 5.31935 47.3315 5.90443C47.0506 5.31935 46.6474 4.85946 46.122 4.52475C45.5961 4.19041 44.9871 4.02295 44.2942 4.02295C43.6731 4.02295 43.083 4.16193 42.5246 4.43961C41.9658 4.7173 41.4957 5.10425 41.1136 5.59996L40.8626 4.23805H39.7336V14.1475H41.3016V8.65521C41.3016 7.75328 41.5598 6.99316 42.0768 6.37493C42.5934 5.75661 43.2159 5.44754 43.9446 5.44754C44.6615 5.44754 45.217 5.69844 45.6113 6.20032C46.0056 6.70193 46.2025 7.40071 46.2025 8.29689V14.1475H47.7258V8.65521C47.7258 7.75328 47.9839 6.99316 48.501 6.37493C49.0172 5.75661 49.64 5.44754 50.3687 5.44754C51.0735 5.44754 51.6234 5.69844 52.0173 6.20032C52.4116 6.70193 52.609 7.40071 52.609 8.29689L52.6178 14.1475H54.1677V7.81296C54.1677 6.69602 53.848 5.78509 53.2091 5.08021C52.5698 4.37552 51.7309 4.02295 50.6914 4.02295Z" fill="#523EE7"/>
<path d="M63.8311 4.72198C63.0661 4.25589 62.1944 4.02295 61.2148 4.02295C60.271 4.02295 59.4123 4.24705 58.6389 4.69493C57.8654 5.14307 57.2589 5.76279 56.8199 6.55413C56.381 7.34573 56.1616 8.2252 56.1616 9.1929C56.1616 10.1664 56.381 11.0474 56.8199 11.8358C57.2589 12.6245 57.8654 13.2425 58.6389 13.6906C59.4123 14.1387 60.271 14.3626 61.2148 14.3626C62.2897 14.3626 63.2412 14.079 64.0686 13.5113C64.8382 12.9833 65.426 12.2501 65.8469 11.329H64.1433C63.8496 11.763 63.4906 12.1275 63.0337 12.3871C62.5018 12.6886 61.8959 12.8394 61.2148 12.8394C60.2827 12.8394 59.4987 12.5617 58.8628 12.0062C58.2268 11.4506 57.8489 10.713 57.7296 9.79303H66.1785C66.1962 9.60198 66.2054 9.41687 66.2054 9.23757C66.2054 8.27606 66.0005 7.39951 65.5915 6.60791C65.1823 5.81653 64.5953 5.1877 63.8311 4.72198ZM57.7654 8.35045C57.9266 7.48442 58.3175 6.79298 58.9391 6.27643C59.5603 5.75978 60.3186 5.50128 61.2148 5.50128C62.0987 5.50128 62.8498 5.75659 63.468 6.26732C64.0862 6.77805 64.4789 7.4724 64.6463 8.35045H57.7654Z" fill="#523EE7"/>
<path d="M76.2451 5.22378C75.3371 4.38162 74.2411 3.96045 72.9569 3.96045C72.0489 3.96045 71.2173 4.18147 70.4619 4.62341C69.7062 5.06562 69.1116 5.66723 68.6789 6.42885C68.2457 7.19048 68.0291 8.0253 68.0291 8.93307C68.0291 9.84693 68.2457 10.6847 68.6789 11.4463C69.1116 12.2079 69.7062 12.8068 70.4619 13.2426C71.2173 13.6789 72.0489 13.8968 72.9569 13.8968C74.0024 13.8968 74.9462 13.6011 75.7884 13.0099V13.386C75.7884 14.091 75.5492 14.654 75.0715 15.0751C74.5936 15.4961 74.0053 15.7066 73.3065 15.7066C72.7806 15.7066 72.2956 15.5887 71.8507 15.3528C71.6701 15.2571 71.5262 15.1385 71.3973 15.0105H68.4958C68.7845 15.8381 69.2759 16.5176 69.9913 17.0327C70.8875 17.6778 72.0072 18.0004 73.3512 18.0004C74.9221 18.0004 76.1586 17.5538 77.0607 16.661C77.9624 15.768 78.4136 14.5477 78.4136 13.0009V4.23822H77.7506C77.0975 4.23822 76.5063 4.62518 76.2451 5.22378ZM75.0807 10.7743C74.6025 11.2612 73.9994 11.5046 73.2706 11.5046C72.536 11.5046 71.9313 11.2612 71.4564 10.7743C70.9815 10.2876 70.7441 9.67382 70.7441 8.93307C70.7441 8.19841 70.9828 7.59069 71.4606 7.10993C71.9384 6.62918 72.5419 6.38853 73.2706 6.38853C74.0053 6.38853 74.6101 6.62918 75.0849 7.10993C75.5598 7.59069 75.7972 8.19839 75.7972 8.93307C75.7972 9.67384 75.5585 10.2876 75.0807 10.7743Z" fill="#523EE7"/>
<path d="M98.2673 4.00488C97.6043 4.00488 96.9873 4.13501 96.4172 4.39476C95.8466 4.65459 95.37 5.01158 94.9879 5.46538L94.8926 5.2402C94.6354 4.63267 94.0398 4.23793 93.38 4.23793H92.6313V14.1474H95.3106V8.9418C95.3106 8.14136 95.5088 7.50986 95.9065 7.04679C96.3034 6.58398 96.8456 6.35244 97.5326 6.35244C98.6852 6.35244 99.2617 7.0932 99.2617 8.57447V14.1474H101.941V8.14436C101.941 6.8842 101.609 5.87903 100.946 5.12942C100.283 4.37982 99.39 4.00488 98.2673 4.00488Z" fill="#523EE7"/>
<path d="M105.703 2.91514C106.508 2.91514 107.161 2.26256 107.161 1.45757C107.161 0.652576 106.508 0 105.703 0C104.898 0 104.246 0.652576 104.246 1.45757C104.246 2.26256 104.898 2.91514 105.703 2.91514Z" fill="#523EE7"/>
<path d="M105.506 4.25366H104.469V14.1632H107.148V5.89635C107.148 4.98912 106.413 4.25366 105.506 4.25366Z" fill="#523EE7"/>
<path d="M116.29 5.88063V9.65862C116.29 10.3575 116.116 10.9072 115.77 11.3072C115.423 11.7076 114.94 11.9075 114.318 11.9075C113.697 11.9075 113.211 11.7091 112.858 11.3118C112.505 10.9145 112.33 10.3636 112.33 9.65862V4.23804H109.65V9.96336C109.65 11.3015 110.079 12.3794 110.936 13.1978C111.793 14.0161 112.921 14.4253 114.318 14.4253C115.722 14.4253 116.848 14.0161 117.696 13.1978C118.545 12.3794 118.969 11.3015 118.969 9.96336V4.23804H117.932C117.025 4.23804 116.29 4.97341 116.29 5.88063Z" fill="#523EE7"/>
<path d="M127.63 8.58368C127.206 8.39873 126.513 8.21954 125.552 8.04618C125.324 8.00445 125.156 7.97297 125.045 7.95211C124.935 7.93125 124.791 7.89836 124.615 7.85344C124.439 7.80871 124.308 7.7638 124.221 7.71916C124.134 7.67424 124.042 7.6204 123.943 7.55781C123.845 7.49522 123.776 7.42051 123.737 7.33388C123.698 7.24725 123.679 7.15017 123.679 7.04267C123.679 6.75587 123.797 6.52602 124.033 6.35274C124.269 6.17963 124.593 6.09291 125.005 6.09291C125.477 6.09291 125.843 6.19139 126.102 6.38854C126.189 6.45432 126.262 6.53061 126.32 6.6176C126.613 7.05407 127.146 7.2666 127.672 7.2666H129.046C129.04 6.27512 128.675 5.47619 127.953 4.86998C127.23 4.26368 126.271 3.96045 125.077 3.96045C123.815 3.96045 122.81 4.29197 122.06 4.95415C121.405 5.53207 121.067 6.36327 121.091 7.2362C121.099 7.51849 121.139 7.77963 121.21 8.01922C121.291 8.28807 121.393 8.51659 121.515 8.70473C121.638 8.89277 121.802 9.06463 122.008 9.21988C122.214 9.37521 122.409 9.49924 122.595 9.59162C122.78 9.68437 123.008 9.76958 123.28 9.84694C123.552 9.92474 123.783 9.98291 123.974 10.0217C124.166 10.0608 124.402 10.104 124.683 10.1517C124.993 10.2054 125.244 10.2548 125.435 10.2995C125.626 10.3444 125.82 10.407 126.017 10.4877C126.215 10.5683 126.359 10.6685 126.452 10.7878C126.545 10.9074 126.591 11.0476 126.591 11.2089C126.591 11.5256 126.455 11.7704 126.183 11.9436C125.911 12.1169 125.578 12.2035 125.184 12.2035C124.688 12.2035 124.29 12.0901 123.988 11.863C123.805 11.7255 123.695 11.5392 123.621 11.3292H120.963C121.063 12.1856 121.42 12.9 122.071 13.4533C122.832 14.1015 123.834 14.4254 125.077 14.4254C126.331 14.4254 127.337 14.1224 128.096 13.516C128.855 12.9099 129.234 12.1019 129.234 11.0925C129.234 9.89777 128.7 9.0617 127.63 8.58368Z" fill="#523EE7"/>
</g>
<defs>
<clipPath id="clip0_735_878">
<rect width="129.234" height="18" fill="white"/>
</clipPath>
</defs>
</svg>
