<svg width="56" height="24" viewBox="0 0 56 24" fill="none" xmlns="http://www.w3.org/2000/svg">
<path fill-rule="evenodd" clip-rule="evenodd" d="M16.0513 20.3831C15.8848 20.3831 15.5518 20.5859 15.0856 20.5859C14.4528 20.5859 14.0199 20.3493 14.0199 19.369C14.0199 18.7606 15.2854 6.92958 15.2854 6.92958C15.2854 6.38874 14.7858 5.9831 13.6203 5.9831H12.9543C11.822 5.9831 11.1893 6.28733 11.1227 6.92958C11.1227 6.92958 10.4233 13.3183 10.057 17.2056C9.15789 19.4366 7.65933 20.4507 6.29397 20.4507C4.86201 20.4507 4.22928 19.7408 4.22928 18.4563C4.22928 18.0169 5.39483 6.92958 5.39483 6.92958C5.39483 6.38874 4.92861 5.9831 3.72976 5.9831H3.09703C1.93148 5.9831 1.29876 6.28733 1.23215 6.92958C1.23215 6.92958 0 18.7268 0 19.6394C0 22.4113 1.29876 23.9662 4.39579 23.9662C6.52708 23.9662 8.59177 22.7493 9.89053 20.9915C10.1569 23.0873 11.4557 23.9662 13.4871 23.9662C14.4528 23.9662 15.8848 23.5606 16.0846 22.4451C16.2511 21.431 16.2844 20.7549 16.2844 20.7211C16.2844 20.4507 16.1845 20.3831 16.0513 20.3831ZM30.1711 5.9831H29.605C28.839 5.9831 28.1064 6.15211 27.9066 6.62535L24.8429 13.8592C24.41 14.907 23.7772 16.6986 23.2777 18.1859H23.1445C22.8781 16.6648 22.6783 14.9408 22.4452 13.8592L20.88 6.62535C20.7468 6.15211 20.0808 5.9831 19.2482 5.9831H18.449C17.1169 5.9831 16.5841 6.25352 16.5841 6.72676C16.5841 6.82817 16.6174 6.96338 16.6507 7.2L20.3139 23.1549C20.4471 23.6282 21.0465 23.7972 21.9456 23.7972H23.0446C23.8771 23.7972 24.5432 23.6282 24.743 23.1549L31.7363 7.2338C31.8362 6.99718 31.8695 6.82816 31.8695 6.65915C31.8695 6.0507 30.9703 5.9831 30.1711 5.9831ZM47.3546 20.3831C47.2214 20.3831 46.8551 20.5859 46.4222 20.5859C45.7895 20.5859 45.3565 20.3831 45.3565 19.369C45.3565 18.693 46.622 6.89578 46.622 6.79437C46.622 6.28733 46.1891 6.01691 45.0901 6.01691H44.7571C43.3585 6.01691 43.192 6.49014 42.8589 7.63944C42.1263 6.92958 40.6944 5.81408 38.7296 5.81408C34.1673 5.81408 31.0702 10.2423 31.0702 16.6648C31.0702 21.8366 33.6678 24 36.5317 24C38.4632 24 40.1615 22.9183 41.2605 21.1268C41.5602 23.1211 42.8256 23.9662 44.8237 23.9662C45.7895 23.9662 47.2214 23.5606 47.4212 22.4451C47.5878 21.431 47.6211 20.7549 47.6211 20.7211C47.6211 20.4507 47.5211 20.3831 47.3546 20.3831ZM41.8932 12C41.8266 12.4732 41.5935 15.3465 41.3937 17.1718C40.4945 19.4704 39.1625 20.4845 37.9303 20.4845C36.2986 20.4845 35.2995 19.3014 35.2995 16.3944C35.2995 12.169 36.5317 9.22817 39.5621 9.22817C40.761 9.22817 41.6268 9.80282 42.2262 10.3099C42.0597 11.0535 41.9598 11.5268 41.8932 12ZM53.9816 0H52.8494C51.6172 0 51.0511 0.338027 50.9845 0.946477L49.4859 15.5155C49.4859 16.1577 49.6524 16.462 50.8513 16.462H51.2176C52.3166 16.462 52.6163 16.1239 52.7495 15.5155C53.7485 10.6479 55.68 1.45352 55.68 0.878877C55.68 0.338032 55.1805 0 53.9816 0ZM51.2176 19.0986H50.3185C49.0863 19.0986 48.5535 19.4366 48.4869 20.0451L48.1872 22.8507C48.1872 23.4592 48.5868 23.7972 49.8522 23.7972H50.7514C51.9502 23.7972 52.5164 23.4592 52.583 22.8507L52.8827 20.0451C52.8827 19.4366 52.4831 19.0986 51.2176 19.0986Z" fill="#523EE7"/>
</svg>
