<svg width="73" height="20" viewBox="0 0 73 20" fill="none" xmlns="http://www.w3.org/2000/svg">
<path d="M3.12283 1.10506L6.27065 7.96807L9.66517 1.33514e-05L13.0841 7.96807L16.1952 1.10506H19.3053L13.0103 14.0171L9.66517 6.27782L6.28279 14.0171L0 1.10506H3.12283Z" fill="#523EE7"/>
<path d="M21.4253 7.08445C21.4253 8.23754 21.7344 9.17621 22.352 9.90048C22.9863 10.6333 23.7855 10.9995 24.7496 10.9995C25.7795 10.9995 26.6112 10.6458 27.2456 9.93747C27.8802 9.20511 28.1971 8.27438 28.1971 7.14672C28.1971 6.01878 27.8802 5.08813 27.2456 4.35526C26.6112 3.63886 25.7871 3.28063 24.7742 3.28063C23.8185 3.28063 23.0196 3.64283 22.3766 4.36739C21.7426 5.10062 21.4253 6.00607 21.4253 7.08445ZM28.0213 1.10522H30.8109V13.1231H28.0213V11.8634C26.8767 12.9367 25.6455 13.4731 24.3278 13.4731C22.6641 13.4731 21.2887 12.8725 20.2017 11.6715C19.1226 10.445 18.583 8.91442 18.583 7.07911C18.583 5.27696 19.1226 3.77604 20.2017 2.57434C21.2805 1.3725 22.6311 0.771976 24.2536 0.771976C25.6536 0.771976 26.9097 1.34844 28.0213 2.50001V1.10522Z" fill="#523EE7"/>
<path d="M41.6846 7.19561C41.6846 6.04325 41.3715 5.10486 40.7453 4.37943C40.1115 3.64693 39.3117 3.28053 38.3481 3.28053C37.3264 3.28053 36.4982 3.63458 35.8643 4.34288C35.2299 5.05111 34.9125 5.98141 34.9125 7.13363C34.9125 8.262 35.2299 9.19201 35.8643 9.92509C36.4903 10.6421 37.314 10.9994 38.336 10.9994C39.2997 10.9994 40.0949 10.6375 40.7203 9.9131C41.3627 9.1884 41.6846 8.28266 41.6846 7.19561ZM35.0706 19.6663H32.2988V1.10512H35.0745V2.41337C36.1698 1.31924 37.4137 0.771881 38.8057 0.771881C40.4616 0.771881 41.8247 1.38129 42.8955 2.59852C43.9825 3.80874 44.5265 5.33473 44.5265 7.17812C44.5265 8.9802 43.9868 10.4825 42.9074 11.6837C41.8363 12.8768 40.4844 13.473 38.8524 13.473C37.4438 13.473 36.183 12.9097 35.0706 11.7821V19.6663Z" fill="#523EE7"/>
<path d="M48.2038 7.08445C48.2038 8.23754 48.513 9.17621 49.1311 9.90048C49.7652 10.6333 50.564 10.9995 51.5287 10.9995C52.558 10.9995 53.3906 10.6458 54.0244 9.93747C54.659 9.20511 54.9758 8.27438 54.9758 7.14672C54.9758 6.01878 54.659 5.08813 54.0244 4.35526C53.3906 3.63886 52.5662 3.28063 51.5527 3.28063C50.5969 3.28063 49.7983 3.64283 49.1555 4.36739C48.5217 5.10062 48.2038 6.00607 48.2038 7.08445ZM54.8001 1.10522H57.5897V13.1231H54.8001V11.8634C53.6556 12.9367 52.4242 13.4731 51.1071 13.4731C49.4427 13.4731 48.0673 12.8725 46.9807 11.6715C45.9011 10.445 45.3621 8.91442 45.3621 7.07911C45.3621 5.27696 45.9011 3.77604 46.9807 2.57434C48.0593 1.3725 49.4102 0.771976 51.0323 0.771976C52.4324 0.771976 53.6884 1.34844 54.8001 2.50001V1.10522Z" fill="#523EE7"/>
<path d="M58.6479 1.10576L61.3319 3.52686H72.0162V1.10576H58.6479Z" fill="#523EE7"/>
<path d="M65.2893 7.09755L63.9255 8.3272L72.016 8.32764L72.0163 5.90546H63.9683L65.2893 7.09755Z" fill="#523EE7"/>
<path d="M58.605 13.1272H72.0163V10.7057H61.2894L58.605 13.1272Z" fill="#523EE7"/>
<path d="M37.2358 15.5799H37.9107L38.4656 17.2212L39.0635 15.5799H39.4754L40.0561 17.2027L40.6078 15.5799H41.2859L40.2875 18.4648H39.8492L39.2608 16.8208L38.662 18.4648H38.2283L37.2358 15.5799Z" fill="#523EE7"/>
<path d="M41.3774 15.5799H42.0523L42.6072 17.2212L43.2051 15.5799H43.617L44.1977 17.2027L44.7494 15.5799H45.4275L44.4291 18.4648H43.9908L43.4025 16.8208L42.8036 18.4648H42.3699L41.3774 15.5799Z" fill="#523EE7"/>
<path d="M45.5188 15.5799H46.1937L46.7486 17.2212L47.3465 15.5799H47.7584L48.339 17.2027L48.8908 15.5799H49.5688L48.5705 18.4648H48.1321L47.5438 16.8208L46.9449 18.4648H46.5112L45.5188 15.5799Z" fill="#523EE7"/>
<path d="M50.3583 17.7066C50.468 17.7066 50.5616 17.7471 50.6393 17.8277C50.717 17.9083 50.7559 18.0063 50.7559 18.1214C50.7559 18.2367 50.717 18.3351 50.6393 18.4166C50.5616 18.4979 50.468 18.5388 50.3583 18.5388C50.2485 18.5388 50.1549 18.4979 50.0771 18.4166C49.9994 18.3351 49.9607 18.2367 49.9607 18.1214C49.9607 18.0063 49.9994 17.9083 50.0771 17.8277C50.1549 17.7471 50.2485 17.7066 50.3583 17.7066Z" fill="#523EE7"/>
<path d="M51.1091 15.5799H51.784L52.3389 17.2212L52.9368 15.5799H53.3487L53.9293 17.2027L54.4811 15.5799H55.1591L54.1608 18.4648H53.7225L53.1341 16.8208L52.5353 18.4648H52.1016L51.1091 15.5799Z" fill="#523EE7"/>
<path d="M56.8765 16.1717C56.6633 16.1717 56.4863 16.2509 56.3453 16.4089C56.2043 16.567 56.1339 16.7697 56.1339 17.017C56.1339 17.2663 56.2056 17.4713 56.3492 17.6319C56.4926 17.7927 56.6693 17.8731 56.8791 17.8731C57.0955 17.8731 57.2751 17.794 57.4179 17.636C57.5605 17.4779 57.6318 17.2707 57.6318 17.0144C57.6318 16.7636 57.5605 16.5603 57.4179 16.4049C57.2751 16.2494 57.0947 16.1717 56.8765 16.1717ZM57.6041 15.5799H58.2976V18.4648H57.6041V18.1583C57.4683 18.2932 57.3322 18.3903 57.1957 18.4497C57.0591 18.5091 56.9112 18.5388 56.7517 18.5388C56.3937 18.5388 56.0842 18.3943 55.823 18.1054C55.5618 17.8164 55.4312 17.4573 55.4312 17.0277C55.4312 16.5824 55.5574 16.2175 55.8103 15.9329C56.063 15.6482 56.37 15.5059 56.7313 15.5059C56.8975 15.5059 57.0535 15.5386 57.1994 15.6037C57.3453 15.6689 57.4801 15.7666 57.6041 15.8969V15.5799Z" fill="#523EE7"/>
<path d="M60.3972 16.1718C60.1807 16.1718 60.0011 16.2495 59.8585 16.405C59.7157 16.5604 59.6445 16.7637 59.6445 17.0145C59.6445 17.2708 59.7157 17.478 59.8585 17.6361C60.0011 17.7941 60.1807 17.8731 60.3972 17.8731C60.607 17.8731 60.7836 17.7928 60.9272 17.632C61.0707 17.4714 61.1425 17.2663 61.1425 17.0171C61.1425 16.7698 61.072 16.5671 60.931 16.409C60.7899 16.2509 60.6121 16.1718 60.3972 16.1718ZM59.6723 15.58V15.897C59.7977 15.7666 59.9332 15.669 60.0788 15.6038C60.2245 15.5387 60.3803 15.506 60.5465 15.506C60.9074 15.506 61.214 15.6483 61.4665 15.9329C61.7189 16.2176 61.8452 16.5825 61.8452 17.0278C61.8452 17.4573 61.7147 17.8165 61.4538 18.1055C61.1929 18.3944 60.8836 18.5389 60.5261 18.5389C60.3669 18.5389 60.2187 18.5091 60.0814 18.4498C59.9442 18.3902 59.8078 18.293 59.6723 18.1581V19.519H58.9788V15.58H59.6723Z" fill="#523EE7"/>
<path d="M63.7132 16.1717C63.4999 16.1717 63.3229 16.2509 63.1819 16.4089C63.0409 16.567 62.9706 16.7697 62.9706 17.017C62.9706 17.2663 63.0422 17.4713 63.1858 17.6319C63.3293 17.7927 63.506 17.8731 63.7158 17.8731C63.9322 17.8731 64.1118 17.794 64.2545 17.636C64.3971 17.4779 64.4685 17.2707 64.4685 17.0144C64.4685 16.7636 64.3971 16.5603 64.2545 16.4049C64.1118 16.2494 63.9313 16.1717 63.7132 16.1717ZM64.4408 15.5799H65.1343V18.4648H64.4408V18.1583C64.305 18.2932 64.1689 18.3903 64.0323 18.4497C63.8958 18.5091 63.7479 18.5388 63.5884 18.5388C63.2303 18.5388 62.9209 18.3943 62.6596 18.1054C62.3984 17.8164 62.2678 17.4573 62.2678 17.0277C62.2678 16.5824 62.3941 16.2175 62.6469 15.9329C62.8996 15.6482 63.2066 15.5059 63.568 15.5059C63.7341 15.5059 63.8902 15.5386 64.0361 15.6037C64.182 15.6689 64.3168 15.7666 64.4408 15.8969V15.5799Z" fill="#523EE7"/>
<path d="M66.2038 17.7066C66.3134 17.7066 66.407 17.7471 66.4848 17.8277C66.5625 17.9083 66.6014 18.0063 66.6014 18.1214C66.6014 18.2367 66.5625 18.3351 66.4848 18.4166C66.407 18.4979 66.3134 18.5388 66.2038 18.5388C66.094 18.5388 66.0003 18.4979 65.9226 18.4166C65.8449 18.3351 65.8062 18.2367 65.8062 18.1214C65.8062 18.0063 65.8449 17.9083 65.9226 17.8277C66.0003 17.7471 66.094 17.7066 66.2038 17.7066Z" fill="#523EE7"/>
<path d="M67.3475 14.5073H68.041V15.5799H68.4478V16.1902H68.041V18.4648H67.3475V16.1902H66.9961V15.5799H67.3475V14.5073Z" fill="#523EE7"/>
<path d="M68.5251 15.5799H69.2305L69.9214 17.2823L70.6202 15.5799H71.3176L70.1332 18.4648H69.6959L68.5251 15.5799Z" fill="#523EE7"/>
</svg>
