<svg preserveAspectRatio="none" width="100%" height="100%" overflow="visible" style="display: block;" viewBox="0 0 96.3702 26.3168" fill="none" xmlns="http://www.w3.org/2000/svg">
<g id="g11">
<path id="path15" d="M4.17888 24.838L8.39122 15.6541L12.9337 26.3168L17.5088 15.6541L21.6719 24.838H25.8339L17.41 7.55948L12.9337 17.916L8.40746 7.55948L0 24.838H4.17888Z" fill="var(--fill-0, #A8ADB5)"/>
<path id="path17" d="M28.6706 16.8368C28.6706 15.2937 29.0844 14.0376 29.9108 13.0684C30.7595 12.0878 31.8291 11.5977 33.1191 11.5977C34.4973 11.5977 35.6103 12.071 36.4592 13.0189C37.3085 13.999 37.7325 15.2444 37.7325 16.7534C37.7325 18.2628 37.3085 19.5082 36.4592 20.4889C35.6103 21.4476 34.5075 21.9269 33.1521 21.9269C31.8732 21.9269 30.8041 21.4422 29.9438 20.4727C29.0953 19.4915 28.6706 18.2798 28.6706 16.8368ZM37.4973 24.838H41.2303V8.75604H37.4973V10.4418C35.9656 9.00545 34.3181 8.28759 32.5548 8.28759C30.3284 8.28759 28.4878 9.09129 27.0333 10.6985C25.5892 12.3397 24.8672 14.388 24.8672 16.8439C24.8672 19.2555 25.5892 21.264 27.0333 22.8721C28.4769 24.4803 30.2843 25.2839 32.4555 25.2839C34.3289 25.2839 36.0097 24.5125 37.4973 22.9715V24.838Z" fill="var(--fill-0, #A8ADB5)"/>
<path id="path19" d="M55.781 16.6879C55.781 18.2299 55.3621 19.4857 54.5242 20.4564C53.676 21.4366 52.6057 21.9269 51.3163 21.9269C49.949 21.9269 48.8408 21.4532 47.9925 20.5053C47.1435 19.5576 46.7188 18.3127 46.7188 16.7708C46.7188 15.2609 47.1435 14.0164 47.9925 13.0354C48.8302 12.0758 49.9324 11.5977 51.3001 11.5977C52.5896 11.5977 53.6538 12.082 54.4907 13.0514C55.3503 14.0212 55.781 15.2332 55.781 16.6879ZM46.9304 0H43.2213V24.838H46.9357V23.0873C48.4014 24.5515 50.0658 25.2839 51.9286 25.2839C54.1444 25.2839 55.9686 24.4685 57.4014 22.8396C58.8561 21.2201 59.584 19.1781 59.584 16.7113C59.584 14.2998 58.8619 12.2895 57.4174 10.6821C55.984 9.08549 54.175 8.28759 51.9911 8.28759C50.1062 8.28759 48.419 9.04141 46.9304 10.5504V0Z" fill="var(--fill-0, #A8ADB5)"/>
<path id="path21" d="M64.5048 16.8368C64.5048 15.2937 64.9185 14.0376 65.7456 13.0684C66.5942 12.0878 67.6632 11.5977 68.9541 11.5977C70.3314 11.5977 71.4456 12.071 72.2938 13.0189C73.1429 13.999 73.5669 15.2444 73.5669 16.7534C73.5669 18.2628 73.1429 19.5082 72.2938 20.4889C71.4456 21.4476 70.3424 21.9269 68.9862 21.9269C67.7072 21.9269 66.6385 21.4422 65.7783 20.4727C64.9301 19.4915 64.5048 18.2798 64.5048 16.8368ZM73.3318 24.838H77.0648V8.75604H73.3318V10.4418C71.8002 9.00545 70.1524 8.28759 68.3899 8.28759C66.1627 8.28759 64.3221 9.09129 62.868 10.6985C61.4234 12.3397 60.7021 14.388 60.7021 16.8439C60.7021 19.2555 61.4234 21.264 62.868 22.8721C64.3115 24.4803 66.1192 25.2839 68.2898 25.2839C70.1634 25.2839 71.8441 24.5125 73.3318 22.9715V24.838Z" fill="var(--fill-0, #A8ADB5)"/>
<path id="path23" d="M78.4811 24.8373L82.0728 21.5975H96.3702V24.8373H78.4811Z" fill="var(--fill-0, #A8ADB5)"/>
<path id="path25" d="M87.3683 16.8192L85.5434 15.1737L96.3698 15.1731L96.3702 18.4144H85.6006L87.3683 16.8192Z" fill="var(--fill-0, #A8ADB5)"/>
<path id="path27" d="M78.4235 8.75063H96.3702V11.991H82.0157L78.4235 8.75063Z" fill="var(--fill-0, #A8ADB5)"/>
<path id="path45" d="M49.828 5.46835H50.7311L51.4737 3.27204L52.2737 5.46835H52.8249L53.6019 3.29678L54.3403 5.46835H55.2476L53.9117 1.60779H53.3251L52.5378 3.80777L51.7364 1.60779H51.156L49.828 5.46835Z" fill="var(--fill-0, #A8ADB5)"/>
<path id="path47" d="M55.37 5.46835H56.2731L57.0157 3.27204L57.8157 5.46835H58.3669L59.1439 3.29678L59.8823 5.46835H60.7896L59.4537 1.60779H58.8671L58.0798 3.80777L57.2784 1.60779H56.698L55.37 5.46835Z" fill="var(--fill-0, #A8ADB5)"/>
<path id="path49" d="M60.912 5.46835H61.8151L62.5577 3.27204L63.3577 5.46835H63.9089L64.686 3.29678L65.4243 5.46835H66.3316L64.9957 1.60779H64.4091L63.6218 3.80777L62.8204 1.60779H62.2401L60.912 5.46835Z" fill="var(--fill-0, #A8ADB5)"/>
<path id="path51" d="M67.3882 2.62242C67.535 2.62242 67.6603 2.56829 67.7643 2.46041C67.8683 2.35253 67.9203 2.22144 67.9203 2.06735C67.9203 1.91307 67.8683 1.78141 67.7643 1.67237C67.6603 1.56352 67.535 1.5088 67.3882 1.5088C67.2413 1.5088 67.116 1.56352 67.012 1.67237C66.908 1.78141 66.8562 1.91307 66.8562 2.06735C66.8562 2.22144 66.908 2.35253 67.012 2.46041C67.116 2.56829 67.2413 2.62242 67.3882 2.62242Z" fill="var(--fill-0, #A8ADB5)"/>
<path id="path53" d="M68.3926 5.46835H69.2957L70.0383 3.27204L70.8383 5.46835H71.3895L72.1666 3.29678L72.9049 5.46835H73.8122L72.4763 1.60779H71.8897L71.1024 3.80777L70.301 1.60779H69.7206L68.3926 5.46835Z" fill="var(--fill-0, #A8ADB5)"/>
<path id="path55" d="M76.1102 4.67644C75.8249 4.67644 75.588 4.57049 75.3993 4.35898C75.2106 4.14747 75.1165 3.87622 75.1165 3.54522C75.1165 3.21172 75.2124 2.93737 75.4046 2.72238C75.5965 2.5072 75.833 2.3997 76.1137 2.3997C76.4033 2.3997 76.6437 2.50546 76.8347 2.71697C77.0255 2.92848 77.121 3.20572 77.121 3.5487C77.121 3.88434 77.0255 4.15636 76.8347 4.36439C76.6437 4.57242 76.4022 4.67644 76.1102 4.67644ZM77.0839 5.46835H78.0119V1.60779H77.0839V2.01805C76.9022 1.83748 76.72 1.70755 76.5373 1.62809C76.3546 1.54863 76.1566 1.5088 75.9432 1.5088C75.4641 1.5088 75.05 1.70214 74.7004 2.08881C74.3509 2.47549 74.1761 2.95612 74.1761 3.53092C74.1761 4.12678 74.3451 4.61515 74.6834 4.99602C75.0216 5.3769 75.4324 5.56734 75.9159 5.56734C76.1383 5.56734 76.3471 5.52364 76.5424 5.43645C76.7376 5.34925 76.918 5.21856 77.0839 5.04416V5.46835Z" fill="var(--fill-0, #A8ADB5)"/>
<path id="path57" d="M80.8219 4.67644C80.5321 4.67644 80.2917 4.57242 80.1009 4.36439C79.9099 4.15636 79.8146 3.88434 79.8146 3.5487C79.8146 3.20572 79.9099 2.92848 80.1009 2.71697C80.2917 2.50546 80.5321 2.3997 80.8219 2.3997C81.1026 2.3997 81.3389 2.5072 81.531 2.72238C81.723 2.93737 81.8191 3.21172 81.8191 3.54522C81.8191 3.87622 81.7248 4.14747 81.5361 4.35898C81.3474 4.57049 81.1094 4.67644 80.8219 4.67644ZM79.8517 5.46835V5.04416C80.0195 5.21855 80.2009 5.34925 80.3958 5.43645C80.5906 5.52364 80.7993 5.56733 81.0216 5.56733C81.5045 5.56733 81.9148 5.3769 82.2528 4.99602C82.5905 4.61515 82.7595 4.12678 82.7595 3.53092C82.7595 2.95612 82.5849 2.47549 82.2357 2.08881C81.8866 1.70214 81.4726 1.5088 80.9943 1.5088C80.7813 1.5088 80.5829 1.54863 80.3992 1.62809C80.2156 1.70775 80.0331 1.83786 79.8517 2.01844V0.197204H78.9237V5.46835H79.8517Z" fill="var(--fill-0, #A8ADB5)"/>
<path id="path59" d="M85.259 4.67644C84.9736 4.67644 84.7368 4.57049 84.5481 4.35898C84.3594 4.14747 84.2652 3.87622 84.2652 3.54522C84.2652 3.21172 84.3611 2.93737 84.5533 2.72238C84.7453 2.5072 84.9817 2.3997 85.2624 2.3997C85.5521 2.3997 85.7924 2.50546 85.9834 2.71697C86.1742 2.92848 86.2697 3.20572 86.2697 3.5487C86.2697 3.88434 86.1742 4.15636 85.9834 4.36439C85.7924 4.57242 85.5509 4.67644 85.259 4.67644ZM86.2326 5.46835H87.1606V1.60779H86.2326V2.01805C86.0509 1.83748 85.8687 1.70755 85.686 1.62809C85.5033 1.54863 85.3054 1.5088 85.0919 1.5088C84.6128 1.5088 84.1987 1.70214 83.8491 2.08881C83.4996 2.47549 83.3248 2.95612 83.3248 3.53092C83.3248 4.12678 83.4938 4.61515 83.8321 4.99602C84.1703 5.3769 84.5811 5.56734 85.0647 5.56734C85.287 5.56734 85.4958 5.52364 85.6911 5.43645C85.8863 5.34925 86.0667 5.21856 86.2326 5.04416V5.46835Z" fill="var(--fill-0, #A8ADB5)"/>
<path id="path61" d="M88.5921 2.62242C88.7388 2.62242 88.8641 2.56829 88.9681 2.46041C89.0721 2.35253 89.1242 2.22144 89.1242 2.06735C89.1242 1.91307 89.0721 1.78141 88.9681 1.67237C88.8641 1.56352 88.7388 1.5088 88.5921 1.5088C88.4452 1.5088 88.3199 1.56352 88.2159 1.67237C88.1118 1.78141 88.06 1.91307 88.06 2.06735C88.06 2.22144 88.1118 2.35253 88.2159 2.46041C88.3199 2.56829 88.4452 2.62242 88.5921 2.62242Z" fill="var(--fill-0, #A8ADB5)"/>
<path id="path63" d="M90.1224 6.90368H91.0504V5.46835H91.5948V4.65169H91.0504V1.60779H90.1224V4.65169H89.6522V5.46835H90.1224V6.90368Z" fill="var(--fill-0, #A8ADB5)"/>
<path id="path65" d="M91.6986 5.46835H92.6425L93.567 3.19026L94.5022 5.46835H95.4355L93.8505 1.60779H93.2652L91.6986 5.46835Z" fill="var(--fill-0, #A8ADB5)"/>
</g>
</svg>
