<svg width="72" height="18" viewBox="0 0 72 18" fill="none" xmlns="http://www.w3.org/2000/svg">
<g clip-path="url(#clip0_743_81)">
<path d="M71.3612 0H0V17.9919H71.3612V0Z" fill="#523EE7"/>
<path d="M1.15728 1.16309H70.02V16.6836H1.15728V1.16309Z" fill="white"/>
<path d="M5.22834 3.75122L6.3774 11.4315H6.40409L7.62693 3.75122H9.63616L10.8578 11.4315H10.8843L12.0327 3.75122H14.0407L12.1502 14.1368H9.80759L8.64539 6.60304H8.61467L7.45247 14.1368H5.10927L3.21851 3.75122H5.22834Z" fill="#523EE7"/>
<path d="M18.9571 10.2247L17.9536 5.55648H17.9242L16.9203 10.2247H18.9571ZM19.2344 3.75122L21.9817 14.1368H19.7984L19.3205 11.9398H16.5569L16.0777 14.1368H13.8953L16.6448 3.75122H19.2344Z" fill="#523EE7"/>
<path d="M27.9917 5.46894H25.7205V14.1368H23.6278V5.46894H21.356V3.75122H27.9917V5.46894Z" fill="#523EE7"/>
<path d="M33.0605 5.60699C32.8808 5.26292 32.5523 5.09048 32.0776 5.09048C31.8136 5.09048 31.5983 5.16002 31.4313 5.30214C31.2599 5.44041 31.1273 5.66905 31.0294 5.98361C30.935 6.30119 30.8653 6.71056 30.8244 7.22222C30.786 7.72903 30.7684 8.35429 30.7684 9.09055C30.7684 9.87613 30.7957 10.5119 30.8473 10.9947C30.9015 11.4792 30.9837 11.8554 31.0961 12.1227C31.2071 12.3895 31.3482 12.5672 31.5168 12.66C31.687 12.7524 31.8848 12.8003 32.1053 12.8003C32.2919 12.8003 32.4617 12.7672 32.6214 12.7023C32.7839 12.6416 32.9206 12.5139 33.0364 12.3257C33.1492 12.1368 33.2463 11.8698 33.3118 11.5261C33.3825 11.1821 33.4149 10.7302 33.4149 10.167H35.5102C35.5102 10.7302 35.466 11.2621 35.3804 11.7669C35.2917 12.2699 35.1296 12.7114 34.891 13.0908C34.6545 13.4695 34.3185 13.7626 33.8883 13.9763C33.4567 14.1901 32.8972 14.2969 32.2084 14.2969C31.4216 14.2969 30.7974 14.1711 30.3318 13.9189C29.8664 13.6662 29.512 13.3015 29.2612 12.8284C29.0139 12.354 28.8548 11.7867 28.7825 11.1259C28.7125 10.466 28.6731 9.74028 28.6731 8.9452C28.6731 8.1582 28.7125 7.43347 28.7825 6.7708C28.8548 6.10571 29.0139 5.53482 29.2612 5.06016C29.512 4.5857 29.8664 4.21454 30.3318 3.94911C30.7974 3.68165 31.4216 3.55005 32.2084 3.55005C32.9542 3.55005 33.5439 3.66912 33.9742 3.91171C34.4065 4.15531 34.7297 4.46299 34.945 4.83637C35.1554 5.21056 35.2901 5.61285 35.3441 6.04304C35.3972 6.47343 35.4225 6.87815 35.4225 7.25679H33.3286C33.3286 6.50032 33.2382 5.95167 33.0605 5.60699Z" fill="#523EE7"/>
<path d="M38.7971 3.75122V7.72278H41.2418V3.75122H43.3351V14.1368H41.2418V9.52683H38.7971V14.1368H36.7009V3.75122H38.7971Z" fill="#523EE7"/>
<path d="M47.9164 12.5962C48.2847 12.5962 48.5805 12.5333 48.8029 12.4065C49.0263 12.28 49.2029 12.0702 49.3347 11.7784C49.4682 11.4908 49.5537 11.1079 49.5951 10.632C49.6396 10.158 49.659 9.56402 49.659 8.85809C49.659 8.26557 49.6414 7.74725 49.6012 7.30008C49.5672 6.85513 49.4845 6.48296 49.3643 6.18842C49.2424 5.89388 49.0626 5.66888 48.8249 5.51867C48.5876 5.36928 48.2708 5.29307 47.8721 5.29307H46.9841V12.5962H47.9164ZM48.324 3.75122C49.0507 3.75122 49.6372 3.87029 50.0829 4.10782C50.5281 4.34596 50.8768 4.68559 51.1232 5.12629C51.3711 5.56921 51.538 6.09886 51.6266 6.71968C51.7121 7.33869 51.7582 8.0333 51.7582 8.80028C51.7582 9.71119 51.701 10.5041 51.59 11.1768C51.4768 11.8512 51.286 12.4065 51.0159 12.8432C50.7422 13.2784 50.3803 13.6047 49.9236 13.8172C49.4686 14.0305 48.8888 14.1368 48.1926 14.1368H44.8901V3.75122H48.324Z" fill="#523EE7"/>
<path d="M55.0648 10.728C55.0996 11.2162 55.1667 11.6122 55.2694 11.9201C55.3696 12.2236 55.5162 12.4484 55.706 12.5887C55.8973 12.7281 56.1443 12.8003 56.4558 12.8003C56.7663 12.8003 57.0152 12.7281 57.2034 12.5887C57.3924 12.4484 57.5378 12.2236 57.6409 11.9201C57.7411 11.6122 57.8066 11.2162 57.843 10.728C57.8762 10.2362 57.8938 9.64223 57.8938 8.9452C57.8938 8.24655 57.8762 7.65564 57.843 7.17026C57.8066 6.68367 57.7411 6.28866 57.6409 5.97835C57.5378 5.66642 57.3924 5.44041 57.2034 5.30214C57.0152 5.16002 56.7663 5.09048 56.4558 5.09048C56.1443 5.09048 55.8973 5.16002 55.706 5.30214C55.5162 5.44041 55.3696 5.66642 55.2694 5.97835C55.1667 6.28866 55.0996 6.68367 55.0648 7.17026C55.0337 7.65564 55.0145 8.24655 55.0145 8.9452C55.0145 9.64223 55.0337 10.2362 55.0648 10.728ZM53.0301 6.7708C53.0996 6.10571 53.261 5.53482 53.5118 5.06016C53.7564 4.5857 54.1124 4.21454 54.5794 3.94911C55.0432 3.68165 55.6684 3.55005 56.4558 3.55005C57.2386 3.55005 57.863 3.68165 58.3312 3.94911C58.7982 4.21454 59.1526 4.5857 59.3998 5.06016C59.6453 5.53482 59.8054 6.10571 59.8785 6.7708C59.9531 7.43347 59.9859 8.1582 59.9859 8.9452C59.9859 9.74028 59.9531 10.466 59.8785 11.1259C59.8054 11.7867 59.6453 12.354 59.3998 12.8284C59.1526 13.3015 58.7982 13.6662 58.3312 13.9189C57.863 14.1711 57.2386 14.2969 56.4558 14.2969C55.6684 14.2969 55.0432 14.1711 54.5794 13.9189C54.1124 13.6662 53.7564 13.3015 53.5118 12.8284C53.261 12.354 53.0996 11.7867 53.0301 11.1259C52.9553 10.466 52.9187 9.74028 52.9187 8.9452C52.9187 8.1582 52.9553 7.43347 53.0301 6.7708Z" fill="#523EE7"/>
<path d="M65.7704 6.23893C65.7261 6.03617 65.6558 5.84897 65.5579 5.67916C65.4615 5.51097 65.337 5.36946 65.1888 5.25766C65.0378 5.14607 64.8574 5.09048 64.643 5.09048C64.1396 5.09048 63.7745 5.37208 63.5531 5.93388C63.3302 6.49526 63.2171 7.4262 63.2171 8.72667C63.2171 9.34729 63.238 9.90868 63.2762 10.4135C63.3146 10.9197 63.3841 11.3472 63.4884 11.7016C63.5887 12.0544 63.7341 12.3259 63.9239 12.5139C64.1117 12.7023 64.3581 12.8003 64.6565 12.8003C64.7833 12.8003 64.9213 12.7653 65.0723 12.6976C65.2231 12.6279 65.3628 12.528 65.493 12.3916C65.6262 12.2549 65.7336 12.0843 65.8223 11.8769C65.9079 11.668 65.9501 11.4222 65.9501 11.1408V10.0783H64.5722V8.53725H67.9585V14.137H66.4177V13.1784H66.39C66.1347 13.5859 65.8335 13.8736 65.4799 14.0424C65.1247 14.2112 64.7018 14.2969 64.2087 14.2969C63.5655 14.2969 63.0461 14.1859 62.6438 13.9623C62.2399 13.7414 61.9264 13.3949 61.6965 12.9303C61.4685 12.4645 61.3147 11.8912 61.2395 11.2051C61.1608 10.5228 61.124 9.72936 61.124 8.83017C61.124 7.95382 61.1764 7.19048 61.2914 6.53044C61.4018 5.8708 61.593 5.32053 61.8651 4.87963C62.136 4.43691 62.4957 4.10537 62.9406 3.88341C63.3882 3.65901 63.9443 3.55005 64.613 3.55005C65.7593 3.55005 66.5814 3.83125 67.086 4.39991C67.5902 4.96777 67.8435 5.77923 67.8435 6.8361H65.8371C65.8371 6.64243 65.8147 6.44291 65.7704 6.23893Z" fill="#523EE7"/>
</g>
<defs>
<clipPath id="clip0_743_81">
<rect width="71.3693" height="18" fill="white"/>
</clipPath>
</defs>
</svg>
